<svg width="48" height="38" viewBox="0 0 48 38" fill="none" xmlns="http://www.w3.org/2000/svg">
<path fill-rule="evenodd" clip-rule="evenodd" d="M37.3623 25.5018C39.1998 21.4756 41.6626 18.8212 43.6979 16.37C45.982 13.6266 47.7558 11.0992 47.9919 7.54933C48.0812 6.12686 47.4304 3.99314 46.2501 2.38648C45.3951 1.21802 44.2722 0.348028 43.0472 0.0875932C41.1203 -0.331525 38.5809 0.646422 36.3798 5.36473C35.8183 6.5713 35.4355 8.76209 35.2122 11.2832C34.7337 16.7762 34.9379 23.933 34.9187 24.9619C34.9123 25.5652 35.3271 26.0859 35.9141 26.2193C36.501 26.3463 37.1072 26.0542 37.356 25.5017L37.3623 25.5018ZM37.7579 11.4993C37.509 14.3062 37.4516 17.5639 37.4452 20.1866C38.8617 18.0909 40.3802 16.3697 41.7328 14.7504C43.6595 12.4453 45.2483 10.3687 45.4461 7.38406C45.5099 6.41889 44.9931 4.97736 44.1892 3.8851C43.7299 3.25007 43.1684 2.71029 42.5048 2.56423C42.0455 2.46898 41.5542 2.61503 41.0374 3.02781C40.2589 3.65028 39.4869 4.74242 38.7021 6.43167C38.2173 7.46041 37.9493 9.34653 37.7579 11.4993Z" fill="#CC280C"/>
<path fill-rule="evenodd" clip-rule="evenodd" d="M18.1828 32.8619C15.6052 30.8298 11.5728 28.4103 5.40308 29.8138C5.10958 29.8773 2.53833 30.4996 1.18574 31.5983C0.496655 32.1571 0.0819435 32.8366 0.0117569 33.5668C-0.0584259 34.2781 0.171272 35.129 1.09004 36.0117C2.57666 37.4342 4.6248 37.9739 7.19603 37.9994C8.89441 38.0124 10.8479 37.805 13.0221 37.574C15.087 37.3547 17.3509 37.1143 19.7844 37.0215C20.3458 37.0024 20.8244 36.6214 20.9711 36.0816C21.1178 35.5482 20.8945 34.9766 20.4223 34.6781C20.0999 34.4766 19.7158 34.1479 19.2583 33.7565C18.9373 33.4818 18.5801 33.1762 18.1828 32.8619ZM2.86352 34.1764C3.91002 35.1798 5.40292 35.4338 7.22134 35.4529C8.89843 35.4697 10.8256 35.2628 12.9695 35.0326C14.0555 34.9159 15.1971 34.7933 16.3899 34.6908L16.3962 34.6909C14.246 33.0397 10.9474 31.16 5.97711 32.2904C5.81769 32.3221 4.86058 32.5381 3.92267 32.9381C3.55262 33.0969 3.17618 33.2811 2.88268 33.5033C2.76784 33.5859 2.62746 33.7446 2.57642 33.8081C2.58388 33.8187 2.59329 33.8327 2.6044 33.8492C2.6598 33.9314 2.75723 34.0759 2.86352 34.1764Z" fill="#CC280C"/>
<path fill-rule="evenodd" clip-rule="evenodd" d="M30.0442 29.6803C26.3946 14.9032 20.4736 10.1347 16.9518 9.12352C14.7953 8.50753 13.2576 9.21243 12.7152 9.97447C10.5587 12.9973 11.7071 16.0201 14.5973 19.0364C16.1288 20.6372 18.1728 22.2521 20.2685 23.9079C23.0445 26.1013 25.9113 28.3663 27.7981 30.7654C28.1682 31.2353 28.819 31.3877 29.3613 31.121C29.8972 30.8543 30.1844 30.2573 30.0376 29.6731L30.0442 29.6803ZM14.7567 11.5056C13.4105 13.4678 14.5718 15.3286 16.4476 17.2845C17.9968 18.8997 20.054 20.5337 22.1652 22.2105C23.5306 23.2951 24.9187 24.3976 26.2065 25.5245L26.2094 25.5335L26.2095 25.5272L26.2065 25.5245C23.5336 17.3959 20.1982 13.588 17.5322 12.1089C16.6644 11.6326 15.9052 11.4167 15.3054 11.4167C15.1013 11.4167 14.8269 11.4866 14.7567 11.5056Z" fill="#F8F8F8"/>
</svg>
