<svg width="48" height="38" viewBox="0 0 48 38" fill="none" xmlns="http://www.w3.org/2000/svg">
<path fill-rule="evenodd" clip-rule="evenodd" d="M10.6377 25.5018C8.80019 21.4756 6.33741 18.8212 4.30208 16.37C2.01798 13.6266 0.244153 11.0992 0.0081322 7.54933C-0.0811915 6.12686 0.569595 3.99314 1.74994 2.38648C2.60491 1.21802 3.72778 0.348028 4.95281 0.0875932C6.87968 -0.331525 9.41907 0.646422 11.6202 5.36473C12.1817 6.5713 12.5645 8.76209 12.7878 11.2832C13.2663 16.7762 13.0621 23.933 13.0813 24.9619C13.0877 25.5652 12.6729 26.0859 12.0859 26.2193C11.499 26.3463 10.8928 26.0542 10.644 25.5017L10.6377 25.5018ZM10.2421 11.4993C10.491 14.3062 10.5484 17.5639 10.5548 20.1866C9.13832 18.0909 7.61983 16.3697 6.2672 14.7504C4.34049 12.4453 2.7517 10.3687 2.55391 7.38406C2.49011 6.41889 3.00691 4.97736 3.81084 3.8851C4.27014 3.25007 4.83161 2.71029 5.49516 2.56423C5.95455 2.46898 6.44582 2.61503 6.96264 3.02781C7.74106 3.65028 8.51307 4.74242 9.29785 6.43167C9.78275 7.46041 10.0507 9.34653 10.2421 11.4993Z" fill="#CC280C"/>
<path fill-rule="evenodd" clip-rule="evenodd" d="M29.8172 32.8619C32.3948 30.8298 36.4272 28.4103 42.5969 29.8138C42.8904 29.8773 45.4617 30.4996 46.8143 31.5983C47.5033 32.1571 47.9181 32.8366 47.9882 33.5668C48.0584 34.2781 47.8287 35.129 46.91 36.0117C45.4233 37.4342 43.3752 37.9739 40.804 37.9994C39.1056 38.0124 37.1521 37.805 34.9779 37.574C32.913 37.3547 30.6491 37.1143 28.2156 37.0215C27.6542 37.0024 27.1756 36.6214 27.0289 36.0816C26.8822 35.5482 27.1055 34.9766 27.5777 34.6781C27.9001 34.4766 28.2842 34.1479 28.7417 33.7565C29.0627 33.4818 29.4199 33.1762 29.8172 32.8619ZM45.1365 34.1764C44.09 35.1798 42.5971 35.4338 40.7787 35.4529C39.1016 35.4697 37.1744 35.2628 35.0305 35.0326C33.9445 34.9159 32.8029 34.7933 31.6101 34.6908L31.6038 34.6909C33.754 33.0397 37.0526 31.16 42.0229 32.2904C42.1823 32.3221 43.1394 32.5381 44.0773 32.9381C44.4474 33.0969 44.8238 33.2811 45.1173 33.5033C45.2322 33.5859 45.3725 33.7446 45.4236 33.8081C45.4161 33.8187 45.4067 33.8327 45.3956 33.8492C45.3402 33.9314 45.2428 34.0759 45.1365 34.1764Z" fill="#CC280C"/>
<path fill-rule="evenodd" clip-rule="evenodd" d="M17.9558 29.6803C21.6054 14.9032 27.5264 10.1347 31.0482 9.12352C33.2047 8.50753 34.7424 9.21243 35.2848 9.97447C37.4413 12.9973 36.2929 16.0201 33.4027 19.0364C31.8712 20.6372 29.8272 22.2521 27.7315 23.9079C24.9555 26.1013 22.0887 28.3663 20.2019 30.7654C19.8318 31.2353 19.181 31.3877 18.6387 31.121C18.1028 30.8543 17.8156 30.2573 17.9624 29.6731L17.9558 29.6803ZM33.2433 11.5056C34.5895 13.4678 33.4282 15.3286 31.5524 17.2845C30.0032 18.8997 27.946 20.5337 25.8348 22.2105C24.4694 23.2951 23.0813 24.3976 21.7935 25.5245L21.7906 25.5335L21.7905 25.5272L21.7935 25.5245C24.4664 17.3959 27.8018 13.588 30.4678 12.1089C31.3356 11.6326 32.0948 11.4167 32.6946 11.4167C32.8987 11.4167 33.1731 11.4866 33.2433 11.5056Z" fill="#F8F8F8"/>
</svg>
