<svg width="117" height="55" viewBox="0 0 117 55" fill="none" xmlns="http://www.w3.org/2000/svg">
<path d="M113.217 25.4163H109.6C108.803 25.4163 108.157 26.0702 108.157 26.8767V30.7726C108.157 31.5792 108.803 32.233 109.6 32.233H113.217C114.014 32.233 114.66 31.5792 114.66 30.7726V26.8767C114.66 26.0702 114.014 25.4163 113.217 25.4163Z" fill="#F9C0C0"/>
<path d="M113.217 32.3416H109.6C108.745 32.3416 108.049 31.6375 108.049 30.772V26.876C108.049 26.0105 108.745 25.3063 109.6 25.3063H113.217C114.072 25.3063 114.768 26.0105 114.768 26.876V30.772C114.768 31.6375 114.072 32.3416 113.217 32.3416ZM109.6 25.5249C108.864 25.5249 108.265 26.1311 108.265 26.876V30.772C108.265 31.517 108.864 32.123 109.6 32.123H113.217C113.953 32.123 114.552 31.517 114.552 30.772V26.876C114.552 26.1311 113.953 25.5249 113.217 25.5249H109.6Z" fill="#031B1C" stroke="#031B1C"/>
<path d="M3.60352 43.8248H112.62V28.3093C112.62 24.6661 110.099 21.5207 106.577 20.7692L82.0161 15.5286L73.3384 5.42224C71.1796 2.90799 68.05 1.46429 64.759 1.46429H32.12C27.39 1.46429 22.9317 3.7017 20.0686 7.51231L9.19618 21.9825C5.56802 26.8111 3.60352 32.7102 3.60352 38.7766V43.8248Z" fill="#010101"/>
<path d="M3.60352 43.8248H112.62V28.3093C112.62 24.6661 110.099 21.5207 106.577 20.7692L82.0161 15.5286L73.3384 5.42224C71.1796 2.90799 68.05 1.46429 64.759 1.46429H32.12C27.39 1.46429 22.9317 3.7017 20.0686 7.51231L9.19618 21.9825C5.56802 26.8111 3.60352 32.7102 3.60352 38.7766V43.8248Z" fill="#010101"/>
<path d="M92.5293 30.7473C85.3797 30.7473 79.5798 36.5884 79.5293 43.8128H104.769C105.027 43.8128 105.28 43.793 105.528 43.755C105.447 36.5575 99.66 30.7473 92.5293 30.7473Z" fill="#171717"/>
<path d="M31.792 40.0275H85.5008V43.8226H31.792V40.0275Z" fill="#171717"/>
<path d="M11.5555 23.5678C14.8804 16.2766 18.4967 11.3164 21.5131 5.85342C20.9964 6.3669 20.5131 6.92059 20.0684 7.51243L9.19618 21.9825C5.56802 26.8111 3.60352 32.7102 3.60352 38.7766V43.8248H8.49523C8.41241 38.9716 7.86232 31.6667 11.5555 23.5678Z" fill="#171717"/>
<path d="M112.62 43.9348H3.6031C3.5435 43.9348 3.49512 43.886 3.49512 43.8255V38.7774C3.49512 32.7235 5.4891 26.7358 9.10981 21.917L19.9822 7.44705C22.848 3.63294 27.3854 1.35587 32.1196 1.35587H64.7586C68.0824 1.35587 71.2392 2.81213 73.4195 5.35141L82.0735 15.4302L106.599 20.663C110.15 21.4208 112.728 24.6368 112.728 28.3102V43.8256C112.728 43.8861 112.679 43.9349 112.62 43.9349V43.9348ZM3.71109 43.7162H112.512V28.3101C112.512 24.7395 110.006 21.6134 106.554 20.8768L81.9935 15.6364C81.9705 15.6315 81.9497 15.6191 81.9343 15.6012L73.2565 5.4948C71.1173 3.0034 68.02 1.57446 64.7587 1.57446H32.1196C27.4524 1.57446 22.9793 3.81929 20.1541 7.5793L9.28172 22.0494C5.68942 26.8302 3.71109 32.7711 3.71109 38.7774V43.7162Z" fill="#031B1C" stroke="#031B1C"/>
<path d="M20.7911 30.7473C13.6414 30.7473 7.84155 36.5884 7.79102 43.8128H33.7912C33.7407 36.5884 27.9408 30.7473 20.7911 30.7473Z" fill="#171717"/>
<path d="M33.7917 43.9231H7.79158C7.76275 43.9231 7.73521 43.9115 7.71502 43.8909C7.69472 43.8702 7.68349 43.8422 7.68359 43.8131C7.70822 40.2886 9.08246 36.9792 11.5532 34.4944C14.0254 32.0082 17.3062 30.639 20.7915 30.639C24.2768 30.639 27.5578 32.0082 30.0298 34.4944C32.5006 36.9791 33.8749 40.2886 33.8996 43.8131C33.8998 43.8422 33.8884 43.8701 33.8681 43.8909C33.8478 43.9114 33.8203 43.9231 33.7916 43.9231H33.7917ZM7.90076 43.7045H33.6825C33.5744 36.6104 27.8142 30.8576 20.7915 30.8576C13.7689 30.8576 8.00885 36.6104 7.90076 43.7045Z" fill="#031B1C" stroke="#031B1C"/>
<path d="M20.7919 53.9375C26.2646 53.9375 30.7011 49.4473 30.7011 43.9083C30.7011 38.3693 26.2646 33.8791 20.7919 33.8791C15.3193 33.8791 10.8828 38.3693 10.8828 43.9083C10.8828 49.4473 15.3193 53.9375 20.7919 53.9375Z" fill="#031B1C" stroke="#031B1C"/>
<path d="M20.7924 54.0467C15.269 54.0467 10.7754 49.4987 10.7754 43.9082C10.7754 38.3177 15.269 33.7696 20.7924 33.7696C26.3158 33.7696 30.8095 38.3177 30.8095 43.9082C30.8095 49.4987 26.3158 54.0467 20.7924 54.0467ZM20.7924 33.9883C15.3881 33.9883 10.9914 38.4384 10.9914 43.9083C10.9914 49.3781 15.3881 53.8282 20.7924 53.8282C26.1967 53.8282 30.5935 49.3781 30.5935 43.9083C30.5935 38.4384 26.1968 33.9883 20.7924 33.9883Z" fill="#031B1C" stroke="#031B1C"/>
<path d="M20.7908 47.3846C22.688 47.3846 24.2261 45.8279 24.2261 43.9077C24.2261 41.9874 22.688 40.4308 20.7908 40.4308C18.8935 40.4308 17.3555 41.9874 17.3555 43.9077C17.3555 45.8279 18.8935 47.3846 20.7908 47.3846Z" fill="#F9C0C0"/>
<path d="M20.7903 47.4939C18.8366 47.4939 17.2471 45.885 17.2471 43.9075C17.2471 41.93 18.8365 40.3213 20.7903 40.3213C22.7442 40.3213 24.3336 41.93 24.3336 43.9075C24.3336 45.885 22.7442 47.4939 20.7903 47.4939ZM20.7903 40.54C18.9556 40.54 17.463 42.0507 17.463 43.9076C17.463 45.7646 18.9556 47.2754 20.7903 47.2754C22.6251 47.2754 24.1177 45.7647 24.1177 43.9076C24.1177 42.0506 22.6251 40.54 20.7903 40.54Z" fill="#031B1C" stroke="#031B1C"/>
<path d="M31.2761 5.85291H43.2714C43.9363 5.85291 44.4754 6.39851 44.4754 7.07145V16.6639C44.4754 18.1422 43.2914 19.3405 41.8309 19.3405H21.7681C19.5901 19.3405 18.3859 16.7839 19.7571 15.0713L23.8524 9.95632C25.9306 7.36065 27.9752 5.85291 31.2761 5.85291Z" fill="#F9C0C0"/>
<path d="M31.2761 5.85291H43.2714C43.9363 5.85291 44.4754 6.39851 44.4754 7.07145V16.6639C44.4754 18.1422 43.2914 19.3405 41.8309 19.3405H21.7681C19.5901 19.3405 18.3859 16.7839 19.7571 15.0713L23.8524 9.95632C25.9306 7.36065 27.9752 5.85291 31.2761 5.85291Z" fill="#F9F0C0"/>
<path d="M41.8312 19.4497H21.7686C20.7189 19.4497 19.7863 18.8541 19.3345 17.8951C18.8828 16.9362 19.0127 15.8278 19.6736 15.0024L23.7688 9.8873C25.7603 7.39993 27.7991 5.74344 31.2764 5.74344H43.2717C43.9951 5.74344 44.5837 6.3391 44.5837 7.07128V16.6638C44.5837 18.1999 43.3488 19.4497 41.8312 19.4497ZM31.2764 5.96214C27.8845 5.96214 25.8891 7.58628 23.9365 10.0251L19.8413 15.1402C19.2334 15.8994 19.1139 16.919 19.5294 17.8011C19.945 18.6832 20.8029 19.2312 21.7684 19.2312H41.8312C43.2298 19.2312 44.3677 18.0796 44.3677 16.664V7.07139C44.3677 6.45966 43.876 5.96214 43.2717 5.96214H31.2764Z" fill="#031B1C" stroke="#031B1C"/>
<path d="M65.7299 5.85291H51.6102C50.9167 5.85291 50.3545 6.4219 50.3545 7.1238V16.707C50.3545 18.1615 51.5195 19.3406 52.9566 19.3406H76.7271C78.3012 19.3406 79.1714 17.4931 78.1805 16.2553L72.4472 9.09441C70.8056 7.04402 68.3374 5.85301 65.7299 5.85301V5.85291Z" fill="#F9C0C0"/>
<path d="M65.7299 5.85291H51.6102C50.9167 5.85291 50.3545 6.4219 50.3545 7.1238V16.707C50.3545 18.1615 51.5195 19.3406 52.9566 19.3406H76.7271C78.3012 19.3406 79.1714 17.4931 78.1805 16.2553L72.4472 9.09441C70.8056 7.04402 68.3374 5.85301 65.7299 5.85301V5.85291Z" fill="#F9F0C0"/>
<path d="M76.7277 19.4496H52.9571C51.4628 19.4496 50.2471 18.2192 50.2471 16.7067V7.12363C50.2471 6.3626 50.8588 5.74344 51.6107 5.74344H65.7305C68.3829 5.74344 70.8617 6.93958 72.5315 9.02528L78.2649 16.1863C78.7498 16.7919 78.8451 17.6052 78.5137 18.3089C78.1823 19.0125 77.4979 19.4497 76.7277 19.4497V19.4496ZM51.6107 5.96203C50.9779 5.96203 50.463 6.48316 50.463 7.12363V16.7068C50.463 18.0987 51.5819 19.2311 52.9571 19.2311H76.7277C77.4139 19.2311 78.0236 18.8417 78.3188 18.2149C78.614 17.5881 78.5292 16.8635 78.0972 16.324L72.3638 9.16299C70.7352 7.12877 68.3174 5.96203 65.7305 5.96203H51.6107Z" fill="#031B1C" stroke="#031B1C"/>
<path d="M47.398 43.8832C47.3384 43.8832 47.29 43.8343 47.29 43.7739V1.52269C47.29 1.46225 47.3384 1.41339 47.398 1.41339C47.4576 1.41339 47.506 1.46225 47.506 1.52269V43.7739C47.506 43.8343 47.4576 43.8832 47.398 43.8832Z" fill="#031B1C" stroke="#031B1C"/>
<path d="M83.8492 43.883C83.7896 43.883 83.7412 43.8341 83.7412 43.7737V15.9496C83.7412 15.8892 83.7896 15.8403 83.8492 15.8403C83.9088 15.8403 83.9572 15.8892 83.9572 15.9496V43.7736C83.9572 43.834 83.9088 43.8829 83.8492 43.8829V43.883Z" fill="#031B1C" stroke="#031B1C"/>
<path d="M95.2286 30.7473C88.0789 30.7473 82.2791 36.5884 82.2285 43.8128H107.468C107.726 43.8128 107.98 43.793 108.227 43.755C108.146 36.5575 102.359 30.7473 95.2286 30.7473Z" fill="#171717"/>
<path d="M107.467 43.9224H82.2281C82.1993 43.9224 82.1717 43.9109 82.1515 43.8902C82.1312 43.8696 82.12 43.8416 82.1201 43.8124C82.1447 40.2879 83.519 36.9785 85.9897 34.4937C88.4619 32.0075 91.7428 30.6384 95.228 30.6384C98.7133 30.6384 101.977 32.0009 104.447 34.4748C106.914 36.9465 108.295 40.242 108.335 43.754C108.335 43.8086 108.296 43.8552 108.243 43.8633C107.987 43.9026 107.726 43.9224 107.467 43.9224H107.467ZM82.3374 43.7039H107.467C107.684 43.7039 107.903 43.6893 108.118 43.6606C107.987 36.5918 102.224 30.857 95.2283 30.857C88.2322 30.857 82.4455 36.6098 82.3374 43.7039Z" fill="#031B1C" stroke="#031B1C"/>
<path d="M95.2285 53.9363C100.701 53.9363 105.138 49.4461 105.138 43.9071C105.138 38.3681 100.701 33.8779 95.2285 33.8779C89.7558 33.8779 85.3193 38.3681 85.3193 43.9071C85.3193 49.4461 89.7558 53.9363 95.2285 53.9363Z" fill="#031B1C" stroke="#031B1C"/>
<path d="M95.229 54.046C89.7056 54.046 85.2119 49.498 85.2119 43.9075C85.2119 38.317 89.7056 33.7689 95.229 33.7689C100.752 33.7689 105.246 38.317 105.246 43.9075C105.246 49.498 100.752 54.046 95.229 54.046ZM95.229 33.9876C89.8247 33.9876 85.4279 38.4377 85.4279 43.9076C85.4279 49.3774 89.8246 53.8275 95.229 53.8275C100.633 53.8275 105.03 49.3774 105.03 43.9076C105.03 38.4377 100.633 33.9876 95.229 33.9876Z" fill="#031B1C" stroke="#031B1C"/>
<path d="M95.2292 47.3846C97.1265 47.3846 98.6645 45.8279 98.6645 43.9077C98.6645 41.9874 97.1265 40.4308 95.2292 40.4308C93.332 40.4308 91.7939 41.9874 91.7939 43.9077C91.7939 45.8279 93.332 47.3846 95.2292 47.3846Z" fill="#F9C0C0"/>
<path d="M95.2288 47.4939C93.275 47.4939 91.6855 45.885 91.6855 43.9075C91.6855 41.93 93.275 40.3213 95.2288 40.3213C97.1826 40.3213 98.7721 41.93 98.7721 43.9075C98.7721 45.885 97.1826 47.4939 95.2288 47.4939ZM95.2288 40.54C93.3941 40.54 91.9015 42.0507 91.9015 43.9076C91.9015 45.7646 93.3941 47.2754 95.2288 47.2754C97.0635 47.2754 98.5561 45.7647 98.5561 43.9076C98.5561 42.0506 97.0635 40.54 95.2288 40.54Z" fill="#031B1C" stroke="#031B1C"/>
<path d="M51.4092 24.5634C51.4092 23.7193 52.0916 23.0285 52.9256 23.0285H56.9333C57.7673 23.0285 58.4497 23.7192 58.4497 24.5634H51.4092Z" fill="#010101"/>
<path d="M58.4503 24.6729H51.4097C51.3501 24.6729 51.3018 24.6241 51.3018 24.5636C51.3018 23.6571 52.0305 22.9196 52.9261 22.9196H56.9337C57.8295 22.9196 58.5582 23.6571 58.5582 24.5636C58.5582 24.6241 58.5098 24.6729 58.4502 24.6729H58.4503ZM51.5218 24.4543H58.3382C58.2829 23.7191 57.6742 23.1382 56.9338 23.1382H52.9262C52.186 23.1382 51.5771 23.7191 51.5218 24.4543Z" fill="#031B1C" stroke="#031B1C"/>
<path d="M81.8785 16.2567H82.6524V19.6519H81.8785C81.2508 19.6519 80.7412 19.1362 80.7412 18.5008V17.4079C80.7412 16.7725 81.2508 16.2567 81.8785 16.2567Z" fill="#031B1C" stroke="#031B1C"/>
<path d="M82.652 19.7611H81.8781C81.1914 19.7611 80.6328 19.1957 80.6328 18.5007V17.4077C80.6328 16.7127 81.1914 16.1473 81.8781 16.1473H82.652C82.7116 16.1473 82.7599 16.1962 82.7599 16.2566V19.6518C82.7599 19.7122 82.7116 19.7611 82.652 19.7611ZM81.8781 16.3659C81.3105 16.3659 80.8488 16.8333 80.8488 17.4077V18.5007C80.8488 19.0751 81.3105 19.5425 81.8781 19.5425H82.544V16.3659H81.8781Z" fill="#031B1C" stroke="#031B1C"/>
<path d="M81.8252 13.5732H82.7258C83.8011 13.5732 84.6742 14.4568 84.6742 15.5452V20.3635C84.6742 21.4519 83.8011 22.3356 82.7258 22.3356H81.8252V13.5732Z" fill="#010101"/>
<path d="M82.7264 22.4446H81.8258C81.7662 22.4446 81.7178 22.3957 81.7178 22.3353V13.573C81.7178 13.5126 81.7662 13.4637 81.8258 13.4637H82.7264C83.8602 13.4637 84.7827 14.3974 84.7827 15.545V20.3634C84.7827 21.511 83.8602 22.4446 82.7264 22.4446ZM81.9337 22.226H82.7264C83.7411 22.226 84.5667 21.3904 84.5667 20.3634V15.545C84.5667 14.518 83.7411 13.6823 82.7264 13.6823H81.9337V22.226Z" fill="#031B1C" stroke="#031B1C"/>
<path d="M111.412 38.5063H112.533C113.609 38.5063 114.482 39.3899 114.482 40.4783V41.8535C114.482 42.9419 113.609 43.8255 112.533 43.8255H111.412V38.5063Z" fill="#F9C0C0"/>
<path d="M112.533 43.9345H111.412C111.352 43.9345 111.304 43.8857 111.304 43.8252V38.5061C111.304 38.4457 111.352 38.3968 111.412 38.3968H112.533C113.667 38.3968 114.589 39.3304 114.589 40.478V41.8532C114.589 43.0008 113.667 43.9345 112.533 43.9345ZM111.52 43.7159H112.533C113.548 43.7159 114.373 42.8803 114.373 41.8532V40.478C114.373 39.451 113.548 38.6154 112.533 38.6154H111.52V43.7159Z" fill="#031B1C" stroke="#031B1C"/>
<path d="M2.78809 38.6921H6.04153V43.8267H2.78809V38.6921Z" fill="#F9C0C0"/>
<path d="M6.04112 43.9364H2.78767C2.72807 43.9364 2.67969 43.8875 2.67969 43.8271V38.6925C2.67969 38.632 2.72807 38.5832 2.78767 38.5832H6.04112C6.10073 38.5832 6.1491 38.632 6.1491 38.6925V43.8271C6.1491 43.8875 6.10073 43.9364 6.04112 43.9364ZM2.89566 43.7178H5.93313V38.8018H2.89566V43.7178Z" fill="#031B1C" stroke="#031B1C"/>
</svg>
