<svg width="1280" height="337" viewBox="0 0 1280 337" fill="none" xmlns="http://www.w3.org/2000/svg">
<g clip-path="url(#clip0_1280_20903)">
<rect width="1280" height="337" rx="32" fill="#250045"/>
<g opacity="0.1">
<path d="M554.412 300.246H554.478V308.681H565.061V300.246H565.123C565.232 300.246 565.32 300.135 565.32 299.99C565.32 299.845 565.234 299.737 565.123 299.737H563.852C563.718 296.937 561.943 294.717 559.766 294.717C557.589 294.717 555.817 296.937 555.686 299.737H554.412C554.304 299.737 554.218 299.854 554.218 299.99C554.218 300.127 554.304 300.246 554.412 300.246Z" fill="#F8F8F8" fill-opacity="0.9"/>
<path d="M771.253 298.94H771.319V305.383H781.902V298.94H781.964C782.073 298.94 782.161 298.855 782.161 298.747C782.161 298.638 782.075 298.55 781.964 298.55H780.691C780.56 296.41 778.784 294.714 776.61 294.714C774.436 294.714 772.661 296.41 772.527 298.55H771.253C771.145 298.55 771.059 298.638 771.059 298.747C771.059 298.855 771.148 298.94 771.253 298.94Z" fill="#F8F8F8" fill-opacity="0.9"/>
<path d="M952.911 300.246H952.974V308.681H963.56V300.246H963.62C963.728 300.246 963.816 300.135 963.816 299.99C963.816 299.845 963.731 299.737 963.62 299.737H962.346C962.215 296.937 960.44 294.717 958.266 294.717C956.091 294.717 954.316 296.937 954.182 299.737H952.909C952.8 299.737 952.712 299.854 952.712 299.99C952.712 300.127 952.8 300.246 952.909 300.246H952.911Z" fill="#F8F8F8" fill-opacity="0.9"/>
<path d="M378.327 313.831H378.398V387.701H983.108V278.249H969.57V342.453H968.322V331.022H968.444C968.649 331.022 968.814 330.86 968.814 330.652C968.814 330.444 968.649 330.282 968.444 330.282H967.014V315.012H967.116C967.296 315.012 967.441 314.87 967.441 314.691C967.441 314.511 967.296 314.369 967.116 314.369H965.375V305.923H965.458C965.606 305.923 965.72 305.807 965.72 305.664C965.72 305.522 965.606 305.403 965.458 305.403H951.079C950.937 305.403 950.817 305.519 950.817 305.664C950.817 305.809 950.937 305.923 951.079 305.923H951.165V314.369H949.424C949.244 314.369 949.102 314.511 949.102 314.691C949.102 314.87 949.244 315.012 949.424 315.012H949.529V330.282H948.651V320.493H943.348C943.294 320.314 943.135 320.186 942.941 320.186H942.004V314.696H942.761L941.568 307.412H929.5L928.306 314.696H929.064V320.186H928.129C927.936 320.186 927.773 320.314 927.716 320.493H924.679V299.171H924.907C925.3 299.171 925.616 298.855 925.616 298.465C925.616 298.075 925.3 297.759 924.907 297.759H923.391V284.715H924.622L922.684 280.065H917.672V274.089H918.338C918.715 274.089 919.017 273.79 919.017 273.415C919.017 273.039 918.715 272.737 918.338 272.737H915.973V268.367H916.401C916.643 268.367 916.84 268.17 916.84 267.928C916.84 267.686 916.643 267.49 916.401 267.49H913.184V255.649H912.582V267.49H909.368C909.126 267.49 908.929 267.686 908.929 267.928C908.929 268.17 909.123 268.367 909.368 268.367H909.796V272.737H907.431C907.054 272.737 906.752 273.042 906.752 273.415C906.752 273.788 907.054 274.089 907.431 274.089H908.097V280.065H903.085L901.147 284.715H902.378V297.759H900.86C900.469 297.759 900.153 298.078 900.153 298.465C900.153 298.852 900.469 299.171 900.86 299.171H901.088V324.904H898.247V301.86H898.338C898.492 301.86 898.617 301.732 898.617 301.581C898.617 301.43 898.492 301.305 898.338 301.305H883.104C882.951 301.305 882.828 301.433 882.828 301.581C882.828 301.729 882.951 301.86 883.104 301.86H883.196V316.21L877.653 319.36V308.325H876.85V319.819L868.164 324.759V327.601H864.66V320.425H864.127V327.601H860.716V316.734L855.795 316.657V312.998C856.467 312.397 856.895 311.521 856.895 310.545C856.895 308.729 855.419 307.252 853.598 307.252C851.777 307.252 850.301 308.729 850.301 310.545C850.301 311.521 850.726 312.391 851.401 312.998V316.583L845.662 316.489V327.601H841.393V319.019H841.542C841.795 319.019 842.003 318.811 842.003 318.558C842.003 318.305 841.795 318.1 841.542 318.1H840.04V298.9H840.1C840.356 298.9 840.561 298.693 840.561 298.439C840.561 298.186 840.356 297.978 840.1 297.978H838.646V289.8H840.396L835.039 280.532H828.756L823.396 289.8H825.146V297.978H823.695C823.439 297.978 823.234 298.183 823.234 298.439C823.234 298.695 823.436 298.9 823.695 298.9H823.755V318.1H822.253C822.211 318.1 822.174 318.111 822.134 318.12V303.786H822.191C822.424 303.786 822.612 303.598 822.612 303.362C822.612 303.126 822.424 302.941 822.191 302.941H807.182C806.949 302.941 806.761 303.129 806.761 303.362C806.761 303.596 806.949 303.786 807.182 303.786H807.239V321.347H805.866C805.632 321.347 805.444 321.534 805.444 321.771C805.444 322.007 805.632 322.192 805.866 322.192H806.003V333.913H802.358V295.665H802.532C802.831 295.665 803.073 295.426 803.073 295.127C803.073 294.828 802.831 294.583 802.532 294.583H801.449V287.774H802.313L801.449 282.501V278.252H787.908V278.725H785.845L784.361 287.774H785.304V294.583H784.141C783.842 294.583 783.6 294.825 783.6 295.127C783.6 295.429 783.842 295.665 784.141 295.665H784.318V313.402H783.714V305.923H783.796C783.942 305.923 784.059 305.807 784.059 305.664C784.059 305.522 783.942 305.403 783.796 305.403H769.418C769.27 305.403 769.156 305.519 769.156 305.664C769.156 305.809 769.273 305.923 769.418 305.923H769.501V314.369H767.76C767.58 314.369 767.438 314.511 767.438 314.691C767.438 314.87 767.58 315.012 767.76 315.012H767.862V330.282H766.984V320.493H761.684C761.63 320.314 761.471 320.186 761.274 320.186H760.339V314.696H761.097L759.903 307.412H747.833L746.642 314.696H747.397V320.186H746.462C746.266 320.186 746.106 320.314 746.049 320.493H743.012V299.171H743.24C743.633 299.171 743.946 298.855 743.946 298.465C743.946 298.075 743.63 297.759 743.24 297.759H741.724V284.715H742.952L741.014 280.065H736.005V274.089H736.669C737.045 274.089 737.35 273.79 737.35 273.415C737.35 273.039 737.048 272.737 736.669 272.737H734.304V268.367H734.734C734.976 268.367 735.173 268.17 735.173 267.928C735.173 267.686 734.976 267.49 734.734 267.49H731.517V255.649H730.915V267.49H727.701C727.459 267.49 727.262 267.686 727.262 267.928C727.262 268.17 727.459 268.367 727.701 268.367H728.129V272.737H725.764C725.387 272.737 725.085 273.042 725.085 273.415C725.085 273.788 725.39 274.089 725.764 274.089H726.43V280.065H721.418L719.483 284.715H720.714V297.759H719.195C718.805 297.759 718.489 298.078 718.489 298.465C718.489 298.852 718.805 299.171 719.195 299.171H719.423V324.904H716.583V301.86H716.674C716.828 301.86 716.953 301.732 716.953 301.581C716.953 301.43 716.828 301.305 716.674 301.305H701.44C701.286 301.305 701.161 301.433 701.161 301.581C701.161 301.729 701.284 301.86 701.44 301.86H701.529V316.21L695.986 319.36V308.325H695.183V319.819L686.495 324.759V327.601H682.993V320.425H682.46V327.601H679.049V316.734L674.125 316.657V312.998C674.8 312.397 675.225 311.521 675.225 310.545C675.225 308.729 673.749 307.252 671.928 307.252C670.107 307.252 668.631 308.729 668.631 310.545C668.631 311.521 669.056 312.391 669.728 312.998V316.583L663.992 316.489V327.601H659.724V319.019H659.875C660.128 319.019 660.336 318.811 660.336 318.558C660.336 318.305 660.131 318.1 659.875 318.1H658.373V298.9H658.433C658.686 298.9 658.894 298.693 658.894 298.439C658.894 298.186 658.689 297.978 658.433 297.978H656.98V289.8H658.729L653.369 280.532H647.089L641.729 289.8H643.479V297.978H642.025C641.772 297.978 641.567 298.183 641.567 298.439C641.567 298.695 641.772 298.9 642.025 298.9H642.085V318.1H640.584C640.541 318.1 640.504 318.111 640.464 318.12V303.786H640.521C640.754 303.786 640.943 303.598 640.943 303.362C640.943 303.126 640.754 302.941 640.521 302.941H625.513C625.279 302.941 625.091 303.129 625.091 303.362C625.091 303.596 625.279 303.786 625.513 303.786H625.57V321.347H624.196C623.962 321.347 623.774 321.534 623.774 321.771C623.774 322.007 623.962 322.192 624.196 322.192H624.333V333.913H620.685V295.665H620.862C621.161 295.665 621.401 295.426 621.401 295.127C621.401 294.828 621.158 294.583 620.862 294.583H619.702V287.774H620.643L619.158 278.725H604.176L602.691 287.774H603.631V294.583H602.471C602.172 294.583 601.933 294.825 601.933 295.127C601.933 295.429 602.175 295.665 602.471 295.665H602.648V313.402H595.157C595.037 313.402 594.937 313.498 594.937 313.618C594.937 313.737 595.034 313.834 595.157 313.834H595.228V346.892H584.594V278.249H571.053V342.453H569.805V331.022H569.927C570.133 331.022 570.298 330.86 570.298 330.652C570.298 330.444 570.133 330.282 569.927 330.282H568.497V315.012H568.602C568.782 315.012 568.924 314.87 568.924 314.691C568.924 314.511 568.782 314.369 568.602 314.369H566.858V305.923H566.944C567.089 305.923 567.206 305.807 567.206 305.664C567.206 305.522 567.089 305.403 566.944 305.403H552.563C552.417 305.403 552.3 305.519 552.3 305.664C552.3 305.809 552.417 305.923 552.563 305.923H552.645V314.369H550.904C550.725 314.369 550.582 314.511 550.582 314.691C550.582 314.87 550.725 315.012 550.904 315.012H551.007V330.282H550.129V320.493H544.829C544.772 320.314 544.615 320.186 544.419 320.186H543.481V314.696H544.239L543.048 307.412H530.978L529.786 314.696H530.544V320.186H529.607C529.413 320.186 529.254 320.314 529.199 320.493H526.162V299.171H526.39C526.78 299.171 527.097 298.855 527.097 298.465C527.097 298.075 526.78 297.759 526.39 297.759H524.871V284.715H526.099L524.162 280.065H519.149V274.089H519.816C520.189 274.089 520.491 273.79 520.491 273.415C520.491 273.039 520.189 272.737 519.816 272.737H517.451V268.367H517.878C518.121 268.367 518.317 268.17 518.317 267.928C518.317 267.686 518.121 267.49 517.878 267.49H514.664V255.649H514.06V267.49H510.849C510.606 267.49 510.41 267.686 510.41 267.928C510.41 268.17 510.606 268.367 510.849 268.367H511.276V272.737H508.911C508.535 272.737 508.233 273.042 508.233 273.415C508.233 273.788 508.535 274.089 508.911 274.089H509.578V280.065H504.566L502.631 284.715H503.859V297.759H502.34C501.953 297.759 501.633 298.078 501.633 298.465C501.633 298.852 501.95 299.171 502.34 299.171H502.571V324.904H499.73V301.86H499.821C499.975 301.86 500.098 301.732 500.098 301.581C500.098 301.43 499.975 301.305 499.821 301.305H484.588C484.434 301.305 484.308 301.433 484.308 301.581C484.308 301.729 484.434 301.86 484.588 301.86H484.679V316.21L479.137 319.36V308.325H478.336V319.819L469.648 324.759V327.601H466.146V320.425H465.61V327.601H462.199V316.734L457.278 316.657V312.998C457.953 312.397 458.381 311.521 458.381 310.545C458.381 308.729 456.905 307.252 455.084 307.252C453.263 307.252 451.787 308.729 451.787 310.545C451.787 311.521 452.212 312.391 452.887 312.998V316.583L447.148 316.489V327.601H442.882V319.019H443.031C443.284 319.019 443.492 318.811 443.492 318.558C443.492 318.305 443.284 318.1 443.031 318.1H441.529V298.9H441.589C441.842 298.9 442.05 298.693 442.05 298.439C442.05 298.186 441.842 297.978 441.589 297.978H440.136V289.8H441.885L436.528 280.532H430.245L424.885 289.8H426.635V297.978H425.181C424.925 297.978 424.72 298.183 424.72 298.439C424.72 298.695 424.925 298.9 425.181 298.9H425.241V318.1H423.74C423.7 318.1 423.66 318.111 423.623 318.12V303.786H423.68C423.913 303.786 424.101 303.598 424.101 303.362C424.101 303.126 423.913 302.941 423.68 302.941H408.671C408.438 302.941 408.25 303.129 408.25 303.362C408.25 303.596 408.438 303.786 408.671 303.786H408.728V321.347H407.352C407.118 321.347 406.93 321.534 406.93 321.771C406.93 322.007 407.118 322.192 407.352 322.192H407.492V333.913H403.844V295.665H404.021C404.32 295.665 404.562 295.426 404.562 295.127C404.562 294.828 404.32 294.583 404.021 294.583H402.858V287.774H403.799L402.317 278.725H387.331L385.85 287.774H386.79V294.583H385.63C385.331 294.583 385.089 294.825 385.089 295.127C385.089 295.429 385.331 295.665 385.63 295.665H385.807V313.402H378.316C378.196 313.402 378.099 313.498 378.099 313.618C378.099 313.737 378.196 313.834 378.316 313.834L378.327 313.831ZM851.66 313.205C852.207 313.601 852.877 313.84 853.598 313.84C854.319 313.84 854.994 313.601 855.535 313.205V316.651L851.657 316.586V313.208L851.66 313.205ZM822.139 318.99C822.179 319.002 822.216 319.016 822.259 319.016H822.41V321.344H822.139V318.99ZM670.005 313.205C670.549 313.601 671.216 313.84 671.942 313.84C672.669 313.84 673.336 313.601 673.88 313.205V316.651L670.002 316.586V313.208L670.005 313.205ZM640.481 318.99C640.521 319.002 640.558 319.016 640.601 319.016H640.752V321.344H640.481V318.99ZM453.161 313.205C453.705 313.601 454.375 313.84 455.098 313.84C455.822 313.84 456.492 313.601 457.036 313.205V316.651L453.158 316.586V313.208L453.161 313.205ZM423.64 318.99C423.677 319.002 423.717 319.016 423.757 319.016H423.905V321.344H423.637V318.99H423.64Z" fill="#F8F8F8" fill-opacity="0.9"/>
<path d="M666.525 277.64H647.628C647.439 277.64 647.283 277.794 647.283 277.982C647.283 278.169 647.437 278.326 647.628 278.326H647.741V296.131L629.094 354.313V357.839H620.118V339.194H620.338C620.708 339.194 621.01 338.893 621.01 338.523C621.01 338.153 620.711 337.851 620.338 337.851H618.152V309.921H618.241C618.611 309.921 618.91 309.622 618.91 309.25C618.91 308.877 618.611 308.578 618.241 308.578H594.37C594 308.578 593.698 308.88 593.698 309.25C593.698 309.619 593.997 309.921 594.37 309.921H594.459V332.72C594.399 332.703 594.336 332.681 594.271 332.681H591.88V302.147H591.977C592.381 302.147 592.709 301.817 592.709 301.413C592.709 301.009 592.381 300.681 591.977 300.681H589.666V287.668H592.45L583.927 272.928H573.937L565.414 287.668H568.198V300.681H565.89C565.482 300.681 565.154 301.009 565.154 301.413C565.154 301.817 565.485 302.147 565.89 302.147H565.984V332.681H563.596C563.191 332.681 562.861 333.011 562.861 333.412C562.861 333.813 563.191 334.146 563.596 334.146H563.835V347.794H557.048V330.122L533.106 330.512V347.794H521.261V343.278L520.175 342.657V329.741H516.938V323.683H516.417V329.741H509.347V323.683H508.823V329.741H505.144V334.109L497.356 329.681V273.366H497.499C497.741 273.366 497.94 273.17 497.94 272.928C497.94 272.686 497.741 272.484 497.499 272.484H473.272C473.027 272.484 472.831 272.683 472.831 272.928C472.831 273.173 473.03 273.366 473.272 273.366H473.418V362.454H472.138V344.268H472.264C472.474 344.268 472.645 344.094 472.645 343.887C472.645 343.679 472.474 343.5 472.264 343.5H464.445V340.304C465.516 339.345 466.194 337.956 466.194 336.408C466.194 333.514 463.846 331.172 460.951 331.172C458.056 331.172 455.708 333.514 455.708 336.408C455.708 337.959 456.386 339.345 457.46 340.304V343.5H451.194C450.984 343.5 450.81 343.673 450.81 343.887C450.81 344.1 450.984 344.268 451.194 344.268H451.32V362.454H449.892V345.793H450.083C450.408 345.793 450.673 345.526 450.673 345.201C450.673 344.877 450.408 344.612 450.083 344.612H448.163V320.08H448.242C448.567 320.08 448.832 319.818 448.832 319.491C448.832 319.164 448.567 318.902 448.242 318.902H446.384V280.252H448.621L442.005 268.807H442.498C442.823 268.807 443.088 268.546 443.088 268.221C443.088 267.897 442.823 267.629 442.498 267.629H441.916V261.924H442.498C442.823 261.924 443.088 261.662 443.088 261.338C443.088 261.013 442.823 260.746 442.498 260.746H440.44V258.862H435.072V260.746H433.017C432.69 260.746 432.428 261.01 432.428 261.338C432.428 261.665 432.69 261.924 433.017 261.924H433.596V267.629H433.017C432.69 267.629 432.428 267.894 432.428 268.221C432.428 268.548 432.69 268.807 433.017 268.807H433.51L426.897 280.252H429.131V318.902H427.276C426.951 318.902 426.686 319.164 426.686 319.491C426.686 319.818 426.951 320.08 427.276 320.08H427.353V344.612H425.435C425.11 344.612 424.845 344.874 424.845 345.201C424.845 345.529 425.11 345.793 425.435 345.793H425.626V352.062H423.987V327.772H424.156C424.438 327.772 424.668 327.541 424.668 327.26C424.668 326.978 424.44 326.745 424.156 326.745H396.011C395.726 326.745 395.498 326.975 395.498 327.26C395.498 327.544 395.726 327.772 396.011 327.772H396.176V352.062H391.871V327.772H392.036C392.321 327.772 392.549 327.541 392.549 327.26C392.549 326.978 392.321 326.745 392.036 326.745H389.266V313.319H389.397C389.631 313.319 389.813 313.134 389.813 312.903C389.813 312.673 389.628 312.488 389.397 312.488H386.38V303.402H386.482C386.653 303.402 386.793 303.262 386.793 303.092C386.793 302.921 386.653 302.784 386.482 302.784H384.456C384.243 299.378 381.424 296.68 377.962 296.68C374.5 296.68 371.679 299.378 371.468 302.784H369.442C369.268 302.784 369.132 302.921 369.132 303.092C369.132 303.262 369.268 303.402 369.442 303.402H369.545V312.488H366.527C366.296 312.488 366.111 312.673 366.111 312.903C366.111 313.134 366.299 313.319 366.527 313.319H366.661V326.745H363.889C363.607 326.745 363.376 326.975 363.376 327.26C363.376 327.544 363.607 327.772 363.889 327.772H364.054V352.062H361.78C361.452 352.062 361.19 352.324 361.19 352.648C361.19 352.973 361.455 353.24 361.78 353.24H361.971V371.415H359.988V359.634H356.842V339.214H353.434V320.362L340.95 329.249V339.214H337.542V359.634H334.396V371.415H332.447V399.636H666.417V278.32H666.531C666.719 278.32 666.876 278.167 666.876 277.976C666.876 277.785 666.722 277.634 666.531 277.634L666.525 277.64ZM464.029 343.508H457.862V340.643C458.729 341.271 459.791 341.65 460.945 341.65C462.099 341.65 463.162 341.274 464.029 340.643V343.508ZM594.459 337.854H594.031V334.149H594.271C594.339 334.149 594.399 334.129 594.459 334.109V337.851V337.854Z" fill="#F8F8F8" fill-opacity="0.5"/>
<path d="M997.281 277.641H978.383C978.195 277.641 978.041 277.794 978.041 277.982C978.041 278.17 978.198 278.326 978.383 278.326H978.497V296.131L959.853 354.313V357.839H950.874V339.195H951.093C951.464 339.195 951.766 338.893 951.766 338.523C951.766 338.153 951.467 337.851 951.093 337.851H948.911V309.921H948.996C949.367 309.921 949.669 309.623 949.669 309.25C949.669 308.877 949.369 308.578 948.996 308.578H925.129C924.758 308.578 924.456 308.88 924.456 309.25C924.456 309.62 924.758 309.921 925.129 309.921H925.214V332.721C925.154 332.704 925.095 332.681 925.026 332.681H922.638V302.147H922.732C923.14 302.147 923.467 301.817 923.467 301.413C923.467 301.009 923.137 300.682 922.732 300.682H920.424V287.669H923.208L914.683 272.928H904.692L896.169 287.669H898.953V300.682H896.642C896.235 300.682 895.91 301.009 895.91 301.413C895.91 301.817 896.238 302.147 896.642 302.147H896.739V332.681H894.351C893.944 332.681 893.619 333.011 893.619 333.412C893.619 333.813 893.947 334.146 894.351 334.146H894.591V347.794H887.803V330.123L863.862 330.512V347.794H852.013V343.278L850.931 342.658V329.741H847.694V323.683H847.172V329.741H840.105V323.683H839.581V329.741H835.897V334.109L828.112 329.682V273.366H828.254C828.499 273.366 828.696 273.17 828.696 272.928C828.696 272.686 828.499 272.484 828.254 272.484H804.028C803.783 272.484 803.586 272.683 803.586 272.928C803.586 273.173 803.786 273.366 804.028 273.366H804.17V362.455H802.891V344.268H803.019C803.227 344.268 803.401 344.095 803.401 343.887C803.401 343.679 803.227 343.5 803.019 343.5H795.197V340.304C796.269 339.345 796.947 337.957 796.947 336.409C796.947 333.515 794.599 331.173 791.704 331.173C788.809 331.173 786.461 333.515 786.461 336.409C786.461 337.96 787.139 339.345 788.21 340.304V343.5H781.947C781.733 343.5 781.562 343.674 781.562 343.887C781.562 344.1 781.733 344.268 781.947 344.268H782.073V362.455H780.642V345.794H780.833C781.161 345.794 781.423 345.526 781.423 345.202C781.423 344.877 781.161 344.613 780.833 344.613H778.912V320.08H778.989C779.314 320.08 779.579 319.819 779.579 319.491C779.579 319.164 779.314 318.902 778.989 318.902H777.134V235.741H779.371L772.755 224.299H773.248C773.575 224.299 773.84 224.034 773.84 223.707C773.84 223.38 773.575 223.118 773.248 223.118H772.672V217.41H773.248C773.575 217.41 773.84 217.148 773.84 216.821C773.84 216.493 773.575 216.229 773.248 216.229H771.193V164L765.828 200.655V216.229H763.77C763.445 216.229 763.18 216.493 763.18 216.821C763.18 217.148 763.445 217.41 763.77 217.41H764.349V223.118H763.77C763.445 223.118 763.18 223.38 763.18 223.707C763.18 224.034 763.445 224.299 763.77 224.299H764.263L757.649 235.741H759.883V318.902H758.028C757.704 318.902 757.439 319.164 757.439 319.491C757.439 319.819 757.704 320.08 758.028 320.08H758.108V344.613H756.188C755.86 344.613 755.598 344.874 755.598 345.202C755.598 345.529 755.86 345.794 756.188 345.794H756.376V352.062H754.737V327.772H754.905C755.19 327.772 755.418 327.542 755.418 327.26C755.418 326.978 755.19 326.745 754.905 326.745H726.761C726.476 326.745 726.248 326.975 726.248 327.26C726.248 327.544 726.476 327.772 726.761 327.772H726.926V352.062H722.621V327.772H722.786C723.071 327.772 723.299 327.542 723.299 327.26C723.299 326.978 723.071 326.745 722.786 326.745H720.016V313.319H720.15C720.381 313.319 720.566 313.134 720.566 312.904C720.566 312.673 720.381 312.488 720.15 312.488H717.13V303.402H717.232C717.403 303.402 717.543 303.263 717.543 303.092C717.543 302.921 717.403 302.785 717.232 302.785H715.206C714.992 299.378 712.174 296.681 708.712 296.681C705.25 296.681 702.429 299.378 702.215 302.785H700.192C700.018 302.785 699.882 302.921 699.882 303.092C699.882 303.263 700.018 303.402 700.192 303.402H700.295V312.488H697.274C697.046 312.488 696.858 312.673 696.858 312.904C696.858 313.134 697.046 313.319 697.274 313.319H697.411V326.745H694.638C694.354 326.745 694.126 326.975 694.126 327.26C694.126 327.544 694.354 327.772 694.638 327.772H694.807V352.062H692.533C692.208 352.062 691.943 352.324 691.943 352.649C691.943 352.973 692.208 353.241 692.533 353.241H692.724V371.416H690.74V359.635H687.595V339.214H684.184V320.362L671.703 329.249V339.214H668.295V359.635H665.149V371.416H663.2V399.636H997.17V278.321H997.281C997.469 278.321 997.623 278.167 997.623 277.976C997.623 277.786 997.469 277.635 997.281 277.635V277.641ZM794.787 343.509H788.621V340.643C789.487 341.272 790.55 341.65 791.704 341.65C792.858 341.65 793.921 341.275 794.787 340.643V343.509ZM925.214 337.854H924.787V334.149H925.026C925.095 334.149 925.154 334.129 925.214 334.109V337.851V337.854Z" fill="#F8F8F8" fill-opacity="0.5"/>
<path d="M493.529 227.37H475.703V283.921H493.529V227.37Z" fill="#F8F8F8" fill-opacity="0.5"/>
</g>
<g clip-path="url(#clip1_1280_20903)">
<path d="M30.5798 293.901C30.2543 293.067 29.8767 292.312 29.5772 291.452L0.618896 320.422C1.46526 320.734 2.23349 321.112 3.06683 321.425C12.3898 339.062 19.0042 363.148 20.2542 392.599C20.9182 408.048 21.6995 423.484 22.624 438.894C30.3063 417.388 38.3533 396.467 46.5953 375.849C47.2854 363.683 47.9495 351.504 48.4833 339.325C60.6707 338.791 72.8324 338.127 84.9934 337.436C105.592 329.217 126.503 321.167 148 313.482C132.596 312.57 117.167 311.775 101.723 311.111C72.2833 309.847 48.2067 303.23 30.5767 293.904L30.5798 293.901Z" fill="white"/>
</g>
<path d="M1252.43 43.0036C1252.75 43.8372 1253.13 44.5927 1253.43 45.4525L1282.39 16.4828C1281.54 16.1702 1280.77 15.7925 1279.94 15.4798C1270.62 -2.15737 1264 -26.2431 1262.74 -55.6945C1262.07 -71.1432 1261.29 -86.5789 1260.37 -101.989C1252.69 -80.4835 1244.64 -59.5627 1236.4 -38.9447C1235.71 -26.7786 1235.04 -14.5992 1234.51 -2.42046C1222.32 -1.88639 1210.16 -1.22206 1198 -0.531695C1177.41 7.68751 1156.5 15.7376 1135.01 23.423C1150.41 24.3348 1165.84 25.1294 1181.28 25.7937C1210.72 27.0572 1234.8 33.6744 1252.43 43.0011L1252.43 43.0036Z" fill="white"/>
</g>
<defs>
<clipPath id="clip0_1280_20903">
<rect width="1280" height="337" rx="32" fill="white"/>
</clipPath>
<clipPath id="clip1_1280_20903">
<rect width="1280" height="337.91" fill="white"/>
</clipPath>
</defs>
</svg>
