<svg width="33" height="27" viewBox="0 0 33 27" fill="none" xmlns="http://www.w3.org/2000/svg">
<path fill-rule="evenodd" clip-rule="evenodd" d="M7.31343 8.88031C6.05013 11.741 4.35697 13.6271 2.95768 15.3687C1.38736 17.3179 0.167857 19.1137 0.00559183 21.636C-0.0558184 22.6467 0.391597 24.1628 1.20309 25.3043C1.79088 26.1346 2.56285 26.7527 3.40505 26.9378C4.72978 27.2356 6.47561 26.5407 7.98888 23.1882C8.37489 22.3309 8.63807 20.7743 8.7916 18.983C9.12059 15.08 8.98022 9.99498 8.99338 9.26392C8.99777 8.83528 8.71265 8.46528 8.30909 8.37052C7.90554 8.28028 7.48882 8.48783 7.31775 8.88039L7.31343 8.88031ZM7.04147 18.8295C7.21254 16.8351 7.25202 14.5204 7.25641 12.6569C6.2826 14.1459 5.23864 15.3689 4.3087 16.5195C2.98409 18.1573 1.89179 19.6328 1.75582 21.7534C1.71195 22.4392 2.06725 23.4635 2.61995 24.2395C2.93572 24.6907 3.32173 25.0743 3.77792 25.178C4.09375 25.2457 4.43151 25.142 4.78681 24.8487C5.32198 24.4064 5.85274 23.6304 6.39227 22.4301C6.72564 21.6992 6.90987 20.359 7.04147 18.8295Z" fill="#CC280C"/>
<path fill-rule="evenodd" clip-rule="evenodd" d="M20.4993 3.65075C22.2714 5.09461 25.0437 6.81374 29.2854 5.81655C29.4872 5.77142 31.2549 5.32923 32.1848 4.5486C32.6586 4.15154 32.9437 3.66874 32.9919 3.1499C33.0402 2.64454 32.8823 2.03992 32.2506 1.41275C31.2285 0.402048 29.8205 0.0185542 28.0527 0.0004188C26.8851 -0.00883967 25.5421 0.138589 24.0473 0.30267C22.6277 0.4585 21.0713 0.629349 19.3983 0.69528C19.0123 0.708816 18.6833 0.979534 18.5824 1.36306C18.4815 1.74207 18.6351 2.14821 18.9597 2.36028C19.1813 2.50345 19.4454 2.737 19.7599 3.01513C19.9806 3.21031 20.2262 3.42746 20.4993 3.65075ZM31.0313 2.71674C30.3119 2.00383 29.2855 1.82334 28.0353 1.8098C26.8823 1.79782 25.5574 1.94487 24.0835 2.10846C23.3369 2.19132 22.552 2.27843 21.732 2.35125L21.7277 2.35122C23.2059 3.5244 25.4736 4.85998 28.8907 4.05683C29.0003 4.03427 29.6584 3.88085 30.3032 3.59659C30.5576 3.48379 30.8164 3.35294 31.0182 3.19501C31.0971 3.13636 31.1936 3.02356 31.2287 2.97844C31.2236 2.9709 31.2171 2.96097 31.2095 2.94926C31.1714 2.89087 31.1044 2.78815 31.0313 2.71674Z" fill="#CC280C"/>
<path fill-rule="evenodd" clip-rule="evenodd" d="M12.3446 5.91135C14.8537 16.4109 18.9244 19.799 21.3456 20.5175C22.8283 20.9552 23.8854 20.4543 24.2583 19.9129C25.7409 17.7651 24.9514 15.6173 22.9644 13.4742C21.9114 12.3367 20.5062 11.1893 19.0654 10.0128C17.1569 8.45437 15.186 6.84499 13.8888 5.14039C13.6344 4.8065 13.187 4.69821 12.8141 4.88771C12.4456 5.07722 12.2482 5.50136 12.3491 5.91647L12.3446 5.91135ZM22.8548 18.8249C23.7803 17.4307 22.9819 16.1086 21.6923 14.7189C20.6272 13.5713 19.2129 12.4103 17.7614 11.2188C16.8227 10.4482 15.8684 9.66489 14.9831 8.86417L14.981 8.85777L14.981 8.86227L14.9831 8.86417C16.8206 14.6397 19.1138 17.3454 20.9466 18.3963C21.5432 18.7347 22.0652 18.8881 22.4775 18.8881C22.6179 18.8881 22.8065 18.8385 22.8548 18.8249Z" fill="black"/>
</svg>
