<svg width="390" height="545" viewBox="0 0 390 545" fill="none" xmlns="http://www.w3.org/2000/svg">
<g clip-path="url(#clip0_1280_21189)">
<rect width="390" height="545" rx="32" fill="#250045"/>
<path d="M16.3618 512.827C16.1188 512.205 15.837 511.641 15.6135 511L-6 532.613C-5.3683 532.846 -4.79492 533.128 -4.17295 533.361C2.7854 546.52 7.72211 564.489 8.65506 586.461C9.1507 597.987 9.73378 609.503 10.4238 621C16.1576 604.955 22.1636 589.347 28.3151 573.965C28.8302 564.889 29.3258 555.802 29.7243 546.716C38.8205 546.318 47.8975 545.822 56.9741 545.307C72.3484 539.175 87.9557 533.169 104 527.435C92.5033 526.755 80.9871 526.162 69.4608 525.667C47.4878 524.724 29.5178 519.787 16.3594 512.829L16.3618 512.827Z" fill="white"/>
<path d="M364.638 32.173C364.881 32.7949 365.163 33.3586 365.387 34L387 12.387C386.368 12.1538 385.795 11.8719 385.173 11.6387C378.215 -1.51967 373.278 -19.489 372.335 -41.4615C371.839 -52.9871 371.256 -64.503 370.566 -76C364.832 -59.9555 358.826 -44.3474 352.675 -28.9651C352.16 -19.8885 351.664 -10.802 351.266 -1.71595C342.17 -1.3175 333.093 -0.821877 324.016 -0.306824C308.651 5.82517 293.044 11.831 277 17.5647C288.497 18.245 300.013 18.8378 311.539 19.3334C333.512 20.2761 351.482 25.2129 364.641 32.1711L364.638 32.173Z" fill="white"/>
<path d="M114.317 509.652H114.359V515.071H121.159V509.652H121.199C121.269 509.652 121.325 509.581 121.325 509.488C121.325 509.395 121.27 509.325 121.199 509.325H120.382C120.296 507.526 119.156 506.1 117.757 506.1C116.359 506.1 115.22 507.526 115.136 509.325H114.317C114.248 509.325 114.193 509.4 114.193 509.488C114.193 509.576 114.248 509.652 114.317 509.652Z" fill="#F8F8F8" fill-opacity="0.5"/>
<path d="M253.63 508.813H253.672V512.952H260.471V508.813H260.511C260.581 508.813 260.638 508.758 260.638 508.688C260.638 508.619 260.583 508.562 260.511 508.562H259.693C259.609 507.187 258.468 506.098 257.072 506.098C255.675 506.098 254.534 507.187 254.448 508.562H253.63C253.56 508.562 253.505 508.619 253.505 508.688C253.505 508.758 253.562 508.813 253.63 508.813Z" fill="#F8F8F8" fill-opacity="0.5"/>
<path d="M370.338 509.652H370.378V515.071H377.179V509.652H377.218C377.287 509.652 377.344 509.581 377.344 509.488C377.344 509.395 377.289 509.325 377.218 509.325H376.4C376.315 507.526 375.175 506.1 373.778 506.1C372.381 506.1 371.241 507.526 371.155 509.325H370.336C370.267 509.325 370.21 509.4 370.21 509.488C370.21 509.576 370.267 509.652 370.336 509.652H370.338Z" fill="#F8F8F8" fill-opacity="0.5"/>
<path d="M1.18796 518.38H1.23373V565.838H389.737V495.52H381.04V536.768H380.238V529.424H380.317C380.448 529.424 380.555 529.32 380.555 529.186C380.555 529.053 380.448 528.949 380.317 528.949H379.398V519.138H379.463C379.579 519.138 379.672 519.047 379.672 518.932C379.672 518.817 379.579 518.725 379.463 518.725H378.345V513.299H378.398C378.493 513.299 378.566 513.224 378.566 513.133C378.566 513.041 378.493 512.965 378.398 512.965H369.16C369.069 512.965 368.992 513.04 368.992 513.133C368.992 513.226 369.069 513.299 369.16 513.299H369.215V518.725H368.097C367.981 518.725 367.89 518.817 367.89 518.932C367.89 519.047 367.981 519.138 368.097 519.138H368.164V528.949H367.601V522.66H364.194C364.159 522.544 364.056 522.462 363.932 522.462H363.33V518.936H363.816L363.049 514.255H355.296L354.529 518.936H355.016V522.462H354.416C354.291 522.462 354.187 522.544 354.15 522.66H352.199V508.961H352.345C352.598 508.961 352.801 508.758 352.801 508.507C352.801 508.257 352.598 508.054 352.345 508.054H351.371V499.673H352.162L350.917 496.686H347.697V492.847H348.126C348.367 492.847 348.561 492.655 348.561 492.414C348.561 492.172 348.367 491.978 348.126 491.978H346.606V489.17H346.881C347.036 489.17 347.163 489.044 347.163 488.889C347.163 488.733 347.036 488.607 346.881 488.607H344.814V481H344.428V488.607H342.363C342.207 488.607 342.081 488.733 342.081 488.889C342.081 489.044 342.205 489.17 342.363 489.17H342.637V491.978H341.118C340.876 491.978 340.682 492.174 340.682 492.414C340.682 492.653 340.876 492.847 341.118 492.847H341.546V496.686H338.326L337.081 499.673H337.872V508.054H336.896C336.645 508.054 336.442 508.259 336.442 508.507C336.442 508.756 336.645 508.961 336.896 508.961H337.042V525.493H335.217V510.688H335.276C335.375 510.688 335.455 510.606 335.455 510.509C335.455 510.412 335.375 510.332 335.276 510.332H325.489C325.39 510.332 325.311 510.414 325.311 510.509C325.311 510.604 325.39 510.688 325.489 510.688H325.548V519.908L321.987 521.932V514.842H321.471V522.226L315.891 525.4V527.227H313.639V522.616H313.296V527.227H311.105V520.245L307.944 520.195V517.844C308.376 517.458 308.65 516.895 308.65 516.268C308.65 515.102 307.702 514.153 306.532 514.153C305.362 514.153 304.414 515.102 304.414 516.268C304.414 516.895 304.687 517.455 305.121 517.844V520.148L301.434 520.087V527.227H298.691V521.713H298.786C298.949 521.713 299.083 521.579 299.083 521.416C299.083 521.254 298.949 521.122 298.786 521.122H297.822V508.787H297.86C298.025 508.787 298.157 508.654 298.157 508.491C298.157 508.328 298.025 508.195 297.86 508.195H296.926V502.94H298.05L294.609 496.986H290.572L287.128 502.94H288.253V508.195H287.321C287.156 508.195 287.024 508.326 287.024 508.491C287.024 508.655 287.154 508.787 287.321 508.787H287.359V521.122H286.394C286.367 521.122 286.343 521.129 286.317 521.135V511.926H286.354C286.504 511.926 286.625 511.805 286.625 511.654C286.625 511.502 286.504 511.383 286.354 511.383H276.712C276.562 511.383 276.441 511.504 276.441 511.654C276.441 511.804 276.562 511.926 276.712 511.926H276.748V523.208H275.866C275.716 523.208 275.595 523.329 275.595 523.48C275.595 523.632 275.716 523.751 275.866 523.751H275.954V531.281H273.612V506.708H273.724C273.916 506.708 274.072 506.555 274.072 506.363C274.072 506.171 273.916 506.014 273.724 506.014H273.028V501.639H273.583L273.028 498.251V495.522H264.329V495.825H263.004L262.05 501.639H262.656V506.014H261.909C261.717 506.014 261.561 506.169 261.561 506.363C261.561 506.557 261.717 506.708 261.909 506.708H262.022V518.104H261.634V513.299H261.687C261.781 513.299 261.856 513.224 261.856 513.133C261.856 513.041 261.781 512.965 261.687 512.965H252.45C252.354 512.965 252.281 513.04 252.281 513.133C252.281 513.226 252.356 513.299 252.45 513.299H252.503V518.725H251.384C251.269 518.725 251.177 518.817 251.177 518.932C251.177 519.047 251.269 519.138 251.384 519.138H251.45V528.949H250.886V522.66H247.481C247.446 522.544 247.344 522.462 247.217 522.462H246.617V518.936H247.104L246.337 514.255H238.582L237.817 518.936H238.302V522.462H237.701C237.575 522.462 237.473 522.544 237.436 522.66H235.484V508.961H235.631C235.884 508.961 236.085 508.758 236.085 508.507C236.085 508.257 235.882 508.054 235.631 508.054H234.657V499.673H235.446L234.201 496.686H230.983V492.847H231.409C231.651 492.847 231.847 492.655 231.847 492.414C231.847 492.172 231.653 491.978 231.409 491.978H229.89V489.17H230.166C230.322 489.17 230.448 489.044 230.448 488.889C230.448 488.733 230.322 488.607 230.166 488.607H228.099V481H227.713V488.607H225.648C225.493 488.607 225.366 488.733 225.366 488.889C225.366 489.044 225.493 489.17 225.648 489.17H225.923V491.978H224.403C224.162 491.978 223.968 492.174 223.968 492.414C223.968 492.653 224.163 492.847 224.403 492.847H224.832V496.686H221.611L220.368 499.673H221.159V508.054H220.183C219.933 508.054 219.729 508.259 219.729 508.507C219.729 508.756 219.933 508.961 220.183 508.961H220.33V525.493H218.505V510.688H218.563C218.662 510.688 218.743 510.606 218.743 510.509C218.743 510.412 218.662 510.332 218.563 510.332H208.776C208.678 510.332 208.597 510.414 208.597 510.509C208.597 510.604 208.676 510.688 208.776 510.688H208.833V519.908L205.272 521.932V514.842H204.756V522.226L199.174 525.4V527.227H196.924V522.616H196.582V527.227H194.391V520.245L191.227 520.195V517.844C191.661 517.458 191.934 516.895 191.934 516.268C191.934 515.102 190.986 514.153 189.816 514.153C188.646 514.153 187.698 515.102 187.698 516.268C187.698 516.895 187.971 517.455 188.403 517.844V520.148L184.717 520.087V527.227H181.975V521.713H182.072C182.235 521.713 182.369 521.579 182.369 521.416C182.369 521.254 182.237 521.122 182.072 521.122H181.107V508.787H181.146C181.309 508.787 181.442 508.654 181.442 508.491C181.442 508.328 181.31 508.195 181.146 508.195H180.212V502.94H181.336L177.893 496.986H173.858L170.414 502.94H171.538V508.195H170.605C170.442 508.195 170.31 508.326 170.31 508.491C170.31 508.655 170.442 508.787 170.605 508.787H170.643V521.122H169.678C169.651 521.122 169.627 521.129 169.601 521.135V511.926H169.638C169.788 511.926 169.909 511.805 169.909 511.654C169.909 511.502 169.788 511.383 169.638 511.383H159.996C159.845 511.383 159.725 511.504 159.725 511.654C159.725 511.804 159.845 511.926 159.996 511.926H160.032V523.208H159.15C159 523.208 158.879 523.329 158.879 523.48C158.879 523.632 159 523.751 159.15 523.751H159.238V531.281H156.894V506.708H157.008C157.2 506.708 157.354 506.555 157.354 506.363C157.354 506.171 157.198 506.014 157.008 506.014H156.263V501.639H156.867L155.913 495.825H146.287L145.334 501.639H145.938V506.014H145.193C145 506.014 144.847 506.169 144.847 506.363C144.847 506.557 145.002 506.708 145.193 506.708H145.306V518.104H140.493C140.416 518.104 140.352 518.166 140.352 518.243C140.352 518.319 140.414 518.382 140.493 518.382H140.539V539.62H133.707V495.52H125.007V536.768H124.205V529.424H124.284C124.416 529.424 124.522 529.32 124.522 529.186C124.522 529.053 124.416 528.949 124.284 528.949H123.365V519.138H123.433C123.548 519.138 123.64 519.047 123.64 518.932C123.64 518.817 123.548 518.725 123.433 518.725H122.312V513.299H122.367C122.461 513.299 122.536 513.224 122.536 513.133C122.536 513.041 122.461 512.965 122.367 512.965H113.128C113.035 512.965 112.959 513.04 112.959 513.133C112.959 513.226 113.035 513.299 113.128 513.299H113.181V518.725H112.062C111.947 518.725 111.856 518.817 111.856 518.932C111.856 519.047 111.947 519.138 112.062 519.138H112.128V528.949H111.564V522.66H108.159C108.123 522.544 108.022 522.462 107.896 522.462H107.293V518.936H107.78L107.015 514.255H99.2603L98.4951 518.936H98.9821V522.462H98.3798C98.2553 522.462 98.1528 522.544 98.118 522.66H96.1665V508.961H96.3129C96.5637 508.961 96.7669 508.758 96.7669 508.507C96.7669 508.257 96.5637 508.054 96.3129 508.054H95.3371V499.673H96.1262L94.8813 496.686H91.6611V492.847H92.0895C92.3293 492.847 92.5234 492.655 92.5234 492.414C92.5234 492.172 92.3293 491.978 92.0895 491.978H90.57V489.17H90.8446C91.0002 489.17 91.1265 489.044 91.1265 488.889C91.1265 488.733 91.0002 488.607 90.8446 488.607H88.7796V481H88.3915V488.607H86.3283C86.1727 488.607 86.0463 488.733 86.0463 488.889C86.0463 489.044 86.1727 489.17 86.3283 489.17H86.6029V491.978H85.0834C84.8417 491.978 84.6477 492.174 84.6477 492.414C84.6477 492.653 84.8417 492.847 85.0834 492.847H85.5118V496.686H82.2916L81.0485 499.673H81.8376V508.054H80.8618C80.6128 508.054 80.4078 508.259 80.4078 508.507C80.4078 508.756 80.611 508.961 80.8618 508.961H81.0101V525.493H79.1849V510.688H79.2435C79.3423 510.688 79.421 510.606 79.421 510.509C79.421 510.412 79.3423 510.332 79.2435 510.332H69.4566C69.3577 510.332 69.2771 510.414 69.2771 510.509C69.2771 510.604 69.3577 510.688 69.4566 510.688H69.5151V519.908L65.9544 521.932V514.842H65.44V522.226L59.8582 525.4V527.227H57.6083V522.616H57.2641V527.227H55.0728V520.245L51.9111 520.195V517.844C52.345 517.458 52.6196 516.895 52.6196 516.268C52.6196 515.102 51.6713 514.153 50.5015 514.153C49.3317 514.153 48.3834 515.102 48.3834 516.268C48.3834 516.895 48.6562 517.455 49.09 517.844V520.148L45.403 520.087V527.227H42.6624V521.713H42.7576C42.9206 521.713 43.0542 521.579 43.0542 521.416C43.0542 521.254 42.9206 521.122 42.7576 521.122H41.7929V508.787H41.8313C41.9942 508.787 42.1279 508.654 42.1279 508.491C42.1279 508.328 41.9942 508.195 41.8313 508.195H40.8977V502.94H42.0217L38.58 496.986H34.5433L31.0998 502.94H32.2238V508.195H31.2901C31.1254 508.195 30.9936 508.326 30.9936 508.491C30.9936 508.655 31.1254 508.787 31.2901 508.787H31.3286V521.122H30.3638C30.3382 521.122 30.3125 521.129 30.2887 521.135V511.926H30.3254C30.4755 511.926 30.5963 511.805 30.5963 511.654C30.5963 511.502 30.4755 511.383 30.3254 511.383H20.6831C20.533 511.383 20.4121 511.504 20.4121 511.654C20.4121 511.804 20.533 511.926 20.6831 511.926H20.7197V523.208H19.8355C19.6853 523.208 19.5645 523.329 19.5645 523.48C19.5645 523.632 19.6853 523.751 19.8355 523.751H19.9252V531.281H17.5819V506.708H17.6954C17.8876 506.708 18.0432 506.555 18.0432 506.363C18.0432 506.171 17.8876 506.014 17.6954 506.014H16.9484V501.639H17.5526L16.6006 495.825H6.97297L6.021 501.639H6.62514V506.014H5.88004C5.68782 506.014 5.53221 506.169 5.53221 506.363C5.53221 506.557 5.68782 506.708 5.88004 506.708H5.99354V518.104H1.18063C1.10374 518.104 1.0415 518.166 1.0415 518.243C1.0415 518.319 1.10374 518.382 1.18063 518.382L1.18796 518.38ZM305.287 517.978C305.639 518.232 306.069 518.385 306.532 518.385C306.995 518.385 307.429 518.232 307.777 517.978V520.192L305.285 520.149V517.979L305.287 517.978ZM286.321 521.694C286.347 521.702 286.371 521.711 286.398 521.711H286.495V523.206H286.321V521.694ZM188.58 517.978C188.93 518.232 189.358 518.385 189.825 518.385C190.292 518.385 190.72 518.232 191.07 517.978V520.192L188.578 520.149V517.979L188.58 517.978ZM169.612 521.694C169.638 521.702 169.662 521.711 169.689 521.711H169.786V523.206H169.612V521.694ZM49.2658 517.978C49.6154 518.232 50.0457 518.385 50.5107 518.385C50.9756 518.385 51.4059 518.232 51.7555 517.978V520.192L49.2639 520.149V517.979L49.2658 517.978ZM30.2997 521.694C30.3235 521.702 30.3492 521.711 30.3748 521.711H30.47V523.206H30.2979V521.694H30.2997Z" fill="#F8F8F8" fill-opacity="0.5"/>
</g>
<defs>
<clipPath id="clip0_1280_21189">
<rect width="390" height="545" rx="32" fill="white"/>
</clipPath>
</defs>
</svg>
