<svg width="102" height="38" viewBox="0 0 102 38" fill="none" xmlns="http://www.w3.org/2000/svg">
<path d="M1.5 3.1011C2.09132 3.1011 2.68265 3.1011 15.1939 3.1011C27.7051 3.1011 70.1184 3.1011 82.6949 2.7632C95.2714 2.4253 95.2714 1.7495 95.1024 1.52807C94.374 0.573375 97.4658 26.3468 96.0093 27.6332C95.7359 27.8746 95.5818 28.1439 95.1568 28.3166C94.7319 28.4894 94.0561 28.5739 89.2308 28.6174C84.4055 28.6609 75.4511 28.6609 77.8075 28.6609C80.1638 28.6609 94.1022 28.6609 87.133 28.6609C80.1638 28.6609 51.8708 28.9296 37.2864 29.1256C2.70811 29.5902 2.70811 30.5194 2.5814 30.9136C2.45468 31.3078 2.20126 31.1389 2.15518 31.1785C1.91435 31.3859 2.5366 34.9862 2.66459 35.4969C2.70811 35.7541 2.70811 36.0076 35.4638 36.1381C48.2201 36.1889 73.7309 36.2687 100.015 36.2687" stroke="#CC280C" stroke-width="3" stroke-linecap="round"/>
</svg>
