<svg width="1440" height="474" viewBox="0 0 1440 474" fill="none" xmlns="http://www.w3.org/2000/svg">
<g opacity="0.5">
<path d="M761 152.185L887.121 58.0525L1762.99 0H761V152.185Z" fill="white"/>
<path d="M1267.32 142.979L887.125 177.287L1763 137.617L1344.3 112.96L1267.32 142.979Z" fill="white"/>
<path d="M1262.58 165.546L879.273 216.509L1749.6 135.736L1337.99 143.581L1262.58 165.546Z" fill="white"/>
<path d="M1763 191.568L1590.42 178.069L1537.4 205.526L1275.57 236.907L1763 207.587V191.568Z" fill="white"/>
<path d="M761 302.176L1083.35 288.673L1182.37 316.135L1671.43 347.515L761 318.195V302.176Z" fill="white"/>
<path d="M1643.95 373.802C1633.27 375.937 1633.43 374.786 1415.37 365.564L1553.22 392.629L1643.95 373.802Z" fill="white"/>
<path d="M1085.45 247.594C1079.56 248.057 856.867 244.37 856.867 244.37L994.723 254.96L1085.45 247.59V247.594Z" fill="white"/>
<path d="M1434.39 343.23H1434.3V354.313H1420.4V343.23H1420.31C1420.17 343.23 1420.06 343.084 1420.06 342.893C1420.06 342.702 1420.17 342.56 1420.31 342.56H1421.98C1422.16 338.881 1424.49 335.964 1427.35 335.964C1430.21 335.964 1432.54 338.881 1432.72 342.56H1434.39C1434.53 342.56 1434.64 342.714 1434.64 342.893C1434.64 343.073 1434.53 343.23 1434.39 343.23Z" fill="#848484" fill-opacity="0.4"/>
<path d="M1149.47 341.513H1149.39V349.979H1135.48V341.513H1135.4C1135.26 341.513 1135.14 341.401 1135.14 341.259C1135.14 341.117 1135.25 341.001 1135.4 341.001H1137.07C1137.24 338.189 1139.58 335.96 1142.43 335.96C1145.29 335.96 1147.62 338.189 1147.8 341.001H1149.47C1149.61 341.001 1149.73 341.117 1149.73 341.259C1149.73 341.401 1149.61 341.513 1149.47 341.513Z" fill="#848484" fill-opacity="0.4"/>
<path d="M910.784 343.23H910.702V354.313H896.793V343.23H896.714C896.572 343.23 896.456 343.084 896.456 342.893C896.456 342.702 896.568 342.56 896.714 342.56H898.388C898.56 338.881 900.892 335.964 903.749 335.964C906.606 335.964 908.938 338.881 909.114 342.56H910.788C910.93 342.56 911.046 342.714 911.046 342.893C911.046 343.073 910.93 343.23 910.788 343.23H910.784Z" fill="#848484" fill-opacity="0.4"/>
<path d="M1665.75 361.081H1665.66V458.149H871.108V314.325H888.896V398.691H890.536V383.67H890.375C890.106 383.67 889.888 383.457 889.888 383.184C889.888 382.911 890.106 382.698 890.375 382.698H892.255V362.633H892.12C891.884 362.633 891.693 362.446 891.693 362.21C891.693 361.975 891.884 361.788 892.12 361.788H894.408V350.69H894.299C894.104 350.69 893.955 350.536 893.955 350.349C893.955 350.162 894.104 350.005 894.299 350.005H913.192C913.379 350.005 913.536 350.159 913.536 350.349C913.536 350.54 913.379 350.69 913.192 350.69H913.079V361.788H915.367C915.603 361.788 915.79 361.975 915.79 362.21C915.79 362.446 915.603 362.633 915.367 362.633H915.228V382.698H916.382V369.835H923.349C923.42 369.599 923.63 369.431 923.885 369.431H925.116V362.218H924.121L925.689 352.645H941.545L943.114 362.218H942.118V369.431H943.346C943.601 369.431 943.814 369.599 943.889 369.835H947.88V341.816H947.581C947.064 341.816 946.649 341.401 946.649 340.889C946.649 340.377 947.064 339.961 947.581 339.961H949.573V322.821H947.955L950.501 316.711H957.087V308.858H956.211C955.717 308.858 955.32 308.465 955.32 307.972C955.32 307.478 955.717 307.082 956.211 307.082H959.319V301.338H958.757C958.439 301.338 958.18 301.08 958.18 300.762C958.18 300.445 958.439 300.187 958.757 300.187H962.984V284.627H963.774V300.187H967.997C968.316 300.187 968.574 300.445 968.574 300.762C968.574 301.08 968.319 301.338 967.997 301.338H967.436V307.082H970.543C971.037 307.082 971.434 307.482 971.434 307.972C971.434 308.462 971.037 308.858 970.543 308.858H969.667V316.711H976.253L978.799 322.821H977.182V339.961H979.177C979.69 339.961 980.106 340.38 980.106 340.889C980.106 341.397 979.69 341.816 979.177 341.816H978.878V375.631H982.61V345.35H982.491C982.288 345.35 982.124 345.182 982.124 344.983C982.124 344.785 982.288 344.621 982.491 344.621H1002.51C1002.71 344.621 1002.87 344.789 1002.87 344.983C1002.87 345.178 1002.71 345.35 1002.51 345.35H1002.39V364.207L1009.67 368.346V353.845H1010.72V368.948L1022.14 375.44V379.175H1026.74V369.745H1027.44V379.175H1031.92V364.895L1038.39 364.794V359.985C1037.51 359.196 1036.94 358.045 1036.94 356.762C1036.94 354.376 1038.88 352.436 1041.28 352.436C1043.67 352.436 1045.61 354.376 1045.61 356.762C1045.61 358.045 1045.05 359.189 1044.16 359.985V364.697L1051.7 364.574V379.175H1057.31V367.898H1057.12C1056.78 367.898 1056.51 367.625 1056.51 367.292C1056.51 366.959 1056.78 366.69 1057.12 366.69H1059.09V341.461H1059.01C1058.67 341.461 1058.41 341.188 1058.41 340.855C1058.41 340.522 1058.67 340.249 1059.01 340.249H1060.92V329.503H1058.62L1065.66 317.324H1073.92L1080.96 329.503H1078.66V340.249H1080.57C1080.9 340.249 1081.17 340.519 1081.17 340.855C1081.17 341.192 1080.91 341.461 1080.57 341.461H1080.49V366.69H1082.46C1082.52 366.69 1082.57 366.705 1082.62 366.716V347.881H1082.54C1082.24 347.881 1081.99 347.635 1081.99 347.324C1081.99 347.014 1082.24 346.771 1082.54 346.771H1102.26C1102.57 346.771 1102.82 347.018 1102.82 347.324C1102.82 347.631 1102.57 347.881 1102.26 347.881H1102.19V370.956H1103.99C1104.3 370.956 1104.55 371.203 1104.55 371.514C1104.55 371.824 1104.3 372.067 1103.99 372.067H1103.81V387.469H1108.6V337.209H1108.37C1107.98 337.209 1107.66 336.895 1107.66 336.503C1107.66 336.11 1107.98 335.788 1108.37 335.788H1109.8V326.84H1108.66L1109.8 319.911V314.329H1127.59V314.949H1130.3L1132.25 326.84H1131.01V335.788H1132.54C1132.93 335.788 1133.25 336.106 1133.25 336.503C1133.25 336.899 1132.93 337.209 1132.54 337.209H1132.31V360.516H1133.1V350.69H1132.99C1132.8 350.69 1132.65 350.536 1132.65 350.349C1132.65 350.162 1132.8 350.005 1132.99 350.005H1151.88C1152.08 350.005 1152.23 350.159 1152.23 350.349C1152.23 350.54 1152.07 350.69 1151.88 350.69H1151.77V361.788H1154.06C1154.3 361.788 1154.49 361.975 1154.49 362.21C1154.49 362.446 1154.3 362.633 1154.06 362.633H1153.93V382.698H1155.08V369.835H1162.04C1162.12 369.599 1162.33 369.431 1162.58 369.431H1163.81V362.218H1162.82L1164.38 352.645H1180.24L1181.81 362.218H1180.82V369.431H1182.05C1182.3 369.431 1182.51 369.599 1182.59 369.835H1186.58V341.816H1186.28C1185.76 341.816 1185.35 341.401 1185.35 340.889C1185.35 340.377 1185.77 339.961 1186.28 339.961H1188.27V322.821H1186.66L1189.2 316.711H1195.79V308.858H1194.91C1194.42 308.858 1194.02 308.465 1194.02 307.972C1194.02 307.478 1194.42 307.082 1194.91 307.082H1198.02V301.338H1197.46C1197.14 301.338 1196.88 301.08 1196.88 300.762C1196.88 300.445 1197.14 300.187 1197.46 300.187H1201.68V284.627H1202.47V300.187H1206.7C1207.01 300.187 1207.27 300.445 1207.27 300.762C1207.27 301.08 1207.01 301.338 1206.7 301.338H1206.14V307.082H1209.24C1209.74 307.082 1210.13 307.482 1210.13 307.972C1210.13 308.462 1209.73 308.858 1209.24 308.858H1208.37V316.711H1214.95L1217.49 322.821H1215.88V339.961H1217.87C1218.39 339.961 1218.8 340.38 1218.8 340.889C1218.8 341.397 1218.39 341.816 1217.87 341.816H1217.57V375.631H1221.31V345.35H1221.19C1220.98 345.35 1220.82 345.182 1220.82 344.983C1220.82 344.785 1220.98 344.621 1221.19 344.621H1241.2C1241.4 344.621 1241.57 344.789 1241.57 344.983C1241.57 345.178 1241.41 345.35 1241.2 345.35H1241.09V364.207L1248.37 368.346V353.845H1249.42V368.948L1260.84 375.44V379.175H1265.44V369.745H1266.14V379.175H1270.62V364.895L1277.09 364.794V359.985C1276.21 359.196 1275.65 358.045 1275.65 356.762C1275.65 354.376 1277.59 352.436 1279.98 352.436C1282.37 352.436 1284.31 354.376 1284.31 356.762C1284.31 358.045 1283.75 359.189 1282.87 359.985V364.697L1290.41 364.574V379.175H1296.02V367.898H1295.82C1295.48 367.898 1295.21 367.625 1295.21 367.292C1295.21 366.959 1295.48 366.69 1295.82 366.69H1297.79V341.461H1297.71C1297.38 341.461 1297.1 341.188 1297.1 340.855C1297.1 340.522 1297.37 340.249 1297.71 340.249H1299.62V329.503H1297.32L1304.36 317.324H1312.62L1319.66 329.503H1317.36V340.249H1319.27C1319.6 340.249 1319.87 340.519 1319.87 340.855C1319.87 341.192 1319.6 341.461 1319.27 341.461H1319.19V366.69H1321.16C1321.22 366.69 1321.27 366.705 1321.32 366.716V347.881H1321.25C1320.94 347.881 1320.69 347.635 1320.69 347.324C1320.69 347.014 1320.94 346.771 1321.25 346.771H1340.97C1341.27 346.771 1341.52 347.018 1341.52 347.324C1341.52 347.631 1341.27 347.881 1340.97 347.881H1340.89V370.956H1342.7C1343 370.956 1343.25 371.203 1343.25 371.514C1343.25 371.824 1343 372.067 1342.7 372.067H1342.52V387.469H1347.31V337.209H1347.08C1346.68 337.209 1346.37 336.895 1346.37 336.503C1346.37 336.11 1346.69 335.788 1347.08 335.788H1348.6V326.84H1347.37L1349.32 314.949H1369L1370.95 326.84H1369.72V335.788H1371.24C1371.63 335.788 1371.95 336.106 1371.95 336.503C1371.95 336.899 1371.63 337.209 1371.24 337.209H1371.01V360.516H1380.85C1381.01 360.516 1381.14 360.644 1381.14 360.801C1381.14 360.958 1381.01 361.085 1380.85 361.085H1380.76V404.524H1394.73V314.325H1412.52V398.691H1414.16V383.67H1414C1413.73 383.67 1413.52 383.457 1413.52 383.184C1413.52 382.911 1413.73 382.698 1414 382.698H1415.88V362.633H1415.74C1415.51 362.633 1415.32 362.446 1415.32 362.21C1415.32 361.975 1415.51 361.788 1415.74 361.788H1418.03V350.69H1417.92C1417.73 350.69 1417.58 350.536 1417.58 350.349C1417.58 350.162 1417.73 350.005 1417.92 350.005H1436.82C1437.01 350.005 1437.16 350.159 1437.16 350.349C1437.16 350.54 1437.01 350.69 1436.82 350.69H1436.71V361.788H1439C1439.23 361.788 1439.42 361.975 1439.42 362.21C1439.42 362.446 1439.23 362.633 1439 362.633H1438.86V382.698H1440.02V369.835H1446.98C1447.05 369.599 1447.26 369.431 1447.52 369.431H1448.75V362.218H1447.75L1449.32 352.645H1465.18L1466.74 362.218H1465.75V369.431H1466.98C1467.24 369.431 1467.44 369.599 1467.52 369.835H1471.51V341.816H1471.21C1470.69 341.816 1470.28 341.401 1470.28 340.889C1470.28 340.377 1470.69 339.961 1471.21 339.961H1473.2V322.821H1471.59L1474.14 316.711H1480.72V308.858H1479.85C1479.35 308.858 1478.96 308.465 1478.96 307.972C1478.96 307.478 1479.35 307.082 1479.85 307.082H1482.95V301.338H1482.39C1482.07 301.338 1481.81 301.08 1481.81 300.762C1481.81 300.445 1482.07 300.187 1482.39 300.187H1486.61V284.627H1487.41V300.187H1491.63C1491.95 300.187 1492.2 300.445 1492.2 300.762C1492.2 301.08 1491.95 301.338 1491.63 301.338H1491.07V307.082H1494.17C1494.67 307.082 1495.06 307.482 1495.06 307.972C1495.06 308.462 1494.67 308.858 1494.17 308.858H1493.3V316.711H1499.88L1502.43 322.821H1500.81V339.961H1502.81C1503.32 339.961 1503.74 340.38 1503.74 340.889C1503.74 341.397 1503.32 341.816 1502.81 341.816H1502.5V375.631H1506.24V345.35H1506.12C1505.92 345.35 1505.75 345.182 1505.75 344.983C1505.75 344.785 1505.92 344.621 1506.12 344.621H1526.13C1526.34 344.621 1526.5 344.789 1526.5 344.983C1526.5 345.178 1526.34 345.35 1526.13 345.35H1526.01V364.207L1533.3 368.346V353.845H1534.35V368.948L1545.76 375.44V379.175H1550.36V369.745H1551.07V379.175H1555.55V364.895L1562.02 364.794V359.985C1561.13 359.196 1560.57 358.045 1560.57 356.762C1560.57 354.376 1562.51 352.436 1564.9 352.436C1567.29 352.436 1569.23 354.376 1569.23 356.762C1569.23 358.045 1568.67 359.189 1567.79 359.985V364.697L1575.33 364.574V379.175H1580.93V367.898H1580.74C1580.4 367.898 1580.13 367.625 1580.13 367.292C1580.13 366.959 1580.4 366.69 1580.74 366.69H1582.71V341.461H1582.63C1582.3 341.461 1582.02 341.188 1582.02 340.855C1582.02 340.522 1582.3 340.249 1582.63 340.249H1584.54V329.503H1582.24L1589.28 317.324H1597.54L1604.58 329.503H1602.28V340.249H1604.19C1604.53 340.249 1604.8 340.519 1604.8 340.855C1604.8 341.192 1604.53 341.461 1604.19 341.461H1604.11V366.69H1606.08C1606.14 366.69 1606.19 366.705 1606.24 366.716V347.881H1606.16C1605.86 347.881 1605.61 347.635 1605.61 347.324C1605.61 347.014 1605.86 346.771 1606.16 346.771H1625.88C1626.19 346.771 1626.44 347.018 1626.44 347.324C1626.44 347.631 1626.19 347.881 1625.88 347.881H1625.81V370.956H1627.62C1627.92 370.956 1628.17 371.203 1628.17 371.514C1628.17 371.824 1627.92 372.067 1627.62 372.067H1627.43V387.469H1632.23V337.209H1631.99C1631.6 337.209 1631.28 336.895 1631.28 336.503C1631.28 336.11 1631.6 335.788 1631.99 335.788H1633.52V326.84H1632.28L1634.23 314.949H1653.92L1655.87 326.84H1654.63V335.788H1656.16C1656.55 335.788 1656.87 336.106 1656.87 336.503C1656.87 336.899 1656.55 337.209 1656.16 337.209H1655.93V360.516H1665.77C1665.93 360.516 1666.05 360.644 1666.05 360.801C1666.05 360.958 1665.93 361.085 1665.77 361.085L1665.75 361.081ZM1043.82 360.258C1043.1 360.778 1042.22 361.092 1041.28 361.092C1040.33 361.092 1039.44 360.778 1038.73 360.258V364.787L1043.83 364.701V360.262L1043.82 360.258ZM1082.61 367.86C1082.56 367.875 1082.51 367.894 1082.45 367.894H1082.26V370.953H1082.61V367.86ZM1282.51 360.258C1281.79 360.778 1280.92 361.092 1279.96 361.092C1279.01 361.092 1278.13 360.778 1277.41 360.258V364.787L1282.51 364.701V360.262L1282.51 360.258ZM1321.3 367.86C1321.25 367.875 1321.2 367.894 1321.14 367.894H1320.94V370.953H1321.3V367.86ZM1567.43 360.258C1566.71 360.778 1565.83 361.092 1564.88 361.092C1563.93 361.092 1563.05 360.778 1562.33 360.258V364.787L1567.43 364.701V360.262L1567.43 360.258ZM1606.22 367.86C1606.17 367.875 1606.11 367.894 1606.06 367.894H1605.87V370.953H1606.22V367.86H1606.22Z" fill="#848484" fill-opacity="0.4"/>
<path d="M1287.08 313.525H1311.91C1312.15 313.525 1312.36 313.727 1312.36 313.973C1312.36 314.22 1312.16 314.426 1311.91 314.426H1311.76V337.823L1336.26 414.276V418.909H1348.05V394.409H1347.76C1347.28 394.409 1346.88 394.013 1346.88 393.527C1346.88 393.041 1347.27 392.644 1347.76 392.644H1350.64V355.943H1350.52C1350.03 355.943 1349.64 355.551 1349.64 355.061C1349.64 354.571 1350.03 354.178 1350.52 354.178H1381.88C1382.37 354.178 1382.77 354.575 1382.77 355.061C1382.77 355.547 1382.37 355.943 1381.88 355.943H1381.77V385.902C1381.85 385.88 1381.93 385.85 1382.02 385.85H1385.16V345.728H1385.03C1384.5 345.728 1384.07 345.294 1384.07 344.763C1384.07 344.232 1384.5 343.802 1385.03 343.802H1388.07V326.702H1384.41L1395.61 307.332H1408.73L1419.93 326.702H1416.27V343.802H1419.31C1419.84 343.802 1420.27 344.232 1420.27 344.763C1420.27 345.294 1419.84 345.728 1419.31 345.728H1419.18V385.85H1422.32C1422.85 385.85 1423.29 386.284 1423.29 386.811C1423.29 387.338 1422.85 387.776 1422.32 387.776H1422.01V405.709H1430.92V382.488L1462.38 383.001V405.709H1477.95V399.775L1479.37 398.96V381.987H1483.63V374.026H1484.31V381.987H1493.6V374.026H1494.29V381.987H1499.12V387.727L1509.35 381.909V307.908H1509.17C1508.85 307.908 1508.59 307.65 1508.59 307.332C1508.59 307.015 1508.85 306.749 1509.17 306.749H1541C1541.32 306.749 1541.58 307.011 1541.58 307.332C1541.58 307.654 1541.32 307.908 1541 307.908H1540.81V424.974H1542.49V401.076H1542.32C1542.05 401.076 1541.82 400.848 1541.82 400.575C1541.82 400.302 1542.05 400.067 1542.32 400.067H1552.6V395.868C1551.19 394.608 1550.3 392.783 1550.3 390.749C1550.3 386.946 1553.38 383.868 1557.19 383.868C1560.99 383.868 1564.08 386.946 1564.08 390.749C1564.08 392.786 1563.19 394.608 1561.78 395.868V400.067H1570.01C1570.29 400.067 1570.51 400.295 1570.51 400.575C1570.51 400.856 1570.29 401.076 1570.01 401.076H1569.84V424.974H1571.72V403.081H1571.47C1571.04 403.081 1570.69 402.729 1570.69 402.303C1570.69 401.877 1571.04 401.529 1571.47 401.529H1573.99V369.293H1573.89C1573.46 369.293 1573.11 368.949 1573.11 368.519C1573.11 368.088 1573.46 367.744 1573.89 367.744H1576.33V316.957H1573.39L1582.08 301.918H1581.44C1581.01 301.918 1580.66 301.574 1580.66 301.148C1580.66 300.721 1581.01 300.37 1581.44 300.37H1582.2V292.873H1581.44C1581.01 292.873 1580.66 292.529 1580.66 292.102C1580.66 291.676 1581.01 291.325 1581.44 291.325H1584.14V288.849H1591.19V291.325H1593.89C1594.32 291.325 1594.67 291.672 1594.67 292.102C1594.67 292.532 1594.32 292.873 1593.89 292.873H1593.13V300.37H1593.89C1594.32 300.37 1594.67 300.718 1594.67 301.148C1594.67 301.578 1594.32 301.918 1593.89 301.918H1593.24L1601.93 316.957H1599V367.744H1601.44C1601.86 367.744 1602.21 368.088 1602.21 368.519C1602.21 368.949 1601.86 369.293 1601.44 369.293H1601.34V401.529H1603.85C1604.28 401.529 1604.63 401.873 1604.63 402.303C1604.63 402.733 1604.28 403.081 1603.85 403.081H1603.6V411.318H1605.76V379.4H1605.54C1605.17 379.4 1604.86 379.097 1604.86 378.727C1604.86 378.357 1605.16 378.05 1605.54 378.05H1642.52C1642.89 378.05 1643.19 378.353 1643.19 378.727C1643.19 379.101 1642.89 379.4 1642.52 379.4H1642.3V411.318H1647.96V379.4H1647.74C1647.36 379.4 1647.07 379.097 1647.07 378.727C1647.07 378.357 1647.36 378.05 1647.74 378.05H1651.38V360.408H1651.21C1650.9 360.408 1650.66 360.165 1650.66 359.862C1650.66 359.559 1650.9 359.316 1651.21 359.316H1655.17V347.377H1655.04C1654.81 347.377 1654.63 347.193 1654.63 346.969C1654.63 346.745 1654.81 346.565 1655.04 346.565H1657.7C1657.98 342.089 1661.68 338.544 1666.23 338.544C1670.78 338.544 1674.49 342.089 1674.76 346.565H1677.43C1677.65 346.565 1677.83 346.745 1677.83 346.969C1677.83 347.193 1677.65 347.377 1677.43 347.377H1677.29V359.316H1681.26C1681.56 359.316 1681.8 359.559 1681.8 359.862C1681.8 360.165 1681.56 360.408 1681.26 360.408H1681.08V378.05H1684.72C1685.09 378.05 1685.4 378.353 1685.4 378.727C1685.4 379.101 1685.09 379.4 1684.72 379.4H1684.51V411.318H1687.49C1687.92 411.318 1688.27 411.662 1688.27 412.089C1688.27 412.515 1687.92 412.867 1687.49 412.867H1687.24V436.749H1689.85V421.269H1693.98V394.436H1698.46V369.663L1714.86 381.341V394.436H1719.34V421.269H1723.47V436.749H1726.04V473.832H1287.22V314.418H1287.07C1286.82 314.418 1286.62 314.216 1286.62 313.966C1286.62 313.715 1286.82 313.517 1287.07 313.517L1287.08 313.525ZM1553.15 400.078H1561.25V396.313C1560.11 397.139 1558.71 397.636 1557.2 397.636C1555.68 397.636 1554.28 397.143 1553.15 396.313V400.078ZM1381.77 392.648H1382.33V387.78H1382.02C1381.93 387.78 1381.85 387.753 1381.77 387.727V392.644V392.648Z" fill="#818181"/>
<path d="M852.484 313.525H877.315C877.562 313.525 877.764 313.727 877.764 313.973C877.764 314.22 877.558 314.426 877.315 314.426H877.165V337.823L901.663 414.276V418.909H913.46V394.409H913.172C912.685 394.409 912.288 394.013 912.288 393.527C912.288 393.041 912.682 392.644 913.172 392.644H916.04V355.943H915.928C915.441 355.943 915.044 355.551 915.044 355.061C915.044 354.571 915.437 354.178 915.928 354.178H947.288C947.775 354.178 948.172 354.575 948.172 355.061C948.172 355.547 947.775 355.943 947.288 355.943H947.176V385.902C947.254 385.88 947.333 385.85 947.423 385.85H950.56V345.727H950.437C949.901 345.727 949.471 345.294 949.471 344.763C949.471 344.232 949.905 343.802 950.437 343.802H953.469V326.702H949.811L961.014 307.332H974.14L985.339 326.702H981.681V343.802H984.717C985.253 343.802 985.68 344.232 985.68 344.763C985.68 345.294 985.249 345.727 984.717 345.727H984.59V385.85H987.728C988.263 385.85 988.69 386.284 988.69 386.811C988.69 387.338 988.259 387.776 987.728 387.776H987.413V405.709H996.331V382.488L1027.79 383.001V405.709H1043.36V399.775L1044.78 398.96V381.987H1049.03V374.026H1049.72V381.987H1059V374.026H1059.69V381.987H1064.53V387.727L1074.76 381.909V307.908H1074.58C1074.25 307.908 1073.99 307.65 1073.99 307.332C1073.99 307.015 1074.25 306.749 1074.58 306.749H1106.41C1106.73 306.749 1106.99 307.011 1106.99 307.332C1106.99 307.654 1106.73 307.908 1106.41 307.908H1106.22V424.974H1107.9V401.076H1107.73C1107.46 401.076 1107.23 400.848 1107.23 400.575C1107.23 400.302 1107.46 400.067 1107.73 400.067H1118.01V395.868C1116.6 394.608 1115.71 392.783 1115.71 390.749C1115.71 386.946 1118.8 383.868 1122.6 383.868C1126.4 383.868 1129.49 386.946 1129.49 390.749C1129.49 392.786 1128.6 394.608 1127.19 395.868V400.067H1135.42C1135.7 400.067 1135.93 400.295 1135.93 400.575C1135.93 400.856 1135.7 401.076 1135.42 401.076H1135.26V424.974H1137.13V403.081H1136.88C1136.45 403.081 1136.11 402.729 1136.11 402.303C1136.11 401.877 1136.45 401.529 1136.88 401.529H1139.41V369.292H1139.31C1138.88 369.292 1138.53 368.949 1138.53 368.518C1138.53 368.088 1138.88 367.744 1139.31 367.744H1141.74V258.467H1138.8L1147.5 243.432H1146.85C1146.42 243.432 1146.07 243.084 1146.07 242.654C1146.07 242.224 1146.42 241.88 1146.85 241.88H1147.61V234.379H1146.85C1146.42 234.379 1146.07 234.035 1146.07 233.605C1146.07 233.175 1146.42 232.827 1146.85 232.827H1149.55V164.196L1156.6 212.362V232.827H1159.3C1159.73 232.827 1160.08 233.175 1160.08 233.605C1160.08 234.035 1159.73 234.379 1159.3 234.379H1158.54V241.88H1159.3C1159.73 241.88 1160.08 242.224 1160.08 242.654C1160.08 243.084 1159.73 243.432 1159.3 243.432H1158.66L1167.35 258.467H1164.41V367.744H1166.85C1167.27 367.744 1167.62 368.088 1167.62 368.518C1167.62 368.949 1167.27 369.292 1166.85 369.292H1166.74V401.529H1169.27C1169.7 401.529 1170.04 401.873 1170.04 402.303C1170.04 402.733 1169.7 403.081 1169.27 403.081H1169.02V411.318H1171.17V379.4H1170.95C1170.58 379.4 1170.28 379.097 1170.28 378.727C1170.28 378.357 1170.58 378.05 1170.95 378.05H1207.93C1208.31 378.05 1208.61 378.353 1208.61 378.727C1208.61 379.101 1208.31 379.4 1207.93 379.4H1207.71V411.318H1213.37V379.4H1213.15C1212.78 379.4 1212.48 379.097 1212.48 378.727C1212.48 378.357 1212.78 378.05 1213.15 378.05H1216.79V360.408H1216.62C1216.31 360.408 1216.07 360.165 1216.07 359.862C1216.07 359.559 1216.31 359.316 1216.62 359.316H1220.59V347.376H1220.45C1220.23 347.376 1220.04 347.193 1220.04 346.969C1220.04 346.745 1220.23 346.565 1220.45 346.565H1223.11C1223.39 342.089 1227.1 338.544 1231.65 338.544C1236.2 338.544 1239.9 342.089 1240.18 346.565H1242.84C1243.07 346.565 1243.25 346.745 1243.25 346.969C1243.25 347.193 1243.07 347.376 1242.84 347.376H1242.71V359.316H1246.67C1246.97 359.316 1247.22 359.559 1247.22 359.862C1247.22 360.165 1246.97 360.408 1246.67 360.408H1246.5V378.05H1250.14C1250.51 378.05 1250.81 378.353 1250.81 378.727C1250.81 379.101 1250.51 379.4 1250.14 379.4H1249.92V411.318H1252.91C1253.33 411.318 1253.68 411.662 1253.68 412.089C1253.68 412.515 1253.33 412.866 1252.91 412.866H1252.65V436.749H1255.26V421.269H1259.39V394.435H1263.88V369.663L1280.27 381.34V394.435H1284.75V421.269H1288.89V436.749H1291.45V473.832H852.63V314.418H852.484C852.237 314.418 852.035 314.216 852.035 313.966C852.035 313.715 852.237 313.517 852.484 313.517V313.525ZM1118.55 400.078H1126.65V396.313C1125.51 397.139 1124.12 397.636 1122.6 397.636C1121.08 397.636 1119.69 397.143 1118.55 396.313V400.078ZM947.176 392.648H947.737V387.78H947.423C947.333 387.78 947.254 387.753 947.176 387.727V392.644V392.648Z" fill="#818181"/>
</g>
<g opacity="0.5">
<path d="M918 152.185L791.879 58.0525L-83.9923 0H918V152.185Z" fill="white"/>
<path d="M411.679 142.979L791.875 177.287L-84 137.617L334.699 112.96L411.679 142.979Z" fill="white"/>
<path d="M416.42 165.546L799.727 216.509L-70.5952 135.736L341.012 143.581L416.42 165.546Z" fill="white"/>
<path d="M-84 191.568L88.5779 178.069L141.598 205.526L403.43 236.907L-84 207.587V191.568Z" fill="white"/>
<path d="M918 302.176L595.651 288.673L496.628 316.135L7.5686 347.515L918 318.195V302.176Z" fill="white"/>
<path d="M35.0522 373.802C45.7349 375.937 45.5702 374.786 263.635 365.564L125.778 392.629L35.0522 373.802Z" fill="white"/>
<path d="M593.551 247.594C599.441 248.057 822.133 244.37 822.133 244.37L684.277 254.96L593.551 247.59V247.594Z" fill="white"/>
<path d="M-27.3965 60.5018C-21.5066 60.9655 201.186 57.2786 201.186 57.2786L63.3295 67.8682L-27.3965 60.5018Z" fill="white"/>
<path d="M271.635 343.23H271.721V354.313H285.628V343.23H285.71C285.853 343.23 285.969 343.084 285.969 342.893C285.969 342.702 285.856 342.56 285.71 342.56H284.04C283.864 338.881 281.532 335.964 278.671 335.964C275.81 335.964 273.481 338.881 273.309 342.56H271.635C271.493 342.56 271.381 342.714 271.381 342.893C271.381 343.073 271.493 343.23 271.635 343.23Z" fill="#212121" fill-opacity="0.4"/>
<path d="M556.574 341.513H556.66V349.979H570.567V341.513H570.649C570.792 341.513 570.908 341.401 570.908 341.259C570.908 341.117 570.795 341.001 570.649 341.001H568.976C568.803 338.189 566.471 335.96 563.614 335.96C560.757 335.96 558.424 338.189 558.248 341.001H556.574C556.432 341.001 556.32 341.117 556.32 341.259C556.32 341.401 556.436 341.513 556.574 341.513Z" fill="#212121" fill-opacity="0.4"/>
<path d="M795.281 343.23H795.363V354.313H809.274V343.23H809.352C809.495 343.23 809.611 343.084 809.611 342.893C809.611 342.702 809.499 342.56 809.352 342.56H807.679C807.506 338.881 805.174 335.964 802.317 335.964C799.46 335.964 797.127 338.881 796.951 342.56H795.277C795.135 342.56 795.019 342.714 795.019 342.893C795.019 343.073 795.135 343.23 795.277 343.23H795.281Z" fill="#212121" fill-opacity="0.4"/>
<path d="M40.2522 361.081H40.3458V458.149H834.96V314.325H817.171V398.691H815.531V383.67H815.692C815.961 383.67 816.178 383.457 816.178 383.184C816.178 382.911 815.961 382.698 815.692 382.698H813.812V362.633H813.947C814.183 362.633 814.374 362.446 814.374 362.21C814.374 361.975 814.183 361.788 813.947 361.788H811.659V350.69H811.768C811.962 350.69 812.112 350.536 812.112 350.349C812.112 350.162 811.962 350.005 811.768 350.005H792.874C792.686 350.005 792.529 350.159 792.529 350.349C792.529 350.54 792.686 350.69 792.874 350.69H792.986V361.788H790.698C790.462 361.788 790.275 361.975 790.275 362.21C790.275 362.446 790.462 362.633 790.698 362.633H790.837V382.698H789.683V369.835H782.715C782.644 369.599 782.434 369.431 782.18 369.431H780.948V362.218H781.944L780.375 352.645H764.517L762.948 362.218H763.945V369.431H762.716C762.462 369.431 762.248 369.599 762.174 369.835H758.182V341.816H758.482C758.998 341.816 759.414 341.401 759.414 340.889C759.414 340.377 758.998 339.961 758.482 339.961H756.49V322.821H758.107L755.561 316.711H748.975V308.858H749.851C750.345 308.858 750.742 308.465 750.742 307.972C750.742 307.478 750.345 307.082 749.851 307.082H746.743V301.338H747.305C747.623 301.338 747.881 301.08 747.881 300.762C747.881 300.445 747.623 300.187 747.305 300.187H743.077V284.627H742.287V300.187H738.063C737.745 300.187 737.487 300.445 737.487 300.762C737.487 301.08 737.741 301.338 738.063 301.338H738.625V307.082H735.517C735.023 307.082 734.626 307.482 734.626 307.972C734.626 308.462 735.023 308.858 735.517 308.858H736.393V316.711H729.807L727.261 322.821H728.879V339.961H726.883C726.37 339.961 725.954 340.38 725.954 340.889C725.954 341.397 726.37 341.816 726.883 341.816H727.182V375.631H723.449V345.35H723.569C723.771 345.35 723.936 345.182 723.936 344.983C723.936 344.785 723.771 344.621 723.569 344.621H703.552C703.349 344.621 703.188 344.789 703.188 344.983C703.188 345.178 703.349 345.35 703.552 345.35H703.672V364.207L696.389 368.346V353.845H695.333V368.948L683.92 375.44V379.175H679.314V369.745H678.614V379.175H674.132V364.895L667.666 364.794V359.985C668.549 359.196 669.111 358.045 669.111 356.762C669.111 354.376 667.171 352.436 664.779 352.436C662.386 352.436 660.447 354.376 660.447 356.762C660.447 358.045 661.004 359.189 661.892 359.985V364.697L654.351 364.574V379.175H648.742V367.898H648.936C649.27 367.898 649.543 367.625 649.543 367.292C649.543 366.959 649.27 366.69 648.936 366.69H646.963V341.461H647.042C647.379 341.461 647.648 341.188 647.648 340.855C647.648 340.522 647.379 340.249 647.042 340.249H645.132V329.503H647.431L640.392 317.324H632.135L625.092 329.503H627.391V340.249H625.485C625.148 340.249 624.879 340.519 624.879 340.855C624.879 341.192 625.145 341.461 625.485 341.461H625.564V366.69H623.591C623.535 366.69 623.486 366.705 623.433 366.716V347.881H623.508C623.815 347.881 624.062 347.635 624.062 347.324C624.062 347.014 623.815 346.771 623.508 346.771H603.787C603.48 346.771 603.233 347.018 603.233 347.324C603.233 347.631 603.48 347.881 603.787 347.881H603.862V370.956H602.057C601.75 370.956 601.503 371.203 601.503 371.514C601.503 371.824 601.75 372.067 602.057 372.067H602.237V387.469H597.448V337.209H597.676C598.069 337.209 598.387 336.895 598.387 336.503C598.387 336.11 598.069 335.788 597.676 335.788H596.253V326.84H597.388L596.253 319.911V314.329H578.46V314.949H575.749L573.798 326.84H575.038V335.788H573.51C573.117 335.788 572.798 336.106 572.798 336.503C572.798 336.899 573.117 337.209 573.51 337.209H573.742V360.516H572.948V350.69H573.057C573.248 350.69 573.401 350.536 573.401 350.349C573.401 350.162 573.248 350.005 573.057 350.005H554.163C553.968 350.005 553.818 350.159 553.818 350.349C553.818 350.54 553.972 350.69 554.163 350.69H554.271V361.788H551.983C551.748 361.788 551.56 361.975 551.56 362.21C551.56 362.446 551.748 362.633 551.983 362.633H552.118V382.698H550.965V369.835H544C543.929 369.599 543.72 369.431 543.461 369.431H542.233V362.218H543.229L541.66 352.645H525.799L524.234 362.218H525.226V369.431H523.998C523.74 369.431 523.53 369.599 523.455 369.835H519.464V341.816H519.763C520.28 341.816 520.692 341.401 520.692 340.889C520.692 340.377 520.276 339.961 519.763 339.961H517.771V322.821H519.385L516.839 316.711H510.256V308.858H511.129C511.623 308.858 512.024 308.465 512.024 307.972C512.024 307.478 511.627 307.082 511.129 307.082H508.021V301.338H508.586C508.905 301.338 509.163 301.08 509.163 300.762C509.163 300.445 508.905 300.187 508.586 300.187H504.359V284.627H503.569V300.187H499.345C499.027 300.187 498.769 300.445 498.769 300.762C498.769 301.08 499.027 301.338 499.345 301.338H499.907V307.082H496.799C496.305 307.082 495.908 307.482 495.908 307.972C495.908 308.462 496.308 308.858 496.799 308.858H497.675V316.711H491.089L488.546 322.821H490.164V339.961H488.168C487.655 339.961 487.24 340.38 487.24 340.889C487.24 341.397 487.655 341.816 488.168 341.816H488.468V375.631H484.735V345.35H484.854C485.057 345.35 485.221 345.182 485.221 344.983C485.221 344.785 485.057 344.621 484.854 344.621H464.837C464.635 344.621 464.47 344.789 464.47 344.983C464.47 345.178 464.631 345.35 464.837 345.35H464.953V364.207L457.67 368.346V353.845H456.614V368.948L445.198 375.44V379.175H440.596V369.745H439.896V379.175H435.414V364.895L428.944 364.794V359.985C429.831 359.196 430.389 358.045 430.389 356.762C430.389 354.376 428.449 352.436 426.057 352.436C423.664 352.436 421.724 354.376 421.724 356.762C421.724 358.045 422.282 359.189 423.166 359.985V364.697L415.629 364.574V379.175H410.02V367.898H410.218C410.551 367.898 410.825 367.625 410.825 367.292C410.825 366.959 410.555 366.69 410.218 366.69H408.245V341.461H408.323C408.657 341.461 408.93 341.188 408.93 340.855C408.93 340.522 408.66 340.249 408.323 340.249H406.414V329.503H408.713L401.67 317.324H393.417L386.374 329.503H388.673V340.249H386.763C386.43 340.249 386.16 340.519 386.16 340.855C386.16 341.192 386.43 341.461 386.763 341.461H386.842V366.69H384.869C384.812 366.69 384.764 366.705 384.711 366.716V347.881H384.786C385.093 347.881 385.34 347.635 385.34 347.324C385.34 347.014 385.093 346.771 384.786 346.771H365.065C364.758 346.771 364.511 347.018 364.511 347.324C364.511 347.631 364.758 347.881 365.065 347.881H365.14V370.956H363.335C363.028 370.956 362.781 371.203 362.781 371.514C362.781 371.824 363.028 372.067 363.335 372.067H363.515V387.469H358.722V337.209H358.954C359.347 337.209 359.662 336.895 359.662 336.503C359.662 336.11 359.343 335.788 358.954 335.788H357.43V326.84H358.666L356.715 314.949H337.027L335.076 326.84H336.312V335.788H334.788C334.395 335.788 334.08 336.106 334.08 336.503C334.08 336.899 334.398 337.209 334.788 337.209H335.02V360.516H325.176C325.019 360.516 324.888 360.644 324.888 360.801C324.888 360.958 325.015 361.085 325.176 361.085H325.27V404.524H311.296V314.325H293.502V398.691H291.862V383.67H292.023C292.293 383.67 292.51 383.457 292.51 383.184C292.51 382.911 292.293 382.698 292.023 382.698H290.144V362.633H290.282C290.518 362.633 290.705 362.446 290.705 362.21C290.705 361.975 290.518 361.788 290.282 361.788H287.991V350.69H288.103C288.294 350.69 288.448 350.536 288.448 350.349C288.448 350.162 288.294 350.005 288.103 350.005H269.205C269.014 350.005 268.861 350.159 268.861 350.349C268.861 350.54 269.014 350.69 269.205 350.69H269.314V361.788H267.026C266.79 361.788 266.603 361.975 266.603 362.21C266.603 362.446 266.79 362.633 267.026 362.633H267.161V382.698H266.008V369.835H259.043C258.968 369.599 258.762 369.431 258.504 369.431H257.272V362.218H258.268L256.703 352.645H240.842L239.276 362.218H240.272V369.431H239.041C238.786 369.431 238.576 369.599 238.505 369.835H234.514V341.816H234.813C235.326 341.816 235.742 341.401 235.742 340.889C235.742 340.377 235.326 339.961 234.813 339.961H232.817V322.821H234.431L231.885 316.711H225.299V308.858H226.175C226.665 308.858 227.062 308.465 227.062 307.972C227.062 307.478 226.665 307.082 226.175 307.082H223.067V301.338H223.629C223.947 301.338 224.205 301.08 224.205 300.762C224.205 300.445 223.947 300.187 223.629 300.187H219.405V284.627H218.611V300.187H214.391C214.073 300.187 213.815 300.445 213.815 300.762C213.815 301.08 214.073 301.338 214.391 301.338H214.953V307.082H211.845C211.351 307.082 210.954 307.482 210.954 307.972C210.954 308.462 211.351 308.858 211.845 308.858H212.721V316.711H206.135L203.593 322.821H205.206V339.961H203.211C202.702 339.961 202.282 340.38 202.282 340.889C202.282 341.397 202.698 341.816 203.211 341.816H203.514V375.631H199.781V345.35H199.901C200.103 345.35 200.264 345.182 200.264 344.983C200.264 344.785 200.103 344.621 199.901 344.621H179.883C179.681 344.621 179.516 344.789 179.516 344.983C179.516 345.178 179.681 345.35 179.883 345.35H180.003V364.207L172.72 368.346V353.845H171.668V368.948L160.252 375.44V379.175H155.65V369.745H154.946V379.175H150.464V364.895L143.997 364.794V359.985C144.885 359.196 145.446 358.045 145.446 356.762C145.446 354.376 143.507 352.436 141.114 352.436C138.722 352.436 136.782 354.376 136.782 356.762C136.782 358.045 137.34 359.189 138.227 359.985V364.697L130.686 364.574V379.175H125.081V367.898H125.275C125.609 367.898 125.882 367.625 125.882 367.292C125.882 366.959 125.609 366.69 125.275 366.69H123.302V341.461H123.381C123.714 341.461 123.987 341.188 123.987 340.855C123.987 340.522 123.714 340.249 123.381 340.249H121.471V329.503H123.77L116.731 317.324H108.475L101.431 329.503H103.73V340.249H101.821C101.484 340.249 101.214 340.519 101.214 340.855C101.214 341.192 101.484 341.461 101.821 341.461H101.899V366.69H99.9261C99.8737 366.69 99.8213 366.705 99.7726 366.716V347.881H99.8475C100.155 347.881 100.402 347.635 100.402 347.324C100.402 347.014 100.155 346.771 99.8475 346.771H80.1259C79.8189 346.771 79.5718 347.018 79.5718 347.324C79.5718 347.631 79.8189 347.881 80.1259 347.881H80.2008V370.956H78.3923C78.0853 370.956 77.8381 371.203 77.8381 371.514C77.8381 371.824 78.0853 372.067 78.3923 372.067H78.5758V387.469H73.783V337.209H74.0151C74.4083 337.209 74.7266 336.895 74.7266 336.503C74.7266 336.11 74.4083 335.788 74.0151 335.788H72.4874V326.84H73.7231L71.776 314.949H52.0844L50.1373 326.84H51.373V335.788H49.849C49.4558 335.788 49.1376 336.106 49.1376 336.503C49.1376 336.899 49.4558 337.209 49.849 337.209H50.0811V360.516H40.2372C40.0799 360.516 39.9526 360.644 39.9526 360.801C39.9526 360.958 40.0799 361.085 40.2372 361.085L40.2522 361.081ZM662.233 360.258C662.951 360.778 663.831 361.092 664.779 361.092C665.726 361.092 666.614 360.778 667.325 360.258V364.787L662.229 364.701V360.262L662.233 360.258ZM623.441 367.86C623.493 367.875 623.542 367.894 623.598 367.894H623.797V370.953H623.441V367.86ZM423.529 360.258C424.244 360.778 425.121 361.092 426.075 361.092C427.03 361.092 427.906 360.778 428.622 360.258V364.787L423.525 364.701V360.262L423.529 360.258ZM384.734 367.86C384.786 367.875 384.835 367.894 384.891 367.894H385.09V370.953H384.734V367.86ZM138.587 360.258C139.302 360.778 140.182 361.092 141.133 361.092C142.084 361.092 142.964 360.778 143.679 360.258V364.787L138.583 364.701V360.262L138.587 360.258ZM99.7951 367.86C99.8438 367.875 99.8962 367.894 99.9486 367.894H100.143V370.953H99.7914V367.86H99.7951Z" fill="#212121" fill-opacity="0.4"/>
<path d="M418.957 313.525H394.125C393.878 313.525 393.672 313.727 393.672 313.973C393.672 314.22 393.874 314.426 394.125 314.426H394.275V337.823L369.771 414.276V418.909H357.977V394.409H358.265C358.752 394.409 359.149 394.013 359.149 393.527C359.149 393.041 358.755 392.644 358.265 392.644H355.393V355.943H355.509C355.996 355.943 356.389 355.551 356.389 355.061C356.389 354.571 355.996 354.178 355.509 354.178H324.143C323.656 354.178 323.259 354.575 323.259 355.061C323.259 355.547 323.652 355.943 324.143 355.943H324.259V385.902C324.18 385.88 324.098 385.85 324.011 385.85H320.87V345.728H320.997C321.529 345.728 321.96 345.294 321.96 344.763C321.96 344.232 321.529 343.802 320.997 343.802H317.961V326.702H321.619L310.419 307.332H297.292L286.092 326.702H289.751V343.802H286.718C286.182 343.802 285.752 344.232 285.752 344.763C285.752 345.294 286.186 345.728 286.718 345.728H286.841V385.85H283.703C283.172 385.85 282.737 386.284 282.737 386.811C282.737 387.338 283.172 387.776 283.703 387.776H284.018V405.709H275.099V382.488L243.639 383.001V405.709H228.073V399.775L226.647 398.96V381.987H222.393V374.026H221.708V381.987H212.418V374.026H211.729V381.987H206.895V387.727L196.662 381.909V307.908H196.849C197.167 307.908 197.429 307.65 197.429 307.332C197.429 307.015 197.167 306.749 196.849 306.749H165.014C164.692 306.749 164.434 307.011 164.434 307.332C164.434 307.654 164.696 307.908 165.014 307.908H165.205V424.974H163.524V401.076H163.689C163.966 401.076 164.191 400.848 164.191 400.575C164.191 400.302 163.966 400.067 163.689 400.067H153.414V395.868C154.822 394.608 155.713 392.783 155.713 390.749C155.713 386.946 152.628 383.868 148.824 383.868C145.02 383.868 141.934 386.946 141.934 390.749C141.934 392.786 142.825 394.608 144.237 395.868V400.067H136.003C135.726 400.067 135.498 400.295 135.498 400.575C135.498 400.856 135.726 401.076 136.003 401.076H136.168V424.974H134.292V403.081H134.543C134.97 403.081 135.318 402.729 135.318 402.303C135.318 401.877 134.97 401.529 134.543 401.529H132.019V369.293H132.124C132.551 369.293 132.899 368.949 132.899 368.519C132.899 368.088 132.551 367.744 132.124 367.744H129.683V316.957H132.622L123.928 301.918H124.575C125.002 301.918 125.35 301.574 125.35 301.148C125.35 300.721 125.002 300.37 124.575 300.37H123.811V292.873H124.575C125.002 292.873 125.35 292.529 125.35 292.102C125.35 291.676 125.002 291.325 124.575 291.325H121.872V288.849H114.817V291.325H112.118C111.687 291.325 111.343 291.672 111.343 292.102C111.343 292.532 111.687 292.873 112.118 292.873H112.878V300.37H112.118C111.687 300.37 111.343 300.718 111.343 301.148C111.343 301.578 111.687 301.918 112.118 301.918H112.766L104.075 316.957H107.01V367.744H104.573C104.146 367.744 103.798 368.088 103.798 368.519C103.798 368.949 104.146 369.293 104.573 369.293H104.674V401.529H102.154C101.727 401.529 101.379 401.873 101.379 402.303C101.379 402.733 101.727 403.081 102.154 403.081H102.405V411.318H100.252V379.4H100.473C100.844 379.4 101.147 379.097 101.147 378.727C101.147 378.357 100.847 378.05 100.473 378.05H63.4897C63.1153 378.05 62.8157 378.353 62.8157 378.727C62.8157 379.101 63.1153 379.4 63.4897 379.4H63.7069V411.318H58.0491V379.4H58.2663C58.6407 379.4 58.9403 379.097 58.9403 378.727C58.9403 378.357 58.6407 378.05 58.2663 378.05H54.6268V360.408H54.799C55.1061 360.408 55.3457 360.165 55.3457 359.862C55.3457 359.559 55.1023 359.316 54.799 359.316H50.8337V347.377H50.9685C51.1932 347.377 51.3767 347.193 51.3767 346.969C51.3767 346.745 51.1932 346.565 50.9685 346.565H48.3063C48.0255 342.089 44.3223 338.544 39.7729 338.544C35.2235 338.544 31.5165 342.089 31.2395 346.565H28.5772C28.3488 346.565 28.1691 346.745 28.1691 346.969C28.1691 347.193 28.3488 347.377 28.5772 347.377H28.712V359.316H24.7467C24.4434 359.316 24.2001 359.559 24.2001 359.862C24.2001 360.165 24.4472 360.408 24.7467 360.408H24.9227V378.05H21.2795C20.9088 378.05 20.6055 378.353 20.6055 378.727C20.6055 379.101 20.9088 379.4 21.2795 379.4H21.4966V411.318H18.5086C18.078 411.318 17.7335 411.662 17.7335 412.089C17.7335 412.515 18.0818 412.867 18.5086 412.867H18.7595V436.749H16.1534V421.269H12.0196V394.436H7.54137V369.663L-8.8627 381.341V394.436H-13.341V421.269H-17.4747V436.749H-20.0359V473.832H418.815V314.418H418.965C419.212 314.418 419.418 314.216 419.418 313.966C419.418 313.715 419.216 313.517 418.965 313.517L418.957 313.525ZM152.868 400.078H144.765V396.313C145.903 397.139 147.3 397.636 148.816 397.636C150.333 397.636 151.729 397.143 152.868 396.313V400.078ZM324.259 392.648H323.697V387.78H324.011C324.101 387.78 324.18 387.753 324.259 387.727V392.644V392.648Z" fill="#818181"/>
<path d="M853.585 313.525H828.752C828.505 313.525 828.303 313.727 828.303 313.973C828.303 314.22 828.509 314.426 828.752 314.426H828.902V337.823L804.402 414.276V418.909H792.604V394.409H792.892C793.379 394.409 793.776 394.013 793.776 393.527C793.776 393.041 793.383 392.644 792.892 392.644H790.024V355.943H790.136C790.623 355.943 791.02 355.551 791.02 355.061C791.02 354.571 790.627 354.178 790.136 354.178H758.774C758.287 354.178 757.89 354.575 757.89 355.061C757.89 355.547 758.287 355.943 758.774 355.943H758.886V385.902C758.807 385.88 758.729 385.85 758.639 385.85H755.501V345.727H755.625C756.16 345.727 756.591 345.294 756.591 344.763C756.591 344.232 756.156 343.802 755.625 343.802H752.592V326.702H756.25L745.047 307.332H731.919L720.72 326.702H724.378V343.802H721.341C720.806 343.802 720.379 344.232 720.379 344.763C720.379 345.294 720.809 345.727 721.341 345.727H721.468V385.85H718.331C717.795 385.85 717.368 386.284 717.368 386.811C717.368 387.338 717.799 387.776 718.331 387.776H718.645V405.709H709.726V382.488L678.266 383.001V405.709H662.697V399.775L661.274 398.96V381.987H657.02V374.026H656.335V381.987H647.049V374.026H646.36V381.987H641.519V387.727L631.289 381.909V307.908H631.476C631.798 307.908 632.057 307.65 632.057 307.332C632.057 307.015 631.798 306.749 631.476 306.749H599.642C599.32 306.749 599.061 307.011 599.061 307.332C599.061 307.654 599.323 307.908 599.642 307.908H599.829V424.974H598.148V401.076H598.316C598.59 401.076 598.818 400.848 598.818 400.575C598.818 400.302 598.59 400.067 598.316 400.067H588.038V395.868C589.446 394.608 590.337 392.783 590.337 390.749C590.337 386.946 587.252 383.868 583.447 383.868C579.643 383.868 576.558 386.946 576.558 390.749C576.558 392.786 577.449 394.608 578.857 395.868V400.067H570.627C570.346 400.067 570.121 400.295 570.121 400.575C570.121 400.856 570.346 401.076 570.627 401.076H570.791V424.974H568.912V403.081H569.163C569.593 403.081 569.938 402.729 569.938 402.303C569.938 401.877 569.593 401.529 569.163 401.529H566.639V369.292H566.74C567.167 369.292 567.515 368.948 567.515 368.518C567.515 368.088 567.167 367.744 566.74 367.744H564.302V258.467H567.242L558.547 243.432H559.195C559.626 243.432 559.974 243.084 559.974 242.654C559.974 242.224 559.626 241.88 559.195 241.88H558.439V234.379H559.195C559.626 234.379 559.974 234.035 559.974 233.605C559.974 233.175 559.626 232.827 559.195 232.827H556.495V164.196L549.445 212.362V232.827H546.741C546.314 232.827 545.966 233.175 545.966 233.605C545.966 234.035 546.314 234.379 546.741 234.379H547.501V241.88H546.741C546.314 241.88 545.966 242.224 545.966 242.654C545.966 243.084 546.314 243.432 546.741 243.432H547.389L538.698 258.467H541.634V367.744H539.196C538.77 367.744 538.421 368.088 538.421 368.518C538.421 368.948 538.77 369.292 539.196 369.292H539.301V401.529H536.778C536.347 401.529 536.002 401.873 536.002 402.303C536.002 402.733 536.347 403.081 536.778 403.081H537.025V411.318H534.872V379.4H535.093C535.467 379.4 535.767 379.097 535.767 378.727C535.767 378.357 535.467 378.05 535.093 378.05H498.11C497.735 378.05 497.436 378.353 497.436 378.727C497.436 379.101 497.735 379.4 498.11 379.4H498.327V411.318H492.669V379.4H492.886C493.261 379.4 493.56 379.097 493.56 378.727C493.56 378.357 493.261 378.05 492.886 378.05H489.247V360.408H489.423C489.726 360.408 489.969 360.165 489.969 359.862C489.969 359.559 489.726 359.316 489.423 359.316H485.454V347.376H485.588C485.813 347.376 485.996 347.193 485.996 346.969C485.996 346.745 485.813 346.565 485.588 346.565H482.926C482.645 342.089 478.942 338.544 474.393 338.544C469.843 338.544 466.136 342.089 465.856 346.565H463.197C462.969 346.565 462.789 346.745 462.789 346.969C462.789 347.193 462.969 347.376 463.197 347.376H463.332V359.316H459.363C459.063 359.316 458.816 359.559 458.816 359.862C458.816 360.165 459.063 360.408 459.363 360.408H459.543V378.05H455.899C455.525 378.05 455.225 378.353 455.225 378.727C455.225 379.101 455.525 379.4 455.899 379.4H456.12V411.318H453.132C452.705 411.318 452.357 411.662 452.357 412.089C452.357 412.515 452.705 412.866 453.132 412.866H453.383V436.749H450.777V421.269H446.643V394.435H442.161V369.663L425.761 381.34V394.435H421.283V421.269H417.149V436.749H414.588V473.832H853.439V314.418H853.585C853.832 314.418 854.034 314.216 854.034 313.966C854.034 313.715 853.832 313.517 853.585 313.517V313.525ZM587.499 400.078H579.396V396.313C580.534 397.139 581.931 397.636 583.447 397.636C584.964 397.636 586.36 397.143 587.499 396.313V400.078ZM758.886 392.648H758.324V387.78H758.639C758.729 387.78 758.807 387.753 758.886 387.727V392.644V392.648Z" fill="#818181"/>
<path d="M191.633 247.466H168.208V321.777H191.633V247.466Z" fill="#818181"/>
</g>
</svg>
