<svg width="36" height="36" viewBox="0 0 36 36" fill="none" xmlns="http://www.w3.org/2000/svg">
<rect width="36" height="36" rx="10.2857" fill="#CC280C"/>
<path d="M21.4953 8.84985H11.1626L10.0381 13.0476H19.6937C21.8405 13.0476 22.0803 13.3323 22.493 14.172C22.5384 14.2646 22.5679 14.3657 22.5683 14.4688C22.5735 15.7719 21.2483 16.4056 19.6072 16.4978H13.3672C11.6667 16.7278 11.1191 16.9722 10.0381 18.3379C8.22243 20.8537 10.3267 23.5563 10.3699 23.6713C10.4132 23.7863 13.1801 27.1646 13.353 27.1503C13.4914 27.1388 14.9575 25.315 15.6732 24.4045C17.5034 22.3344 17.2729 21.4718 17.2729 20.4511C18.8293 21.7162 21.1206 25.2814 22.0718 26.9634H26.5969C26.5969 25.7558 23.2247 20.9687 22.0718 20.0199C23.7339 19.8186 27.0407 18.3954 26.9716 14.3127C26.9024 10.2299 23.2727 8.96965 21.4953 8.84985Z" fill="#F8F8F8"/>
<path fill-rule="evenodd" clip-rule="evenodd" d="M15.428 20.6524C15.428 22.4637 13.324 23.8726 13.324 23.8726C13.324 23.8726 11.2199 22.4637 11.2199 20.6524C11.2199 20.1186 11.4416 19.6067 11.8362 19.2293C12.2308 18.8518 12.766 18.6398 13.324 18.6398C13.882 18.6398 14.4172 18.8518 14.8117 19.2293C15.2063 19.6067 15.428 20.1186 15.428 20.6524ZM13.324 21.4574C13.7888 21.4574 14.1656 21.097 14.1656 20.6524C14.1656 20.2078 13.7888 19.8474 13.324 19.8474C12.8592 19.8474 12.4824 20.2078 12.4824 20.6524C12.4824 21.097 12.8592 21.4574 13.324 21.4574Z" fill="#CC280C"/>
</svg>

