<svg width="117" height="55" viewBox="0 0 117 55" fill="none" xmlns="http://www.w3.org/2000/svg">
<path d="M113.217 25.4163H109.6C108.803 25.4163 108.157 26.0702 108.157 26.8767V30.7726C108.157 31.5792 108.803 32.233 109.6 32.233H113.217C114.014 32.233 114.66 31.5792 114.66 30.7726V26.8767C114.66 26.0702 114.014 25.4163 113.217 25.4163Z" fill="#F9C0C0"/>
<path d="M113.217 32.3416H109.599C108.744 32.3416 108.049 31.6375 108.049 30.772V26.876C108.049 26.0105 108.744 25.3063 109.599 25.3063H113.217C114.072 25.3063 114.767 26.0105 114.767 26.876V30.772C114.767 31.6375 114.072 32.3416 113.217 32.3416ZM109.599 25.5249C108.863 25.5249 108.265 26.1311 108.265 26.876V30.772C108.265 31.517 108.863 32.123 109.599 32.123H113.217C113.953 32.123 114.551 31.517 114.551 30.772V26.876C114.551 26.1311 113.953 25.5249 113.217 25.5249H109.599Z" fill="#031B1C" stroke="#031B1C"/>
<path d="M3.60327 43.8248H112.62V28.3093C112.62 24.6661 110.099 21.5207 106.577 20.7692L82.0159 15.5286L73.3381 5.42224C71.1794 2.90799 68.0498 1.46429 64.7588 1.46429H32.1198C27.3897 1.46429 22.9315 3.7017 20.0683 7.51231L9.19593 21.9825C5.56778 26.8111 3.60327 32.7102 3.60327 38.7766V43.8248Z" fill="#CC280C"/>
<path d="M3.60327 43.8248H112.62V28.3093C112.62 24.6661 110.099 21.5207 106.577 20.7692L82.0159 15.5286L73.3381 5.42224C71.1794 2.90799 68.0498 1.46429 64.7588 1.46429H32.1198C27.3897 1.46429 22.9315 3.7017 20.0683 7.51231L9.19593 21.9825C5.56778 26.8111 3.60327 32.7102 3.60327 38.7766V43.8248Z" fill="#CC280C"/>
<path d="M92.5291 30.7473C85.3795 30.7473 79.5796 36.5884 79.5291 43.8128H104.768C105.026 43.8128 105.28 43.793 105.528 43.755C105.447 36.5575 99.6597 30.7473 92.5291 30.7473Z" fill="#FF0000"/>
<path d="M31.7922 40.0275H85.501V43.8226H31.7922V40.0275Z" fill="#FF0000"/>
<path d="M11.5552 23.5678C14.8802 16.2766 18.4964 11.3164 21.5129 5.85342C20.9961 6.3669 20.5129 6.92059 20.0682 7.51243L9.19593 21.9825C5.56778 26.8111 3.60327 32.7102 3.60327 38.7766V43.8248H8.49499C8.41216 38.9716 7.86207 31.6667 11.5552 23.5678Z" fill="#FF0000"/>
<path d="M112.62 43.9348H3.60359C3.54398 43.9348 3.49561 43.886 3.49561 43.8255V38.7774C3.49561 32.7235 5.48959 26.7358 9.1103 21.917L19.9827 7.44705C22.8484 3.63294 27.3858 1.35587 32.1201 1.35587H64.7591C68.0829 1.35587 71.2397 2.81213 73.42 5.35141L82.074 15.4302L106.599 20.663C110.151 21.4208 112.728 24.6368 112.728 28.3102V43.8256C112.728 43.8861 112.68 43.9349 112.62 43.9349V43.9348ZM3.71158 43.7162H112.512V28.3101C112.512 24.7395 110.007 21.6134 106.555 20.8768L81.9939 15.6364C81.9709 15.6315 81.9502 15.6191 81.9348 15.6012L73.257 5.4948C71.1178 3.0034 68.0205 1.57446 64.7592 1.57446H32.1201C27.4529 1.57446 22.9798 3.81929 20.1546 7.5793L9.28221 22.0494C5.68991 26.8302 3.71158 32.7711 3.71158 38.7774V43.7162Z" fill="#031B1C" stroke="#031B1C"/>
<path d="M20.7916 30.7473C13.6419 30.7473 7.84204 36.5884 7.7915 43.8128H33.7917C33.7412 36.5884 27.9413 30.7473 20.7916 30.7473Z" fill="#FF0000"/>
<path d="M33.7917 43.9231H7.79158C7.76275 43.9231 7.73521 43.9115 7.71502 43.8909C7.69472 43.8702 7.68349 43.8422 7.68359 43.8131C7.70822 40.2886 9.08246 36.9792 11.5532 34.4944C14.0254 32.0082 17.3062 30.639 20.7915 30.639C24.2768 30.639 27.5578 32.0082 30.0298 34.4944C32.5006 36.9791 33.8749 40.2886 33.8996 43.8131C33.8998 43.8422 33.8884 43.8701 33.8681 43.8909C33.8478 43.9114 33.8203 43.9231 33.7916 43.9231H33.7917ZM7.90076 43.7045H33.6825C33.5744 36.6104 27.8142 30.8576 20.7915 30.8576C13.7689 30.8576 8.00885 36.6104 7.90076 43.7045Z" fill="#031B1C" stroke="#031B1C"/>
<path d="M20.7919 53.9375C26.2646 53.9375 30.7011 49.4473 30.7011 43.9083C30.7011 38.3693 26.2646 33.8791 20.7919 33.8791C15.3193 33.8791 10.8828 38.3693 10.8828 43.9083C10.8828 49.4473 15.3193 53.9375 20.7919 53.9375Z" fill="#031B1C" stroke="#031B1C"/>
<path d="M20.7919 54.0467C15.2685 54.0467 10.7749 49.4987 10.7749 43.9082C10.7749 38.3177 15.2685 33.7696 20.7919 33.7696C26.3154 33.7696 30.809 38.3177 30.809 43.9082C30.809 49.4987 26.3154 54.0467 20.7919 54.0467ZM20.7919 33.9883C15.3876 33.9883 10.9909 38.4384 10.9909 43.9083C10.9909 49.3781 15.3876 53.8282 20.7919 53.8282C26.1962 53.8282 30.5931 49.3781 30.5931 43.9083C30.5931 38.4384 26.1964 33.9883 20.7919 33.9883Z" fill="#031B1C" stroke="#031B1C"/>
<path d="M20.791 47.3846C22.6883 47.3846 24.2263 45.8279 24.2263 43.9077C24.2263 41.9874 22.6883 40.4308 20.791 40.4308C18.8937 40.4308 17.3557 41.9874 17.3557 43.9077C17.3557 45.8279 18.8937 47.3846 20.791 47.3846Z" fill="#F9C0C0"/>
<path d="M20.7908 47.4939C18.8371 47.4939 17.2476 45.885 17.2476 43.9075C17.2476 41.93 18.837 40.3213 20.7908 40.3213C22.7447 40.3213 24.3341 41.93 24.3341 43.9075C24.3341 45.885 22.7447 47.4939 20.7908 47.4939ZM20.7908 40.54C18.9561 40.54 17.4635 42.0507 17.4635 43.9076C17.4635 45.7646 18.9561 47.2754 20.7908 47.2754C22.6255 47.2754 24.1181 45.7647 24.1181 43.9076C24.1181 42.0506 22.6255 40.54 20.7908 40.54Z" fill="#031B1C" stroke="#031B1C"/>
<path d="M31.2763 5.85291H43.2717C43.9365 5.85291 44.4756 6.39851 44.4756 7.07145V16.6639C44.4756 18.1422 43.2916 19.3405 41.8311 19.3405H21.7684C19.5904 19.3405 18.3861 16.7839 19.7573 15.0713L23.8526 9.95632C25.9309 7.36065 27.9755 5.85291 31.2763 5.85291Z" fill="#F9C0C0"/>
<path d="M31.2763 5.85291H43.2717C43.9365 5.85291 44.4756 6.39851 44.4756 7.07145V16.6639C44.4756 18.1422 43.2916 19.3405 41.8311 19.3405H21.7684C19.5904 19.3405 18.3861 16.7839 19.7573 15.0713L23.8526 9.95632C25.9309 7.36065 27.9755 5.85291 31.2763 5.85291Z" fill="#F9F0C0"/>
<path d="M41.8312 19.4497H21.7686C20.7189 19.4497 19.7863 18.8541 19.3345 17.8951C18.8828 16.9362 19.0127 15.8278 19.6736 15.0024L23.7688 9.8873C25.7603 7.39993 27.7991 5.74344 31.2764 5.74344H43.2717C43.9951 5.74344 44.5837 6.3391 44.5837 7.07128V16.6638C44.5837 18.1999 43.3488 19.4497 41.8312 19.4497ZM31.2764 5.96214C27.8845 5.96214 25.8891 7.58628 23.9365 10.0251L19.8413 15.1402C19.2334 15.8994 19.1139 16.919 19.5294 17.8011C19.945 18.6832 20.8029 19.2312 21.7684 19.2312H41.8312C43.2298 19.2312 44.3677 18.0796 44.3677 16.664V7.07139C44.3677 6.45966 43.876 5.96214 43.2717 5.96214H31.2764Z" fill="#031B1C" stroke="#031B1C"/>
<path d="M65.7302 5.85291H51.6104C50.9169 5.85291 50.3547 6.4219 50.3547 7.1238V16.707C50.3547 18.1615 51.5197 19.3406 52.9568 19.3406H76.7274C78.3014 19.3406 79.1717 17.4931 78.1808 16.2553L72.4474 9.09441C70.8058 7.04402 68.3376 5.85301 65.7302 5.85301V5.85291Z" fill="#F9C0C0"/>
<path d="M65.7302 5.85291H51.6104C50.9169 5.85291 50.3547 6.4219 50.3547 7.1238V16.707C50.3547 18.1615 51.5197 19.3406 52.9568 19.3406H76.7274C78.3014 19.3406 79.1717 17.4931 78.1808 16.2553L72.4474 9.09441C70.8058 7.04402 68.3376 5.85301 65.7302 5.85301V5.85291Z" fill="#F9F0C0"/>
<path d="M76.7275 19.4496H52.9569C51.4625 19.4496 50.2468 18.2192 50.2468 16.7067V7.12363C50.2468 6.3626 50.8586 5.74344 51.6105 5.74344H65.7303C68.3826 5.74344 70.8615 6.93958 72.5313 9.02528L78.2647 16.1863C78.7495 16.7919 78.8449 17.6052 78.5135 18.3089C78.1821 19.0125 77.4976 19.4497 76.7275 19.4497V19.4496ZM51.6105 5.96203C50.9777 5.96203 50.4628 6.48316 50.4628 7.12363V16.7068C50.4628 18.0987 51.5817 19.2311 52.9569 19.2311H76.7275C77.4136 19.2311 78.0233 18.8417 78.3185 18.2149C78.6138 17.5881 78.5289 16.8635 78.097 16.324L72.3636 9.16299C70.7349 7.12877 68.3172 5.96203 65.7303 5.96203H51.6105Z" fill="#031B1C" stroke="#031B1C"/>
<path d="M47.3985 43.8832C47.3389 43.8832 47.2905 43.8343 47.2905 43.7739V1.52269C47.2905 1.46225 47.3389 1.41339 47.3985 1.41339C47.4581 1.41339 47.5065 1.46225 47.5065 1.52269V43.7739C47.5065 43.8343 47.4581 43.8832 47.3985 43.8832Z" fill="#031B1C" stroke="#031B1C"/>
<path d="M83.8494 43.883C83.7898 43.883 83.7415 43.8341 83.7415 43.7737V15.9496C83.7415 15.8892 83.7898 15.8403 83.8494 15.8403C83.9091 15.8403 83.9574 15.8892 83.9574 15.9496V43.7736C83.9574 43.834 83.9091 43.8829 83.8494 43.8829V43.883Z" fill="#031B1C" stroke="#031B1C"/>
<path d="M95.2288 30.7473C88.0792 30.7473 82.2793 36.5884 82.2288 43.8128H107.468C107.726 43.8128 107.98 43.793 108.228 43.755C108.146 36.5575 102.359 30.7473 95.2288 30.7473Z" fill="#FF0000"/>
<path d="M107.468 43.9224H82.2283C82.1995 43.9224 82.172 43.9109 82.1518 43.8902C82.1315 43.8695 82.1203 43.8416 82.1204 43.8124C82.145 40.2879 83.5192 36.9785 85.99 34.4937C88.4621 32.0075 91.743 30.6384 95.2283 30.6384C98.7136 30.6384 101.977 32.0009 104.447 34.4748C106.915 36.9465 108.295 40.242 108.335 43.754C108.336 43.8086 108.296 43.8552 108.243 43.8633C107.988 43.9026 107.727 43.9224 107.467 43.9224H107.468ZM82.3376 43.7039H107.468C107.685 43.7039 107.903 43.6893 108.118 43.6606C107.987 36.5918 102.225 30.857 95.2285 30.857C88.2324 30.857 82.4457 36.6098 82.3376 43.7039Z" fill="#031B1C" stroke="#031B1C"/>
<path d="M95.2287 53.9363C100.701 53.9363 105.138 49.4461 105.138 43.9071C105.138 38.3681 100.701 33.8779 95.2287 33.8779C89.7561 33.8779 85.3196 38.3681 85.3196 43.9071C85.3196 49.4461 89.7561 53.9363 95.2287 53.9363Z" fill="#031B1C" stroke="#031B1C"/>
<path d="M95.2288 54.046C89.7053 54.046 85.2117 49.498 85.2117 43.9075C85.2117 38.317 89.7053 33.7689 95.2288 33.7689C100.752 33.7689 105.246 38.317 105.246 43.9075C105.246 49.498 100.752 54.046 95.2288 54.046ZM95.2288 33.9876C89.8245 33.9876 85.4276 38.4377 85.4276 43.9076C85.4276 49.3774 89.8243 53.8275 95.2288 53.8275C100.633 53.8275 105.03 49.3774 105.03 43.9076C105.03 38.4377 100.633 33.9876 95.2288 33.9876Z" fill="#031B1C" stroke="#031B1C"/>
<path d="M95.2287 47.3846C97.126 47.3846 98.664 45.8279 98.664 43.9077C98.664 41.9874 97.126 40.4308 95.2287 40.4308C93.3315 40.4308 91.7935 41.9874 91.7935 43.9077C91.7935 45.8279 93.3315 47.3846 95.2287 47.3846Z" fill="#F9C0C0"/>
<path d="M95.2286 47.4939C93.2748 47.4939 91.6853 45.885 91.6853 43.9075C91.6853 41.93 93.2748 40.3213 95.2286 40.3213C97.1824 40.3213 98.7719 41.93 98.7719 43.9075C98.7719 45.885 97.1824 47.4939 95.2286 47.4939ZM95.2286 40.54C93.3939 40.54 91.9013 42.0507 91.9013 43.9076C91.9013 45.7646 93.3939 47.2754 95.2286 47.2754C97.0633 47.2754 98.5559 45.7647 98.5559 43.9076C98.5559 42.0506 97.0633 40.54 95.2286 40.54Z" fill="#031B1C" stroke="#031B1C"/>
<path d="M51.4094 24.5634C51.4094 23.7193 52.0918 23.0285 52.9259 23.0285H56.9335C57.7675 23.0285 58.45 23.7192 58.45 24.5634H51.4094Z" fill="#CC280C"/>
<path d="M58.4505 24.6729H51.41C51.3504 24.6729 51.302 24.6241 51.302 24.5636C51.302 23.6571 52.0307 22.9196 52.9263 22.9196H56.934C57.8297 22.9196 58.5584 23.6571 58.5584 24.5636C58.5584 24.6241 58.51 24.6729 58.4504 24.6729H58.4505ZM51.5221 24.4543H58.3385C58.2832 23.7191 57.6744 23.1382 56.9341 23.1382H52.9265C52.1862 23.1382 51.5774 23.7191 51.5221 24.4543Z" fill="#031B1C" stroke="#031B1C"/>
<path d="M81.8783 16.2567H82.6521V19.6519H81.8783C81.2506 19.6519 80.741 19.1362 80.741 18.5008V17.4079C80.741 16.7725 81.2506 16.2567 81.8783 16.2567Z" fill="#031B1C" stroke="#031B1C"/>
<path d="M82.6524 19.7611H81.8786C81.1919 19.7611 80.6333 19.1957 80.6333 18.5007V17.4077C80.6333 16.7127 81.1919 16.1473 81.8786 16.1473H82.6524C82.7121 16.1473 82.7604 16.1962 82.7604 16.2566V19.6518C82.7604 19.7122 82.7121 19.7611 82.6524 19.7611ZM81.8786 16.3659C81.311 16.3659 80.8493 16.8333 80.8493 17.4077V18.5007C80.8493 19.0751 81.311 19.5425 81.8786 19.5425H82.5445V16.3659H81.8786Z" fill="#031B1C" stroke="#031B1C"/>
<path d="M81.8254 13.5732H82.7261C83.8014 13.5732 84.6745 14.4568 84.6745 15.5452V20.3635C84.6745 21.4519 83.8014 22.3356 82.7261 22.3356H81.8254V13.5732Z" fill="#CC280C"/>
<path d="M82.7264 22.4446H81.8258C81.7662 22.4446 81.7178 22.3957 81.7178 22.3353V13.573C81.7178 13.5126 81.7662 13.4637 81.8258 13.4637H82.7264C83.8602 13.4637 84.7827 14.3974 84.7827 15.545V20.3634C84.7827 21.511 83.8602 22.4446 82.7264 22.4446ZM81.9337 22.226H82.7264C83.7411 22.226 84.5667 21.3904 84.5667 20.3634V15.545C84.5667 14.518 83.7411 13.6823 82.7264 13.6823H81.9337V22.226Z" fill="#031B1C" stroke="#031B1C"/>
<path d="M111.412 38.5063H112.533C113.608 38.5063 114.481 39.3899 114.481 40.4783V41.8535C114.481 42.9419 113.608 43.8255 112.533 43.8255H111.412V38.5063Z" fill="#F9C0C0"/>
<path d="M112.533 43.9345H111.411C111.352 43.9345 111.303 43.8857 111.303 43.8252V38.5061C111.303 38.4457 111.352 38.3968 111.411 38.3968H112.533C113.667 38.3968 114.589 39.3304 114.589 40.478V41.8532C114.589 43.0008 113.667 43.9345 112.533 43.9345ZM111.519 43.7159H112.533C113.547 43.7159 114.373 42.8803 114.373 41.8532V40.478C114.373 39.451 113.547 38.6154 112.533 38.6154H111.519V43.7159Z" fill="#031B1C" stroke="#031B1C"/>
<path d="M2.78784 38.6921H6.04128V43.8267H2.78784V38.6921Z" fill="#F9C0C0"/>
<path d="M6.04112 43.9364H2.78767C2.72807 43.9364 2.67969 43.8875 2.67969 43.8271V38.6925C2.67969 38.632 2.72807 38.5832 2.78767 38.5832H6.04112C6.10073 38.5832 6.1491 38.632 6.1491 38.6925V43.8271C6.1491 43.8875 6.10073 43.9364 6.04112 43.9364ZM2.89566 43.7178H5.93313V38.8018H2.89566V43.7178Z" fill="#031B1C" stroke="#031B1C"/>
</svg>
