<svg width="52" height="52" viewBox="0 0 52 52" fill="none" xmlns="http://www.w3.org/2000/svg">
<path fill-rule="evenodd" clip-rule="evenodd" d="M48.8332 7.93206C48.8332 9.51645 48.3229 11.1542 47.3454 12.3019L47.3515 12.3011C49.9842 12.7023 52 14.8631 52 17.458V20.1774C52 21.8456 50.6443 23.2014 48.9763 23.2014H39.1916C37.9247 23.2014 36.8381 22.4168 36.3888 21.3098L39.1731 12.8097C39.6783 12.5634 40.2292 12.3907 40.8081 12.3019C39.8306 11.1516 39.3203 9.51645 39.3203 7.93206C39.3203 5.30922 41.453 3.17382 44.0755 3.17382C46.698 3.17382 48.8332 5.30915 48.8332 7.93206ZM29.7701 25.8243L29.7613 23.1741C29.7486 21.1073 28.0628 19.429 25.9937 19.429C23.922 19.429 22.2414 21.1073 22.2286 23.1767L22.2299 25.8275V32.3705L22.2229 32.3709C22.1768 32.3733 22.1286 32.3758 22.0827 32.3807C20.1912 32.533 17.5306 34.3078 17.5331 37.7788V38.6827C17.5408 45.3121 20.6736 52 27.6578 52H34.0327C39.7653 52 44.4316 47.3332 44.4316 41.5973V33.0049C44.4316 31.0346 42.8297 29.4324 40.8595 29.4324C40.3035 29.4324 39.7755 29.5593 39.3058 29.7878C38.6559 28.6554 37.4347 27.8886 36.0384 27.8886C35.2946 27.8886 34.6015 28.1044 34.0175 28.4777C33.3295 27.5738 32.2403 26.9897 31.0192 26.9897C30.58 26.9897 30.1611 27.0659 29.7701 27.203V25.8243ZM15.6087 21.3105L12.8158 12.8097C12.3105 12.5634 11.7622 12.3907 11.1833 12.3019C12.1608 11.1542 12.6711 9.51645 12.6711 7.93206C12.6711 5.30915 10.5359 3.17382 7.91338 3.17382C5.29077 3.17382 3.15568 5.30922 3.15568 7.93206C3.15568 9.51645 3.66598 11.1541 4.64344 12.3019C2.01323 12.703 0 14.8638 0 17.4587V20.1781C0 21.8463 1.35569 23.2021 3.02115 23.2021H12.8059C14.0727 23.2021 15.1593 22.4201 15.6087 21.3105ZM46.3198 7.93199C46.3198 6.69549 45.3144 5.68999 44.078 5.68999C42.8442 5.68999 41.8388 6.69549 41.8388 7.93199C41.8388 9.03909 42.3846 11.3242 44.078 11.3242C45.6242 11.3242 46.3198 9.34121 46.3198 7.93199ZM10.1543 7.93199C10.1543 6.69549 9.1489 5.68999 7.91254 5.68999C6.67617 5.68999 5.67079 6.69549 5.67079 7.93199C5.67079 9.03909 6.21914 11.3242 7.91254 11.3242C9.45866 11.3242 10.1543 9.34121 10.1543 7.93199ZM12.8048 20.6858C13.0815 20.6858 13.3126 20.4522 13.3126 20.178H13.3148V17.4586C13.3148 15.9656 11.9617 14.7494 10.2988 14.7494H5.53093C3.86801 14.7494 2.51486 15.9656 2.51486 17.4586V20.178C2.51486 20.4573 2.7408 20.6858 3.02007 20.6858H12.8048ZM32.2617 30.7555C32.2617 30.0674 31.7032 29.5062 31.0126 29.5062L31 29.5067C30.3119 29.5067 29.7509 30.0679 29.7509 30.756V35.1486C29.7509 35.8417 29.1872 36.4054 28.4942 36.4054C27.8011 36.4054 27.2374 35.8443 27.2374 35.1486V23.1943C27.2374 22.5011 26.6738 21.94 25.9833 21.94C25.3079 21.94 24.7342 22.5138 24.7342 23.1943V39.3632C24.7342 40.0564 24.1705 40.6201 23.4775 40.6201C22.7844 40.6201 22.2207 40.0589 22.2207 39.3632V34.8919C21.972 34.9224 21.5962 35.0315 21.1976 35.3185C20.667 35.6968 20.0374 36.4331 20.0374 37.7737V38.6776C20.0399 41.4453 20.6873 44.1316 21.8171 46.0461C23.1627 48.3288 25.1226 49.484 27.6462 49.484H34.0211C38.3676 49.484 41.9041 45.947 41.9041 41.5975V33.0051C41.9041 32.4236 41.4294 31.9488 40.848 31.9488C40.2666 31.9488 39.7919 32.4211 39.7919 33.0051V35.1481C39.7919 35.8413 39.2282 36.4049 38.5352 36.4049C37.8421 36.4049 37.2784 35.8438 37.2784 35.1481V31.6594C37.2784 30.9662 36.7199 30.4051 36.0293 30.4051C35.3362 30.4051 34.7752 30.9687 34.7752 31.6594V35.1481C34.7752 35.8413 34.2115 36.4049 33.5185 36.4049C32.8254 36.4049 32.2617 35.8438 32.2617 35.1481V30.7555ZM48.9695 20.6852C49.2462 20.6852 49.4772 20.4516 49.4772 20.1774H49.4795V17.458C49.4795 15.965 48.1263 14.7488 46.4609 14.7488H41.693C40.0301 14.7488 38.677 15.965 38.677 17.458V20.1774C38.677 20.4541 38.9105 20.6852 39.1847 20.6852H48.9695Z" fill="black"/>
<path fill-rule="evenodd" clip-rule="evenodd" d="M39.1731 12.8097C38.9726 5.71031 33.1384 0 25.9944 0C18.8504 0 13.0159 5.71297 12.8158 12.8097L15.6087 21.3105C15.6671 21.3841 15.7255 21.4603 15.7864 21.5339C17.4595 23.5804 19.7216 25.0785 22.2299 25.8275L22.2286 23.1767C21.5076 22.9024 20.8246 22.5546 20.1925 22.1407V20.3684C20.1925 18.7408 21.6625 17.4179 23.4701 17.4179L23.4676 17.4129H28.5223C30.3274 17.4129 31.7948 18.7357 31.7948 20.3633V22.1381C31.1627 22.552 30.4798 22.8999 29.7613 23.1741L29.7701 25.8243C32.2784 25.0753 34.5404 23.5747 36.211 21.5307C36.272 21.457 36.3304 21.3834 36.3888 21.3098L39.1731 12.8097ZM25.9937 8.16561C24.6405 8.16561 23.5412 9.26503 23.5412 10.6183C23.5412 12.1418 24.3003 14.2898 25.9937 14.2898C27.847 14.2898 28.4461 11.8168 28.4461 10.6183C28.4461 9.26503 27.3468 8.16561 25.9937 8.16561ZM29.5757 14.9875C32.1043 15.4292 34.0618 17.4225 34.2902 19.8803C35.783 18.0267 36.6667 15.6831 36.6667 13.1872C36.6667 7.30155 31.881 2.51283 25.9961 2.51283C20.1111 2.51283 15.3255 7.30162 15.3255 13.1872C15.3255 15.6832 16.2089 18.0267 17.7018 19.8777C17.9328 17.4225 19.8877 15.4293 22.4163 14.9875C21.5024 13.7991 21.0276 12.1843 21.0276 10.6177C21.0276 7.87804 23.2567 5.64872 25.996 5.64872C28.7353 5.64872 30.9644 7.87804 30.9644 10.6177C30.9644 12.1818 30.4871 13.7992 29.5757 14.9875Z" fill="#CC280C"/>
</svg>
