<svg width="43" height="43" viewBox="0 0 43 43" fill="none" xmlns="http://www.w3.org/2000/svg">
<path d="M21.6024 3.1355C25.5274 3.13547 28.6103 3.13546 31.0173 3.45906C33.4838 3.79068 35.4407 4.48411 36.9783 6.02172C38.5159 7.55932 39.2094 9.51628 39.541 11.9828C39.8646 14.3897 39.8646 17.4725 39.8645 21.3975V21.3977V21.6025V21.6027C39.8646 25.5276 39.8646 28.6105 39.541 31.0174C39.2094 33.4839 38.5159 35.4408 36.9783 36.9784C35.4407 38.5161 33.4838 39.2095 31.0173 39.5411C28.6103 39.8647 25.5275 39.8647 21.6026 39.8647H21.6024H21.3975H21.3974C17.4724 39.8647 14.3896 39.8647 11.9827 39.5411C9.51616 39.2095 7.5592 38.5161 6.0216 36.9784C4.48399 35.4408 3.79055 33.4839 3.45894 31.0174C3.13533 28.6104 3.13535 25.5275 3.13538 21.6025V21.3976C3.13535 17.4726 3.13533 14.3897 3.45894 11.9828C3.79055 9.51628 4.48399 7.55932 6.0216 6.02172C7.5592 4.48411 9.51616 3.79068 11.9827 3.45906C14.3896 3.13546 17.4725 3.13547 21.3975 3.1355H21.6024Z" fill="#CC280C"/>
<path d="M15.6555 17.0209C15.6555 13.8032 18.2672 11.198 21.4848 11.198C24.7025 11.198 27.3141 13.8032 27.3141 17.0209C27.3141 20.2386 24.7025 22.8438 21.4848 22.8438C18.2672 22.8438 15.6555 20.2386 15.6555 17.0209Z" fill="#010101"/>
<path d="M12.5096 31.4303C11.9728 30.9178 11.9531 30.0672 12.4656 29.5305C17.1472 24.6271 25.7715 24.3623 30.5506 29.5477C31.0536 30.0935 31.0189 30.9436 30.4732 31.4465C30.2148 31.6846 29.8882 31.8023 29.5625 31.8022H13.4375C13.104 31.8022 12.7699 31.6788 12.5096 31.4303Z" fill="#010101"/>
</svg>
