<svg width="56" height="52" viewBox="0 0 56 52" fill="none" xmlns="http://www.w3.org/2000/svg">
<path fill-rule="evenodd" clip-rule="evenodd" d="M12.4688 48.8763L12.4715 47.0232V35.9354L12.4688 34.0088V32.715C12.4688 32.2026 12.0659 31.7895 11.5662 31.7895L0.902606 31.7871C0.40293 31.7871 0 32.2003 0 32.7126V50.7888C0 51.3012 0.40296 51.7143 0.902606 51.7143H11.5662C12.0659 51.7143 12.4688 51.3011 12.4688 50.7888V48.8763ZM6.23576 48.0808C6.7354 48.0808 7.13836 47.6676 7.13836 47.1553V46.081C7.13836 45.5687 6.7354 45.1555 6.23576 45.1555C5.73611 45.1555 5.33315 45.5687 5.33315 46.081V47.1553C5.33315 47.6676 5.73611 48.0808 6.23576 48.0808Z" fill="#010101"/>
<path d="M55.2703 36.7548C54.1972 35.2626 52.2354 34.7691 50.612 35.5884L44.0518 38.8915C44.0564 38.4193 43.9597 37.9518 43.7294 37.5174C43.0893 36.2991 41.6777 35.5743 39.8587 35.5294C35.2649 35.416 29.4786 33.9262 25.2556 32.8377L24.3645 32.6087C20.6756 31.6619 14.9423 33.2793 12.4688 34.0088L12.4715 35.9354C12.5382 35.9165 12.6004 35.8976 12.6741 35.8764L12.6999 35.8688C14.8746 35.2255 20.5647 33.5423 23.9296 34.4031L24.8184 34.6321L24.8384 34.6373C29.1449 35.7465 35.0308 37.2625 39.8199 37.3804C41.1555 37.4135 41.8946 37.9258 42.141 38.3933C42.3667 38.8254 42.2193 39.2362 42.0558 39.503C41.464 40.4711 39.5643 41.4556 36.0066 41.2998L28.8179 41.3163C28.3183 41.3163 27.9153 41.7342 27.9176 42.2443C27.9176 42.7542 28.3229 43.1674 28.8202 43.1674H28.8225L35.9699 43.1509C38.4729 43.2548 40.5315 42.8392 41.9661 41.9963C41.973 41.9916 41.9822 41.9939 41.9891 41.9892L51.4113 37.2481C52.2495 36.8255 53.2649 37.0782 53.8198 37.8526C54.1514 38.3177 54.2711 38.9056 54.1467 39.4699C54.0224 40.0318 53.6655 40.5112 53.1704 40.7803L36.9463 49.6274C36.0897 50.0949 35.095 50.2555 34.1371 50.0831L20.9823 47.6937L12.4715 47.0232L12.4688 48.8763L20.7516 49.5256L33.8191 51.9032C34.1737 51.967 34.5306 52 34.8898 52C35.896 52 36.9 51.7474 37.7934 51.261L54.0158 42.4163C54.976 41.8921 55.6645 40.9666 55.9062 39.8782C56.148 38.7921 55.9173 37.6544 55.2703 36.7548Z" fill="#CC280C"/>
<path d="M49.8591 25.7313C49.8591 29.7971 46.6261 33.1024 42.661 33.1024C38.6958 33.1024 35.4629 29.7969 35.4629 25.7313C35.4629 21.6561 38.6958 18.3506 42.661 18.3506C46.6238 18.3506 49.8591 21.6561 49.8591 25.7313Z" fill="#010101"/>
<path d="M31.0278 6.90592C34.8962 7.84328 37.2933 11.817 36.3791 15.7857C35.4649 19.7523 31.5873 22.2102 27.7191 21.2728C23.8507 20.3378 21.4536 16.3617 22.3678 12.393C23.2796 8.42644 27.1573 5.96851 31.0278 6.90592Z" fill="#010101"/>
<path d="M48.9563 17.2733C49.456 17.2733 49.8589 16.8577 49.8589 16.3478V6.79953C49.8589 6.28718 49.456 5.87402 48.9563 5.87402C48.4567 5.87402 48.0537 6.28957 48.0537 6.79953V16.3478C48.0514 16.8601 48.4567 17.2733 48.9563 17.2733Z" fill="#CC280C"/>
<path d="M42.311 11.3993C42.8106 11.3993 43.2136 10.9837 43.2136 10.4738L43.2159 0.92551C43.2159 0.413155 42.8129 0 42.3133 0C41.8136 0 41.4107 0.415549 41.4107 0.92551V10.4738C41.4084 10.9837 41.8136 11.3993 42.311 11.3993Z" fill="#CC280C"/>
<path d="M29.3748 4.82623C29.8745 4.82623 30.2774 4.41068 30.2774 3.90072V0.925753C30.2774 0.413399 29.8744 0.000244141 29.3748 0.000244141C28.8751 0.000244141 28.4722 0.415792 28.4722 0.925753V3.90072C28.4699 4.41071 28.8751 4.82623 29.3748 4.82623Z" fill="#CC280C"/>
<path d="M42.3108 16.3129C42.8105 16.3129 43.2134 15.8974 43.2134 15.3874V14.0888C43.2134 13.5765 42.8105 13.1633 42.3108 13.1633C41.8112 13.1633 41.4082 13.5789 41.4082 14.0888V15.3874C41.4082 15.8998 41.8135 16.3129 42.3108 16.3129Z" fill="#CC280C"/>
</svg>
