<svg width="43" height="41" viewBox="0 0 43 41" fill="none" xmlns="http://www.w3.org/2000/svg">
<path d="M14.44 18.2117C18.3695 18.2117 21.555 15.1743 21.555 11.4276C21.555 7.68088 18.3695 4.64355 14.44 4.64355C10.5105 4.64355 7.32495 7.68088 7.32495 11.4276C7.32495 15.1743 10.5105 18.2117 14.44 18.2117Z" fill="#010101"/>
<path d="M4.52999 40.7188H24.35C25.815 40.7188 26.96 39.8892 26.83 38.9262C26.155 33.9013 23.48 20.0281 14.44 20.0281C5.39999 20.0281 2.71999 33.9013 2.04999 38.9262C1.91999 39.8892 3.06499 40.7188 4.52999 40.7188Z" fill="#010101"/>
<path d="M26.84 15.4608C31.2472 15.4608 34.82 12.0543 34.82 7.852C34.82 3.64976 31.2472 0.243164 26.84 0.243164C22.4327 0.243164 18.86 3.64976 18.86 7.852C18.86 12.0543 22.4327 15.4608 26.84 15.4608Z" fill="#CC280C"/>
<path d="M15.72 40.7187H37.96C39.6 40.7187 40.89 39.789 40.745 38.7068C39.99 33.0669 36.985 17.5012 26.84 17.5012C16.695 17.5012 13.69 33.0669 12.935 38.7068C12.79 39.789 14.075 40.7187 15.72 40.7187Z" fill="#CC280C"/>
</svg>
