<svg width="221" height="53" viewBox="0 0 221 53" fill="none" xmlns="http://www.w3.org/2000/svg">
<rect width="53" height="53" rx="15.1429" fill="#F8F8F8"/>
<path d="M31.6457 13.0288H16.4336L14.7782 19.2088H28.9933C32.1539 19.2088 32.5069 19.628 33.1145 20.8642C33.1814 21.0005 33.2248 21.1494 33.2254 21.3011C33.2331 23.2196 31.282 24.1525 28.866 24.2883H19.6793C17.1758 24.6269 16.3696 24.9867 14.7782 26.9973C12.1051 30.7011 15.203 34.68 15.2667 34.8493C15.3303 35.0186 19.4039 39.9922 19.6585 39.9711C19.8621 39.9541 22.0206 37.2691 23.0743 35.9287C25.7688 32.881 25.4293 31.6111 25.4293 30.1085C27.7207 31.9709 31.0941 37.2197 32.4944 39.6959H39.1563C39.1563 37.9181 34.1917 30.8704 32.4944 29.4735C34.9413 29.1772 39.8098 27.082 39.708 21.0713C39.6061 15.0606 34.2624 13.2052 31.6457 13.0288Z" fill="#CC280C"/>
<path fill-rule="evenodd" clip-rule="evenodd" d="M22.7133 30.4048C22.7133 33.0715 19.6157 35.1456 19.6157 35.1456C19.6157 35.1456 16.5181 33.0715 16.5181 30.4048C16.5181 29.6189 16.8444 28.8653 17.4253 28.3096C18.0062 27.7539 18.7941 27.4418 19.6157 27.4418C20.4372 27.4418 21.2251 27.7539 21.806 28.3096C22.3869 28.8653 22.7133 29.6189 22.7133 30.4048ZM19.6157 31.59C20.3 31.59 20.8547 31.0593 20.8547 30.4048C20.8547 29.7502 20.3 29.2196 19.6157 29.2196C18.9314 29.2196 18.3766 29.7502 18.3766 30.4048C18.3766 31.0593 18.9314 31.59 19.6157 31.59Z" fill="#F8F8F8"/>
<path d="M65.6427 29.218V25.1193H70.9073C72.0144 25.1193 72.8624 24.8367 73.4513 24.2713C74.0638 23.706 74.37 22.9404 74.37 21.9747C74.37 21.0796 74.0756 20.3376 73.4867 19.7487C72.8978 19.1598 72.0498 18.8653 70.9427 18.8653H65.6427V14.5547H71.5787C73.2276 14.5547 74.6762 14.8727 75.9247 15.5087C77.1731 16.1211 78.1507 16.9809 78.8573 18.088C79.564 19.1951 79.9173 20.4671 79.9173 21.904C79.9173 23.3644 79.564 24.6482 78.8573 25.7553C78.1507 26.8389 77.1613 27.6869 75.8893 28.2993C74.6173 28.9118 73.1216 29.218 71.402 29.218H65.6427ZM61.4027 39.5V14.5547H66.95V39.5H61.4027ZM74.9707 39.5L67.1973 28.7587L72.2853 27.3807L81.5427 39.5H74.9707ZM83.9575 39.5V22.328H89.3635V39.5H83.9575ZM86.6781 19.9607C85.8301 19.9607 85.1235 19.678 84.5581 19.1127C84.0164 18.5238 83.7455 17.8171 83.7455 16.9927C83.7455 16.1447 84.0164 15.438 84.5581 14.8727C85.1235 14.3073 85.8301 14.0247 86.6781 14.0247C87.5261 14.0247 88.221 14.3073 88.7628 14.8727C89.3046 15.438 89.5755 16.1447 89.5755 16.9927C89.5755 17.8171 89.3046 18.5238 88.7628 19.1127C88.221 19.678 87.5261 19.9607 86.6781 19.9607ZM100.484 39.8533C98.859 39.8533 97.4104 39.4647 96.1384 38.6873C94.8899 37.91 93.9006 36.85 93.1704 35.5073C92.4637 34.1647 92.1104 32.6336 92.1104 30.914C92.1104 29.1944 92.4637 27.6633 93.1704 26.3207C93.9006 24.978 94.8899 23.918 96.1384 23.1407C97.4104 22.3633 98.859 21.9747 100.484 21.9747C101.662 21.9747 102.722 22.1984 103.664 22.646C104.63 23.0936 105.419 23.7178 106.032 24.5187C106.668 25.296 107.021 26.1911 107.092 27.204V34.4473C107.021 35.4602 106.679 36.3789 106.067 37.2033C105.455 38.0042 104.665 38.652 103.7 39.1467C102.734 39.6178 101.662 39.8533 100.484 39.8533ZM101.438 34.9773C102.216 34.9773 102.887 34.8124 103.452 34.4827C104.018 34.1293 104.465 33.6464 104.795 33.034C105.125 32.4216 105.29 31.7149 105.29 30.914C105.29 30.1131 105.125 29.4182 104.795 28.8293C104.489 28.2169 104.041 27.734 103.452 27.3807C102.887 27.0273 102.227 26.8507 101.474 26.8507C100.72 26.8507 100.049 27.0273 99.4597 27.3807C98.8944 27.734 98.435 28.2169 98.0817 28.8293C97.7519 29.4418 97.587 30.1367 97.587 30.914C97.587 31.6913 97.7519 32.3862 98.0817 32.9987C98.4115 33.6111 98.8708 34.094 99.4597 34.4473C100.049 34.8007 100.708 34.9773 101.438 34.9773ZM110.378 39.5H105.078V34.8713L105.89 30.702L104.972 26.5327V13.848H110.378V39.5ZM122.664 39.8887C120.803 39.8887 119.142 39.5118 117.682 38.758C116.245 37.9807 115.114 36.9089 114.29 35.5427C113.466 34.1764 113.053 32.6336 113.053 30.914C113.053 29.1944 113.454 27.6633 114.255 26.3207C115.079 24.9544 116.186 23.8827 117.576 23.1053C118.966 22.328 120.532 21.9393 122.275 21.9393C123.971 21.9393 125.467 22.3044 126.763 23.0347C128.058 23.7649 129.071 24.7778 129.801 26.0733C130.555 27.3689 130.932 28.8529 130.932 30.5253C130.932 30.8316 130.908 31.1613 130.861 31.5147C130.838 31.8444 130.779 32.2331 130.685 32.6807L115.88 32.716V29.006L128.388 28.9707L126.056 30.5253C126.032 29.536 125.879 28.7233 125.597 28.0873C125.314 27.4278 124.89 26.9331 124.325 26.6033C123.783 26.25 123.112 26.0733 122.311 26.0733C121.463 26.0733 120.721 26.2736 120.085 26.674C119.472 27.0509 118.989 27.5927 118.636 28.2993C118.306 29.006 118.141 29.8658 118.141 30.8787C118.141 31.8916 118.318 32.7631 118.671 33.4933C119.048 34.2 119.566 34.7536 120.226 35.154C120.909 35.5309 121.71 35.7193 122.629 35.7193C123.477 35.7193 124.242 35.578 124.925 35.2953C125.608 34.9891 126.209 34.5416 126.727 33.9527L129.695 36.9207C128.847 37.91 127.823 38.652 126.621 39.1467C125.42 39.6413 124.101 39.8887 122.664 39.8887ZM132.481 36.3907L142.057 26.4973C142.646 25.9084 143.117 25.3667 143.47 24.872C143.823 24.3773 144.083 23.918 144.247 23.494C144.412 23.0464 144.495 22.5989 144.495 22.1513C144.495 21.1856 144.177 20.4318 143.541 19.89C142.928 19.3247 142.116 19.042 141.103 19.042C140.113 19.042 139.218 19.3129 138.417 19.8547C137.64 20.3729 136.886 21.2327 136.156 22.434L132.446 19.2187C133.435 17.5462 134.696 16.286 136.227 15.438C137.758 14.59 139.513 14.166 141.491 14.166C143.211 14.166 144.695 14.484 145.943 15.12C147.215 15.756 148.193 16.6629 148.876 17.8407C149.583 19.0184 149.936 20.3964 149.936 21.9747C149.936 22.964 149.807 23.8827 149.547 24.7307C149.288 25.5551 148.864 26.3796 148.275 27.204C147.71 28.0049 146.945 28.8882 145.979 29.854L139.336 36.4613L132.481 36.3907ZM132.481 39.5V36.3907L137.181 34.7653H150.431V39.5H132.481ZM153.98 39.5V14.5547H159.527V39.5H153.98ZM158.22 29.7127V24.9427H170.693V29.7127H158.22ZM158.22 19.3247V14.5547H171.258V19.3247H158.22ZM174.327 39.5V22.328H179.733V39.5H174.327ZM177.047 19.9607C176.199 19.9607 175.493 19.678 174.927 19.1127C174.386 18.5238 174.115 17.8171 174.115 16.9927C174.115 16.1447 174.386 15.438 174.927 14.8727C175.493 14.3073 176.199 14.0247 177.047 14.0247C177.895 14.0247 178.59 14.3073 179.132 14.8727C179.674 15.438 179.945 16.1447 179.945 16.9927C179.945 17.8171 179.674 18.5238 179.132 19.1127C178.59 19.678 177.895 19.9607 177.047 19.9607ZM188.946 39.5L181.667 22.328H187.497L192.444 36.638H189.9L194.846 22.328H200.57L193.292 39.5H188.946ZM210.514 39.8887C208.653 39.8887 206.993 39.5118 205.532 38.758C204.095 37.9807 202.965 36.9089 202.14 35.5427C201.316 34.1764 200.904 32.6336 200.904 30.914C200.904 29.1944 201.304 27.6633 202.105 26.3207C202.929 24.9544 204.037 23.8827 205.426 23.1053C206.816 22.328 208.383 21.9393 210.126 21.9393C211.822 21.9393 213.317 22.3044 214.613 23.0347C215.909 23.7649 216.921 24.7778 217.652 26.0733C218.405 27.3689 218.782 28.8529 218.782 30.5253C218.782 30.8316 218.759 31.1613 218.712 31.5147C218.688 31.8444 218.629 32.2331 218.535 32.6807L203.73 32.716V29.006L216.238 28.9707L213.906 30.5253C213.883 29.536 213.73 28.7233 213.447 28.0873C213.164 27.4278 212.74 26.9331 212.175 26.6033C211.633 26.25 210.962 26.0733 210.161 26.0733C209.313 26.0733 208.571 26.2736 207.935 26.674C207.323 27.0509 206.84 27.5927 206.486 28.2993C206.157 29.006 205.992 29.8658 205.992 30.8787C205.992 31.8916 206.168 32.7631 206.522 33.4933C206.899 34.2 207.417 34.7536 208.076 35.154C208.759 35.5309 209.56 35.7193 210.479 35.7193C211.327 35.7193 212.093 35.578 212.776 35.2953C213.459 34.9891 214.059 34.5416 214.578 33.9527L217.546 36.9207C216.698 37.91 215.673 38.652 214.472 39.1467C213.27 39.6413 211.951 39.8887 210.514 39.8887Z" fill="#F8F8F8"/>
</svg>
