<svg width="49" height="39" viewBox="0 0 49 39" fill="none" xmlns="http://www.w3.org/2000/svg">
<path fill-rule="evenodd" clip-rule="evenodd" d="M38.1407 26.1729C40.0165 22.0408 42.5306 19.3165 44.6083 16.8008C46.94 13.9852 48.7508 11.3913 48.9917 7.748C49.0829 6.28809 48.4185 4.09823 47.2136 2.44928C46.3408 1.25007 45.1946 0.357187 43.944 0.0898983C41.977 -0.340249 39.3847 0.663433 37.1377 5.50591C36.5646 6.74423 36.1738 8.99267 35.9458 11.5801C35.4573 17.2177 35.6657 24.5628 35.6462 25.6188C35.6397 26.2379 36.063 26.7724 36.6623 26.9092C37.2615 27.0396 37.8802 26.7398 38.1343 26.1728L38.1407 26.1729ZM38.5445 11.8019C38.2905 14.6826 38.2318 18.0261 38.2253 20.7178C39.6713 18.567 41.2214 16.8005 42.6022 15.1385C44.5691 12.7728 46.191 10.6415 46.3929 7.57838C46.458 6.58781 45.9304 5.10835 45.1098 3.98734C44.6409 3.3356 44.0677 2.78161 43.3904 2.63171C42.9214 2.53395 42.4199 2.68385 41.8923 3.10749C41.0977 3.74634 40.3096 4.86722 39.5084 6.60093C39.0134 7.65673 38.7399 9.59249 38.5445 11.8019Z" fill="#CC280C"/>
<path fill-rule="evenodd" clip-rule="evenodd" d="M18.5616 33.7267C15.9303 31.6411 11.8139 29.1579 5.51564 30.5983C5.21603 30.6635 2.59121 31.3022 1.21044 32.4298C0.507004 33.0033 0.0836487 33.7007 0.012001 34.4502C-0.0596428 35.1801 0.174839 36.0534 1.11275 36.9594C2.63034 38.4193 4.72115 38.9732 7.34595 38.9994C9.07971 39.0128 11.0739 38.7998 13.2934 38.5628C15.4013 38.3377 17.7124 38.0909 20.1965 37.9957C20.7697 37.9762 21.2582 37.5851 21.408 37.0311C21.5578 36.4837 21.3298 35.897 20.8478 35.5907C20.5186 35.3839 20.1265 35.0466 19.6595 34.6448C19.3318 34.3629 18.9672 34.0492 18.5616 33.7267ZM2.92318 35.0758C3.99148 36.1056 5.51548 36.3663 7.37179 36.3858C9.08381 36.4032 11.0512 36.1907 13.2397 35.9545C14.3483 35.8348 15.5137 35.7089 16.7313 35.6037L16.7377 35.6038C14.5428 33.9092 11.1755 31.98 6.10163 33.1401C5.9389 33.1727 4.96184 33.3943 4.00439 33.8049C3.62663 33.9679 3.24235 34.1569 2.94273 34.385C2.8255 34.4697 2.6822 34.6326 2.6301 34.6978C2.63771 34.7087 2.64732 34.723 2.65866 34.74C2.71521 34.8243 2.81467 34.9727 2.92318 35.0758Z" fill="#CC280C"/>
<path fill-rule="evenodd" clip-rule="evenodd" d="M30.6701 30.4614C26.9445 15.2953 20.9002 10.4014 17.305 9.36361C15.1035 8.73141 13.5338 9.45486 12.9801 10.237C10.7786 13.3393 11.951 16.4417 14.9014 19.5373C16.4649 21.1803 18.5514 22.8377 20.6907 24.5371C23.5246 26.7881 26.4511 29.1128 28.3773 31.575C28.755 32.0573 29.4194 32.2137 29.973 31.94C30.5201 31.6662 30.8132 31.0536 30.6634 30.454L30.6701 30.4614ZM15.0641 11.8084C13.6899 13.8223 14.8754 15.732 16.7902 17.7393C18.3718 19.3971 20.4718 21.074 22.627 22.795C24.0209 23.9081 25.4378 25.0396 26.7524 26.1962L26.7555 26.2055L26.7556 26.199L26.7524 26.1962C24.0239 17.8537 20.6189 13.9456 17.8974 12.4276C17.0116 11.9388 16.2365 11.7172 15.6243 11.7172C15.4159 11.7172 15.1358 11.7889 15.0641 11.8084Z" fill="black"/>
</svg>
