<svg width="49" height="39" viewBox="0 0 49 39" fill="none" xmlns="http://www.w3.org/2000/svg">
<path fill-rule="evenodd" clip-rule="evenodd" d="M10.8593 26.1729C8.98352 22.0408 6.46944 19.3165 4.3917 16.8008C2.06002 13.9852 0.24924 11.3913 0.00830162 7.748C-0.0828829 6.28809 0.581462 4.09823 1.7864 2.44928C2.65918 1.25007 3.80545 0.357187 5.05599 0.0898983C7.02301 -0.340249 9.6153 0.663433 11.8623 5.50591C12.4354 6.74423 12.8262 8.99267 13.0542 11.5801C13.5427 17.2177 13.3343 24.5628 13.3538 25.6188C13.3603 26.2379 12.937 26.7724 12.3377 26.9092C11.7385 27.0396 11.1198 26.7398 10.8657 26.1728L10.8593 26.1729ZM10.4555 11.8019C10.7095 14.6826 10.7682 18.0261 10.7747 20.7178C9.3287 18.567 7.77858 16.8005 6.39777 15.1385C4.43091 12.7728 2.80902 10.6415 2.60712 7.57838C2.54199 6.58781 3.06956 5.10835 3.89023 3.98734C4.3591 3.3356 4.93227 2.78161 5.60965 2.63171C6.0786 2.53395 6.58011 2.68385 7.10769 3.10749C7.90234 3.74634 8.69042 4.86722 9.49156 6.60093C9.98655 7.65673 10.2601 9.59249 10.4555 11.8019Z" fill="#CC280C"/>
<path fill-rule="evenodd" clip-rule="evenodd" d="M30.4384 33.7267C33.0697 31.6411 37.1861 29.1579 43.4844 30.5983C43.784 30.6635 46.4088 31.3022 47.7896 32.4298C48.493 33.0033 48.9164 33.7007 48.988 34.4502C49.0596 35.1801 48.8252 36.0534 47.8872 36.9594C46.3697 38.4193 44.2789 38.9732 41.654 38.9994C39.9203 39.0128 37.9261 38.7998 35.7066 38.5628C33.5987 38.3377 31.2876 38.0909 28.8035 37.9957C28.2303 37.9762 27.7418 37.5851 27.592 37.0311C27.4422 36.4837 27.6702 35.897 28.1522 35.5907C28.4814 35.3839 28.8735 35.0466 29.3405 34.6448C29.6682 34.3629 30.0328 34.0492 30.4384 33.7267ZM46.0768 35.0758C45.0085 36.1056 43.4845 36.3663 41.6282 36.3858C39.9162 36.4032 37.9488 36.1907 35.7603 35.9545C34.6517 35.8348 33.4863 35.7089 32.2687 35.6037L32.2623 35.6038C34.4572 33.9092 37.8245 31.98 42.8984 33.1401C43.0611 33.1727 44.0382 33.3943 44.9956 33.8049C45.3734 33.9679 45.7577 34.1569 46.0573 34.385C46.1745 34.4697 46.3178 34.6326 46.3699 34.6978C46.3623 34.7087 46.3527 34.723 46.3413 34.74C46.2848 34.8243 46.1853 34.9727 46.0768 35.0758Z" fill="#CC280C"/>
<path fill-rule="evenodd" clip-rule="evenodd" d="M18.3299 30.4614C22.0555 15.2953 28.0998 10.4014 31.695 9.36361C33.8965 8.73141 35.4662 9.45486 36.0199 10.237C38.2214 13.3393 37.049 16.4417 34.0986 19.5373C32.5351 21.1803 30.4486 22.8377 28.3093 24.5371C25.4754 26.7881 22.5489 29.1128 20.6227 31.575C20.245 32.0573 19.5806 32.2137 19.027 31.94C18.4799 31.6662 18.1868 31.0536 18.3366 30.454L18.3299 30.4614ZM33.9359 11.8084C35.3101 13.8223 34.1246 15.732 32.2098 17.7393C30.6282 19.3971 28.5282 21.074 26.373 22.795C24.9791 23.9081 23.5622 25.0396 22.2476 26.1962L22.2445 26.2055L22.2444 26.199L22.2476 26.1962C24.9761 17.8537 28.3811 13.9456 31.1026 12.4276C31.9884 11.9388 32.7635 11.7172 33.3757 11.7172C33.5841 11.7172 33.8642 11.7889 33.9359 11.8084Z" fill="black"/>
</svg>
