<svg width="867" height="668" viewBox="0 0 867 668" fill="none" xmlns="http://www.w3.org/2000/svg">
<path opacity="0.5" fill-rule="evenodd" clip-rule="evenodd" d="M642.932 591.645C944.776 647.615 1150.92 926.123 1103.21 1213.21C1055.39 1500.58 771.911 1688.17 469.87 1631.79C320.631 1604.25 188.234 1518.16 100.307 1387.14C78.5349 1354.44 60.8177 1320.65 47.3542 1286.17C47.2953 1286.21 47.2404 1286.23 47.1804 1286.27C42.0674 1273.37 37.6448 1260.4 33.621 1247.26C-34.3789 1022.73 53.6833 769.949 179.712 550.634C185.197 540.882 190.978 531.233 196.659 521.866C352.166 262.108 555.597 54.8664 601.055 9.99243L888.4 169.65L642.932 591.645Z" stroke="#CC280C" stroke-width="19.9844" stroke-linejoin="round"/>
</svg>
