<svg width="150" height="36" viewBox="0 0 150 36" fill="none" xmlns="http://www.w3.org/2000/svg">
<rect width="36" height="36" rx="10.2857" fill="#CC280C"/>
<path d="M21.4952 8.84985H11.1624L10.038 13.0476H19.6936C21.8404 13.0476 22.0802 13.3323 22.4928 14.172C22.5383 14.2646 22.5678 14.3657 22.5682 14.4688C22.5734 15.7719 21.2482 16.4056 19.6071 16.4978H13.3671C11.6666 16.7278 11.1189 16.9722 10.038 18.3379C8.2223 20.8537 10.3266 23.5563 10.3698 23.6713C10.4131 23.7863 13.18 27.1646 13.3529 27.1503C13.4913 27.1388 14.9574 25.315 15.6731 24.4045C17.5033 22.3344 17.2727 21.4718 17.2727 20.4511C18.8291 21.7162 21.1205 25.2814 22.0717 26.9634H26.5968C26.5968 25.7558 23.2245 20.9687 22.0717 20.0199C23.7337 19.8186 27.0406 18.3954 26.9714 14.3127C26.9023 10.2299 23.2726 8.96965 21.4952 8.84985Z" fill="#F8F8F8"/>
<path fill-rule="evenodd" clip-rule="evenodd" d="M15.4279 20.6524C15.4279 22.4637 13.3239 23.8726 13.3239 23.8726C13.3239 23.8726 11.2198 22.4637 11.2198 20.6524C11.2198 20.1186 11.4415 19.6067 11.8361 19.2293C12.2307 18.8518 12.7658 18.6398 13.3239 18.6398C13.8819 18.6398 14.417 18.8518 14.8116 19.2293C15.2062 19.6067 15.4279 20.1186 15.4279 20.6524ZM13.3239 21.4574C13.7887 21.4574 14.1655 21.097 14.1655 20.6524C14.1655 20.2078 13.7887 19.8474 13.3239 19.8474C12.859 19.8474 12.4822 20.2078 12.4822 20.6524C12.4822 21.097 12.859 21.4574 13.3239 21.4574Z" fill="#CC280C"/>
<path d="M44.512 20.016V17.232H48.088C48.84 17.232 49.416 17.04 49.816 16.656C50.232 16.272 50.44 15.752 50.44 15.096C50.44 14.488 50.24 13.984 49.84 13.584C49.44 13.184 48.864 12.984 48.112 12.984H44.512V10.056H48.544C49.664 10.056 50.648 10.272 51.496 10.704C52.344 11.12 53.008 11.704 53.488 12.456C53.968 13.208 54.208 14.072 54.208 15.048C54.208 16.04 53.968 16.912 53.488 17.664C53.008 18.4 52.336 18.976 51.472 19.392C50.608 19.808 49.592 20.016 48.424 20.016H44.512ZM41.632 27V10.056H45.4V27H41.632ZM50.848 27L45.568 19.704L49.024 18.768L55.312 27H50.848ZM56.9523 27V15.336H60.6243V27H56.9523ZM58.8003 13.728C58.2243 13.728 57.7443 13.536 57.3603 13.152C56.9923 12.752 56.8083 12.272 56.8083 11.712C56.8083 11.136 56.9923 10.656 57.3603 10.272C57.7443 9.888 58.2243 9.696 58.8003 9.696C59.3763 9.696 59.8483 9.888 60.2163 10.272C60.5843 10.656 60.7683 11.136 60.7683 11.712C60.7683 12.272 60.5843 12.752 60.2163 13.152C59.8483 13.536 59.3763 13.728 58.8003 13.728ZM68.1781 27.24C67.0741 27.24 66.0901 26.976 65.2261 26.448C64.3781 25.92 63.7061 25.2 63.2101 24.288C62.7301 23.376 62.4901 22.336 62.4901 21.168C62.4901 20 62.7301 18.96 63.2101 18.048C63.7061 17.136 64.3781 16.416 65.2261 15.888C66.0901 15.36 67.0741 15.096 68.1781 15.096C68.9781 15.096 69.6981 15.248 70.3381 15.552C70.9941 15.856 71.5301 16.28 71.9461 16.824C72.3781 17.352 72.6181 17.96 72.6661 18.648V23.568C72.6181 24.256 72.3861 24.88 71.9701 25.44C71.5541 25.984 71.0181 26.424 70.3621 26.76C69.7061 27.08 68.9781 27.24 68.1781 27.24ZM68.8261 23.928C69.3541 23.928 69.8101 23.816 70.1941 23.592C70.5781 23.352 70.8821 23.024 71.1061 22.608C71.3301 22.192 71.4421 21.712 71.4421 21.168C71.4421 20.624 71.3301 20.152 71.1061 19.752C70.8981 19.336 70.5941 19.008 70.1941 18.768C69.8101 18.528 69.3621 18.408 68.8501 18.408C68.3381 18.408 67.8821 18.528 67.4821 18.768C67.0981 19.008 66.7861 19.336 66.5461 19.752C66.3221 20.168 66.2101 20.64 66.2101 21.168C66.2101 21.696 66.3221 22.168 66.5461 22.584C66.7701 23 67.0821 23.328 67.4821 23.568C67.8821 23.808 68.3301 23.928 68.8261 23.928ZM74.8981 27H71.2981V23.856L71.8501 21.024L71.2261 18.192V9.576H74.8981V27ZM83.2435 27.264C81.9795 27.264 80.8515 27.008 79.8595 26.496C78.8835 25.968 78.1155 25.24 77.5555 24.312C76.9955 23.384 76.7155 22.336 76.7155 21.168C76.7155 20 76.9875 18.96 77.5315 18.048C78.0915 17.12 78.8435 16.392 79.7875 15.864C80.7315 15.336 81.7955 15.072 82.9795 15.072C84.1315 15.072 85.1475 15.32 86.0275 15.816C86.9075 16.312 87.5955 17 88.0915 17.88C88.6035 18.76 88.8595 19.768 88.8595 20.904C88.8595 21.112 88.8435 21.336 88.8115 21.576C88.7955 21.8 88.7555 22.064 88.6915 22.368L78.6355 22.392V19.872L87.1315 19.848L85.5475 20.904C85.5315 20.232 85.4275 19.68 85.2355 19.248C85.0435 18.8 84.7555 18.464 84.3715 18.24C84.0035 18 83.5475 17.88 83.0035 17.88C82.4275 17.88 81.9235 18.016 81.4915 18.288C81.0755 18.544 80.7475 18.912 80.5075 19.392C80.2835 19.872 80.1715 20.456 80.1715 21.144C80.1715 21.832 80.2915 22.424 80.5315 22.92C80.7875 23.4 81.1395 23.776 81.5875 24.048C82.0515 24.304 82.5955 24.432 83.2195 24.432C83.7955 24.432 84.3155 24.336 84.7795 24.144C85.2435 23.936 85.6515 23.632 86.0035 23.232L88.0195 25.248C87.4435 25.92 86.7475 26.424 85.9315 26.76C85.1155 27.096 84.2195 27.264 83.2435 27.264ZM89.9119 24.888L96.4159 18.168C96.8159 17.768 97.1359 17.4 97.3759 17.064C97.6159 16.728 97.7919 16.416 97.9039 16.128C98.0159 15.824 98.0719 15.52 98.0719 15.216C98.0719 14.56 97.8559 14.048 97.4239 13.68C97.0079 13.296 96.4559 13.104 95.7679 13.104C95.0959 13.104 94.4879 13.288 93.9439 13.656C93.4159 14.008 92.9039 14.592 92.4079 15.408L89.8879 13.224C90.5599 12.088 91.4159 11.232 92.4559 10.656C93.4959 10.08 94.6879 9.792 96.0319 9.792C97.1999 9.792 98.2079 10.008 99.0559 10.44C99.9199 10.872 100.584 11.488 101.048 12.288C101.528 13.088 101.768 14.024 101.768 15.096C101.768 15.768 101.68 16.392 101.504 16.968C101.328 17.528 101.04 18.088 100.64 18.648C100.256 19.192 99.7359 19.792 99.0799 20.448L94.5679 24.936L89.9119 24.888ZM89.9119 27V24.888L93.1039 23.784H102.104V27H89.9119ZM104.515 27V10.056H108.283V27H104.515ZM107.395 20.352V17.112H115.867V20.352H107.395ZM107.395 13.296V10.056H116.251V13.296H107.395ZM118.335 27V15.336H122.007V27H118.335ZM120.183 13.728C119.607 13.728 119.127 13.536 118.743 13.152C118.375 12.752 118.191 12.272 118.191 11.712C118.191 11.136 118.375 10.656 118.743 10.272C119.127 9.888 119.607 9.696 120.183 9.696C120.759 9.696 121.231 9.888 121.599 10.272C121.967 10.656 122.151 11.136 122.151 11.712C122.151 12.272 121.967 12.752 121.599 13.152C121.231 13.536 120.759 13.728 120.183 13.728ZM128.265 27L123.321 15.336H127.281L130.641 25.056H128.913L132.273 15.336H136.161L131.217 27H128.265ZM142.915 27.264C141.651 27.264 140.523 27.008 139.531 26.496C138.555 25.968 137.787 25.24 137.227 24.312C136.667 23.384 136.387 22.336 136.387 21.168C136.387 20 136.659 18.96 137.203 18.048C137.763 17.12 138.515 16.392 139.459 15.864C140.403 15.336 141.467 15.072 142.651 15.072C143.803 15.072 144.819 15.32 145.699 15.816C146.579 16.312 147.267 17 147.763 17.88C148.275 18.76 148.531 19.768 148.531 20.904C148.531 21.112 148.515 21.336 148.483 21.576C148.467 21.8 148.427 22.064 148.363 22.368L138.307 22.392V19.872L146.803 19.848L145.219 20.904C145.203 20.232 145.099 19.68 144.907 19.248C144.715 18.8 144.427 18.464 144.043 18.24C143.675 18 143.219 17.88 142.675 17.88C142.099 17.88 141.595 18.016 141.163 18.288C140.747 18.544 140.419 18.912 140.179 19.392C139.955 19.872 139.843 20.456 139.843 21.144C139.843 21.832 139.963 22.424 140.203 22.92C140.459 23.4 140.811 23.776 141.259 24.048C141.723 24.304 142.267 24.432 142.891 24.432C143.467 24.432 143.987 24.336 144.451 24.144C144.915 23.936 145.323 23.632 145.675 23.232L147.691 25.248C147.115 25.92 146.419 26.424 145.603 26.76C144.787 27.096 143.891 27.264 142.915 27.264Z" fill="#CC280C"/>
</svg>
