<svg width="36" height="52" viewBox="0 0 36 52" fill="none" xmlns="http://www.w3.org/2000/svg">
<path d="M15.3458 43.0665C15.2628 43.0665 15.0969 43.0665 15.014 42.9814C14.3504 42.8113 13.9356 42.1306 14.1015 41.45L19.4103 21.0308C19.5762 20.3501 20.2398 19.9247 20.9034 20.0949C21.567 20.2651 21.9817 20.9457 21.8158 21.6263L16.5071 42.0455C16.4241 42.7262 15.8435 43.0665 15.3458 43.0665Z" fill="#CC280C"/>
<path d="M23.8064 43.0665C21.3179 43.0665 19.2441 41.1096 19.2441 38.6423V35.9198C19.2441 33.5375 21.3179 31.4956 23.8064 31.4956C26.2948 31.4956 28.3686 33.4524 28.3686 35.9198V38.6423C28.3686 41.1096 26.2948 43.0665 23.8064 43.0665ZM23.8064 34.1331C22.6451 34.1331 21.7326 34.9839 21.7326 36.0048V38.7274C21.7326 39.7484 22.6451 40.5992 23.8064 40.5992C24.9676 40.5992 25.8801 39.7484 25.8801 38.7274V36.0048C25.8801 34.9839 24.9676 34.1331 23.8064 34.1331Z" fill="#CC280C"/>
<path d="M12.1936 31.5809C9.70508 31.5809 7.63135 29.624 7.63135 27.1567V24.4342C7.63135 22.0519 9.70508 20.01 12.1936 20.01C14.682 20.01 16.7558 21.9668 16.7558 24.4342V27.1567C16.7558 29.624 14.682 31.5809 12.1936 31.5809ZM12.1936 22.6475C11.0323 22.6475 10.1198 23.4983 10.1198 24.5192V27.2418C10.1198 28.2628 11.0323 29.1136 12.1936 29.1136C13.3549 29.1136 14.2673 28.2628 14.2673 27.2418V24.5192C14.2673 23.4983 13.3549 22.6475 12.1936 22.6475Z" fill="#CC280C"/>
<path d="M21.4009 8.09872C21.1521 8.09872 20.9033 8.01364 20.6544 7.84348C20.0738 7.41808 19.9908 6.65236 20.4056 6.0568L22.7281 2.90884L18.1659 3.41932C18.083 3.41932 18 3.41932 17.9171 3.41932L13.3549 2.90884L15.6774 6.0568C16.0922 6.65236 16.0092 7.41808 15.4286 7.84348C14.848 8.26888 14.1014 8.1838 13.6867 7.58824L9.62215 2.05804C9.29035 1.63264 9.29035 1.12216 9.5392 0.696764C9.78805 0.271364 10.2857 0.0161226 10.7834 0.0161226L18.083 0.866923L25.3825 0.0161226C25.8802 -0.0689573 26.3779 0.186284 26.6268 0.696764C26.8756 1.20724 26.8756 1.71772 26.5438 2.05804L22.4793 7.58824C22.1475 7.92856 21.7327 8.09872 21.4009 8.09872Z" fill="black"/>
<path d="M18 52C9.53917 52 0 52 0 39.323C0 27.4969 8.04608 9.45996 18 9.45996C27.9539 9.45996 36 27.4969 36 39.323C36 52 26.4608 52 18 52ZM18 12.0124C14.3502 12.0124 10.4516 15.5006 7.29954 21.4562C4.39631 26.9864 2.57143 33.963 2.57143 39.238C2.48848 48.9371 8.37788 49.4476 18 49.4476C27.6221 49.4476 33.5115 48.9371 33.5115 39.323C33.5115 33.963 31.6866 26.9864 28.7834 21.5413C25.5484 15.5006 21.6498 12.0124 18 12.0124Z" fill="black"/>
</svg>
