<svg width="127" height="30" viewBox="0 0 127 30" fill="none" xmlns="http://www.w3.org/2000/svg">
<rect y="0.120117" width="29.76" height="29.76" rx="8.50286" fill="#CC280C"/>
<path d="M17.769 7.43579H9.22719L8.29768 10.9059H16.2796C18.0543 10.9059 18.2525 11.1413 18.5937 11.8355C18.6313 11.912 18.6556 11.9956 18.656 12.0808C18.6603 13.158 17.5648 13.6818 16.2081 13.7581H11.0497C9.64395 13.9482 9.19125 14.1503 8.29768 15.2792C6.79669 17.3589 8.53623 19.5931 8.57197 19.6882C8.60771 19.7833 10.895 22.576 11.038 22.5641C11.1524 22.5546 12.3643 21.0469 12.956 20.2943C14.469 18.583 14.2784 17.8699 14.2784 17.0262C15.565 18.072 17.4592 21.0192 18.2455 22.4096H21.9862C21.9862 21.4114 19.1985 17.454 18.2455 16.6697C19.6195 16.5033 22.3532 15.3268 22.296 11.9517C22.2388 8.57666 19.2383 7.53482 17.769 7.43579Z" fill="#F8F8F8"/>
<path fill-rule="evenodd" clip-rule="evenodd" d="M12.7533 17.1926C12.7533 18.6899 11.014 19.8546 11.014 19.8546C11.014 19.8546 9.27464 18.6899 9.27464 17.1926C9.27464 16.7513 9.45789 16.3281 9.78408 16.0161C10.1103 15.7041 10.5527 15.5288 11.014 15.5288C11.4753 15.5288 11.9177 15.7041 12.2439 16.0161C12.57 16.3281 12.7533 16.7513 12.7533 17.1926ZM11.014 17.8581C11.3982 17.8581 11.7097 17.5601 11.7097 17.1926C11.7097 16.825 11.3982 16.5271 11.014 16.5271C10.6297 16.5271 10.3182 16.825 10.3182 17.1926C10.3182 17.5601 10.6297 17.8581 11.014 17.8581Z" fill="#CC280C"/>
<path d="M39.4899 10.2266V7.92512H42.4461C43.0677 7.92512 43.5439 7.7664 43.8746 7.44896C44.2185 7.13152 44.3904 6.70165 44.3904 6.15936C44.3904 5.65675 44.2251 5.24011 43.8944 4.90944C43.5637 4.57877 43.0876 4.41344 42.4659 4.41344H39.4899V1.99296H42.823C43.7489 1.99296 44.5624 2.17152 45.2634 2.52864C45.9644 2.87253 46.5133 3.35531 46.9101 3.97696C47.3069 4.59861 47.5053 5.31285 47.5053 6.11968C47.5053 6.93973 47.3069 7.66059 46.9101 8.28224C46.5133 8.89067 45.9578 9.36683 45.2435 9.71072C44.5293 10.0546 43.6894 10.2266 42.7239 10.2266H39.4899ZM37.1091 16V1.99296H40.224V16H37.1091ZM44.7277 16L40.3629 9.96864L43.2199 9.19488L48.4179 16H44.7277ZM49.7739 16V6.35776H52.8094V16H49.7739ZM51.3016 5.02848C50.8254 5.02848 50.4286 4.86976 50.1111 4.55232C49.8069 4.22165 49.6548 3.82485 49.6548 3.36192C49.6548 2.88576 49.8069 2.48896 50.1111 2.17152C50.4286 1.85408 50.8254 1.69536 51.3016 1.69536C51.7777 1.69536 52.1679 1.85408 52.4721 2.17152C52.7763 2.48896 52.9284 2.88576 52.9284 3.36192C52.9284 3.82485 52.7763 4.22165 52.4721 4.55232C52.1679 4.86976 51.7777 5.02848 51.3016 5.02848ZM59.0539 16.1984C58.1412 16.1984 57.3278 15.9802 56.6136 15.5437C55.9125 15.1072 55.357 14.512 54.947 13.7581C54.5502 13.0042 54.3518 12.1444 54.3518 11.1789C54.3518 10.2133 54.5502 9.3536 54.947 8.59968C55.357 7.84576 55.9125 7.25056 56.6136 6.81408C57.3278 6.3776 58.1412 6.15936 59.0539 6.15936C59.7152 6.15936 60.3104 6.28501 60.8395 6.53632C61.3818 6.78763 61.8249 7.13813 62.1688 7.58784C62.5259 8.02432 62.7243 8.52693 62.764 9.09568V13.1629C62.7243 13.7316 62.5325 14.2475 62.1886 14.7104C61.8447 15.1601 61.4016 15.5238 60.8593 15.8016C60.317 16.0661 59.7152 16.1984 59.0539 16.1984ZM59.5896 13.4605C60.026 13.4605 60.403 13.3679 60.7204 13.1827C61.0379 12.9843 61.2892 12.7132 61.4744 12.3693C61.6595 12.0254 61.7521 11.6286 61.7521 11.1789C61.7521 10.7292 61.6595 10.339 61.4744 10.0083C61.3024 9.66443 61.0511 9.39328 60.7204 9.19488C60.403 8.99648 60.0326 8.89728 59.6094 8.89728C59.1861 8.89728 58.8092 8.99648 58.4785 9.19488C58.1611 9.39328 57.9032 9.66443 57.7048 10.0083C57.5196 10.3522 57.427 10.7424 57.427 11.1789C57.427 11.6154 57.5196 12.0055 57.7048 12.3494C57.8899 12.6933 58.1478 12.9645 58.4785 13.1629C58.8092 13.3613 59.1795 13.4605 59.5896 13.4605ZM64.6091 16H61.6331V13.401L62.0894 11.0598L61.5736 8.71872V1.59616H64.6091V16ZM71.508 16.2182C70.4631 16.2182 69.5306 16.0066 68.7105 15.5834C67.9037 15.1469 67.2688 14.5451 66.8059 13.7779C66.343 13.0108 66.1115 12.1444 66.1115 11.1789C66.1115 10.2133 66.3363 9.3536 66.7861 8.59968C67.249 7.83253 67.8706 7.23072 68.651 6.79424C69.4314 6.35776 70.311 6.13952 71.2897 6.13952C72.2421 6.13952 73.0819 6.34453 73.8094 6.75456C74.5369 7.16459 75.1056 7.73333 75.5157 8.4608C75.9389 9.18827 76.1505 10.0215 76.1505 10.9606C76.1505 11.1326 76.1373 11.3178 76.1109 11.5162C76.0976 11.7013 76.0646 11.9196 76.0117 12.1709L67.6987 12.1907V10.1075L74.7221 10.0877L73.4126 10.9606C73.3994 10.4051 73.3134 9.9488 73.1547 9.59168C72.996 9.22133 72.7579 8.94357 72.4405 8.7584C72.1362 8.56 71.7593 8.4608 71.3096 8.4608C70.8334 8.4608 70.4168 8.57323 70.0597 8.79808C69.7158 9.00971 69.4446 9.31392 69.2462 9.71072C69.061 10.1075 68.9685 10.5903 68.9685 11.159C68.9685 11.7278 69.0677 12.2172 69.2661 12.6272C69.4777 13.024 69.7687 13.3348 70.139 13.5597C70.5226 13.7713 70.9723 13.8771 71.4881 13.8771C71.9643 13.8771 72.3942 13.7978 72.7777 13.639C73.1613 13.4671 73.4986 13.2158 73.7896 12.8851L75.4561 14.5517C74.98 15.1072 74.4046 15.5238 73.7301 15.8016C73.0555 16.0794 72.3148 16.2182 71.508 16.2182ZM77.0205 14.2541L82.3972 8.69888C82.7279 8.36821 82.9924 8.064 83.1908 7.78624C83.3892 7.50848 83.5347 7.25056 83.6273 7.01248C83.7199 6.76117 83.7661 6.50987 83.7661 6.25856C83.7661 5.71627 83.5876 5.29301 83.2305 4.9888C82.8866 4.67136 82.4303 4.51264 81.8615 4.51264C81.306 4.51264 80.8034 4.66475 80.3537 4.96896C79.9172 5.25995 79.4939 5.74272 79.0839 6.41728L77.0007 4.61184C77.5562 3.67275 78.2639 2.96512 79.1236 2.48896C79.9833 2.0128 80.9687 1.77472 82.0797 1.77472C83.0453 1.77472 83.8786 1.95328 84.5796 2.3104C85.2938 2.66752 85.8427 3.17675 86.2263 3.83808C86.6231 4.49941 86.8215 5.27317 86.8215 6.15936C86.8215 6.71488 86.7488 7.23072 86.6033 7.70688C86.4578 8.16981 86.2197 8.63275 85.889 9.09568C85.5716 9.54539 85.1417 10.0414 84.5994 10.5837L80.8695 14.2938L77.0205 14.2541ZM77.0205 16V14.2541L79.6593 13.3414H87.0993V16H77.0205ZM89.0923 16V1.99296H92.2071V16H89.0923ZM91.4731 10.5043V7.82592H98.4766V10.5043H91.4731ZM91.4731 4.67136V1.99296H98.794V4.67136H91.4731ZM100.517 16V6.35776H103.553V16H100.517ZM102.045 5.02848C101.569 5.02848 101.172 4.86976 100.854 4.55232C100.55 4.22165 100.398 3.82485 100.398 3.36192C100.398 2.88576 100.55 2.48896 100.854 2.17152C101.172 1.85408 101.569 1.69536 102.045 1.69536C102.521 1.69536 102.911 1.85408 103.215 2.17152C103.519 2.48896 103.672 2.88576 103.672 3.36192C103.672 3.82485 103.519 4.22165 103.215 4.55232C102.911 4.86976 102.521 5.02848 102.045 5.02848ZM108.726 16L104.639 6.35776H107.912L110.69 14.393H109.261L112.039 6.35776H115.253L111.166 16H108.726ZM120.837 16.2182C119.792 16.2182 118.859 16.0066 118.039 15.5834C117.232 15.1469 116.598 14.5451 116.135 13.7779C115.672 13.0108 115.44 12.1444 115.44 11.1789C115.44 10.2133 115.665 9.3536 116.115 8.59968C116.578 7.83253 117.199 7.23072 117.98 6.79424C118.76 6.35776 119.64 6.13952 120.618 6.13952C121.571 6.13952 122.411 6.34453 123.138 6.75456C123.866 7.16459 124.434 7.73333 124.844 8.4608C125.268 9.18827 125.479 10.0215 125.479 10.9606C125.479 11.1326 125.466 11.3178 125.44 11.5162C125.426 11.7013 125.393 11.9196 125.34 12.1709L117.027 12.1907V10.1075L124.051 10.0877L122.741 10.9606C122.728 10.4051 122.642 9.9488 122.483 9.59168C122.325 9.22133 122.087 8.94357 121.769 8.7584C121.465 8.56 121.088 8.4608 120.638 8.4608C120.162 8.4608 119.746 8.57323 119.388 8.79808C119.045 9.00971 118.773 9.31392 118.575 9.71072C118.39 10.1075 118.297 10.5903 118.297 11.159C118.297 11.7278 118.396 12.2172 118.595 12.6272C118.806 13.024 119.097 13.3348 119.468 13.5597C119.851 13.7713 120.301 13.8771 120.817 13.8771C121.293 13.8771 121.723 13.7978 122.106 13.639C122.49 13.4671 122.827 13.2158 123.118 12.8851L124.785 14.5517C124.309 15.1072 123.733 15.5238 123.059 15.8016C122.384 16.0794 121.644 16.2182 120.837 16.2182Z" fill="#CC280C"/>
<path d="M45.4685 20.1307H47.7997C48.0808 20.1307 48.3205 20.2051 48.5189 20.3539C48.7228 20.5027 48.8772 20.6956 48.9819 20.9325C49.0866 21.1695 49.1389 21.4203 49.1389 21.6848C49.1389 21.9493 49.0838 22.2139 48.9736 22.4784C48.8634 22.7374 48.7118 22.9744 48.5189 23.1893C48.326 23.4043 48.1028 23.5751 47.8493 23.7019C47.5958 23.8286 47.3258 23.892 47.0392 23.892H45.4107L44.9643 26H44.2203L45.4685 20.1307ZM47.1384 23.2307C47.3037 23.2307 47.4608 23.1893 47.6096 23.1067C47.7639 23.024 47.8962 22.9138 48.0064 22.776C48.1221 22.6327 48.2131 22.4729 48.2792 22.2965C48.3453 22.1202 48.3784 21.9383 48.3784 21.7509C48.3784 21.5636 48.3453 21.3982 48.2792 21.2549C48.2131 21.1116 48.1221 20.9987 48.0064 20.916C47.8907 20.8333 47.7584 20.792 47.6096 20.792H46.072L45.5512 23.2307H47.1384ZM50.8644 26.0827C50.4786 26.0827 50.159 26 49.9055 25.8347C49.652 25.6693 49.4618 25.4489 49.3351 25.1733C49.2138 24.8978 49.1532 24.5947 49.1532 24.264C49.1532 23.9003 49.2193 23.5586 49.3516 23.2389C49.4839 22.9193 49.6657 22.6382 49.8972 22.3957C50.1342 22.1477 50.407 21.9548 50.7156 21.8171C51.0242 21.6793 51.3521 21.6104 51.6993 21.6104C52.0851 21.6104 52.4048 21.6931 52.6583 21.8584C52.9173 22.0237 53.1102 22.2442 53.2369 22.5197C53.3637 22.7953 53.4271 23.1012 53.4271 23.4373C53.4271 23.7956 53.3609 24.1345 53.2287 24.4541C53.0964 24.7738 52.9118 25.0576 52.6748 25.3056C52.4378 25.5481 52.165 25.7382 51.8564 25.876C51.5478 26.0138 51.2171 26.0827 50.8644 26.0827ZM50.9884 25.4544C51.2033 25.4544 51.41 25.4076 51.6084 25.3139C51.8123 25.2202 51.9914 25.0879 52.1457 24.9171C52.3056 24.7407 52.4323 24.5368 52.526 24.3053C52.6197 24.0739 52.6665 23.8204 52.6665 23.5448C52.6665 23.2913 52.6252 23.0681 52.5425 22.8752C52.4599 22.6768 52.3386 22.5225 52.1788 22.4123C52.019 22.2965 51.8206 22.2387 51.5836 22.2387C51.3687 22.2387 51.162 22.2883 50.9636 22.3875C50.7652 22.4812 50.5861 22.6162 50.4263 22.7925C50.2665 22.9634 50.1397 23.1673 50.046 23.4043C49.9523 23.6357 49.9055 23.8892 49.9055 24.1648C49.9055 24.4128 49.9468 24.636 50.0295 24.8344C50.1121 25.0273 50.2334 25.1788 50.3932 25.2891C50.5585 25.3993 50.7569 25.4544 50.9884 25.4544ZM54.0022 21.6848H54.7545L55.4406 25.3635C55.6169 25.1375 55.785 24.9116 55.9449 24.6856C56.1047 24.4541 56.2535 24.2254 56.3913 23.9995L55.8126 21.6848H56.5649L56.8955 23.0819C57.0113 22.8504 57.1132 22.6189 57.2014 22.3875C57.2951 22.1505 57.3722 21.9163 57.4329 21.6848H58.1273C58.0225 22.0651 57.882 22.4481 57.7057 22.8339C57.5348 23.2141 57.3364 23.5944 57.1105 23.9747L57.4494 25.3635C57.6257 25.121 57.7938 24.8785 57.9537 24.636C58.1135 24.388 58.2623 24.14 58.4001 23.892C58.5378 23.644 58.6646 23.3988 58.7803 23.1563C58.9016 22.9083 59.0063 22.663 59.0945 22.4205C59.1881 22.1725 59.2653 21.9273 59.3259 21.6848H60.0203C59.8219 22.4012 59.5216 23.1204 59.1193 23.8424C58.7169 24.5588 58.2375 25.278 57.6809 26H56.8955L56.5897 24.7848C56.4519 24.9887 56.3058 25.1926 56.1515 25.3965C55.9972 25.5949 55.8374 25.7961 55.6721 26H54.8867L54.0022 21.6848ZM61.7546 26.0827C61.3964 26.0827 61.0905 26.0028 60.837 25.8429C60.5835 25.6776 60.3906 25.4572 60.2583 25.1816C60.126 24.906 60.0599 24.5974 60.0599 24.2557C60.0599 23.9085 60.1233 23.5779 60.25 23.2637C60.3823 22.9441 60.5669 22.6603 60.8039 22.4123C61.0409 22.1643 61.3164 21.9686 61.6306 21.8253C61.9502 21.682 62.2974 21.6104 62.6722 21.6104C62.9532 21.6104 63.2012 21.6545 63.4162 21.7427C63.6366 21.8308 63.8075 21.9604 63.9287 22.1312C64.05 22.302 64.1106 22.517 64.1106 22.776C64.1106 23.2114 63.9177 23.542 63.5319 23.768C63.1461 23.994 62.5537 24.1069 61.7546 24.1069C61.6058 24.1069 61.4349 24.1042 61.242 24.0987C61.0492 24.0876 60.826 24.0711 60.5724 24.0491L60.6716 23.5531C60.9141 23.5641 61.1208 23.5751 61.2916 23.5861C61.468 23.5972 61.6306 23.6027 61.7794 23.6027C62.1982 23.6027 62.5289 23.5668 62.7714 23.4952C63.0139 23.4236 63.1875 23.3244 63.2922 23.1976C63.4024 23.0708 63.4575 22.9276 63.4575 22.7677C63.4575 22.6244 63.4217 22.5087 63.35 22.4205C63.2839 22.3324 63.1875 22.2662 63.0607 22.2221C62.9395 22.178 62.7934 22.156 62.6226 22.156C62.347 22.156 62.0963 22.2139 61.8703 22.3296C61.6499 22.4453 61.457 22.6024 61.2916 22.8008C61.1318 22.9992 61.0078 23.2252 60.9196 23.4787C60.837 23.7267 60.7956 23.9857 60.7956 24.2557C60.7956 24.4817 60.8342 24.6939 60.9114 24.8923C60.9885 25.0852 61.107 25.2422 61.2668 25.3635C61.4267 25.4792 61.6278 25.5371 61.8703 25.5371C62.1238 25.5371 62.3718 25.4737 62.6143 25.3469C62.8568 25.2147 63.0469 25.0383 63.1847 24.8179L63.7716 24.9915C63.6394 25.2009 63.4658 25.3883 63.2508 25.5536C63.0359 25.7189 62.7989 25.8484 62.5399 25.9421C62.2864 26.0358 62.0246 26.0827 61.7546 26.0827ZM65.285 21.6848H65.9628L65.7479 22.6851C65.9573 22.3875 66.1943 22.145 66.4588 21.9576C66.7289 21.7702 66.9962 21.6765 67.2607 21.6765C67.3103 21.6765 67.3516 21.6793 67.3847 21.6848C67.4233 21.6848 67.4536 21.6876 67.4756 21.6931L67.3434 22.3213C67.0017 22.3268 66.6793 22.4205 66.3762 22.6024C66.0731 22.7788 65.8333 23.024 65.657 23.3381L65.0948 26H64.3674L65.285 21.6848ZM69.0444 26.0827C68.6862 26.0827 68.3803 26.0028 68.1268 25.8429C67.8733 25.6776 67.6804 25.4572 67.5482 25.1816C67.4159 24.906 67.3498 24.5974 67.3498 24.2557C67.3498 23.9085 67.4131 23.5779 67.5399 23.2637C67.6722 22.9441 67.8568 22.6603 68.0938 22.4123C68.3307 22.1643 68.6063 21.9686 68.9204 21.8253C69.2401 21.682 69.5873 21.6104 69.962 21.6104C70.2431 21.6104 70.4911 21.6545 70.706 21.7427C70.9265 21.8308 71.0973 21.9604 71.2186 22.1312C71.3398 22.302 71.4004 22.517 71.4004 22.776C71.4004 23.2114 71.2075 23.542 70.8218 23.768C70.436 23.994 69.8435 24.1069 69.0444 24.1069C68.8956 24.1069 68.7248 24.1042 68.5319 24.0987C68.339 24.0876 68.1158 24.0711 67.8623 24.0491L67.9615 23.5531C68.204 23.5641 68.4106 23.5751 68.5815 23.5861C68.7578 23.5972 68.9204 23.6027 69.0692 23.6027C69.4881 23.6027 69.8187 23.5668 70.0612 23.4952C70.3037 23.4236 70.4773 23.3244 70.582 23.1976C70.6922 23.0708 70.7474 22.9276 70.7474 22.7677C70.7474 22.6244 70.7115 22.5087 70.6399 22.4205C70.5738 22.3324 70.4773 22.2662 70.3506 22.2221C70.2293 22.178 70.0833 22.156 69.9124 22.156C69.6369 22.156 69.3861 22.2139 69.1602 22.3296C68.9397 22.4453 68.7468 22.6024 68.5815 22.8008C68.4217 22.9992 68.2977 23.2252 68.2095 23.4787C68.1268 23.7267 68.0855 23.9857 68.0855 24.2557C68.0855 24.4817 68.1241 24.6939 68.2012 24.8923C68.2784 25.0852 68.3969 25.2422 68.5567 25.3635C68.7165 25.4792 68.9177 25.5371 69.1602 25.5371C69.4137 25.5371 69.6617 25.4737 69.9042 25.3469C70.1466 25.2147 70.3368 25.0383 70.4746 24.8179L71.0615 24.9915C70.9292 25.2009 70.7556 25.3883 70.5407 25.5536C70.3258 25.7189 70.0888 25.8484 69.8298 25.9421C69.5762 26.0358 69.3145 26.0827 69.0444 26.0827ZM73.3353 26.0827C73.0157 26.0827 72.7401 26.0028 72.5087 25.8429C72.2772 25.6776 72.1008 25.4599 71.9796 25.1899C71.8584 24.9143 71.7977 24.614 71.7977 24.2888C71.7977 23.9416 71.8611 23.6082 71.9879 23.2885C72.1201 22.9689 72.2965 22.6851 72.5169 22.4371C72.7429 22.1836 72.9992 21.9824 73.2857 21.8336C73.5723 21.6848 73.8727 21.6104 74.1868 21.6104C74.5175 21.6104 74.793 21.7013 75.0135 21.8832C75.2339 22.0651 75.3882 22.2855 75.4764 22.5445L76.0303 19.9653H76.7577L75.6665 25.1072C75.661 25.1292 75.6555 25.1485 75.65 25.1651C75.65 25.1816 75.65 25.1981 75.65 25.2147C75.65 25.3139 75.7106 25.3662 75.8319 25.3717L75.6996 26C75.639 26.0055 75.5839 26.011 75.5343 26.0165C75.4902 26.0276 75.4488 26.0331 75.4103 26.0331C75.256 26.0331 75.1375 25.9972 75.0548 25.9256C74.9776 25.854 74.9391 25.7658 74.9391 25.6611C74.9391 25.628 74.9418 25.5922 74.9473 25.5536C74.9528 25.5095 74.9611 25.4572 74.9721 25.3965C74.9832 25.3359 74.9969 25.267 75.0135 25.1899C74.7985 25.4654 74.5368 25.6831 74.2281 25.8429C73.925 26.0028 73.6274 26.0827 73.3353 26.0827ZM73.6495 25.4544C73.7707 25.4544 73.9002 25.4296 74.038 25.38C74.1813 25.3304 74.3191 25.2615 74.4513 25.1733C74.5891 25.0852 74.7131 24.9832 74.8233 24.8675C74.9336 24.7462 75.0162 24.6195 75.0713 24.4872L75.3276 23.2472C75.3056 23.0598 75.2422 22.8917 75.1375 22.7429C75.0328 22.5886 74.9032 22.4674 74.7489 22.3792C74.6001 22.2855 74.4403 22.2387 74.2695 22.2387C74.038 22.2387 73.8203 22.2965 73.6164 22.4123C73.4125 22.5225 73.2306 22.6713 73.0708 22.8587C72.9165 23.046 72.7925 23.2555 72.6988 23.4869C72.6106 23.7129 72.5665 23.9416 72.5665 24.1731C72.5665 24.41 72.6106 24.625 72.6988 24.8179C72.787 25.0108 72.911 25.1651 73.0708 25.2808C73.2361 25.3965 73.429 25.4544 73.6495 25.4544ZM80.8457 26.0827C80.5096 26.0827 80.2285 26 80.0025 25.8347C79.7821 25.6638 79.625 25.4489 79.5313 25.1899L79.3577 26H78.7129L79.9943 19.9653H80.7217L80.1761 22.5445C80.4021 22.2635 80.6584 22.0375 80.9449 21.8667C81.237 21.6958 81.5429 21.6104 81.8625 21.6104C82.1822 21.6104 82.4467 21.6931 82.6561 21.8584C82.8711 22.0237 83.0309 22.2414 83.1356 22.5115C83.2458 22.776 83.3009 23.0626 83.3009 23.3712C83.3009 23.7349 83.232 24.0794 83.0943 24.4045C82.9565 24.7297 82.7691 25.019 82.5321 25.2725C82.3007 25.526 82.0389 25.7244 81.7468 25.8677C81.4547 26.011 81.1544 26.0827 80.8457 26.0827ZM80.8209 25.4544C81.0359 25.4544 81.2453 25.402 81.4492 25.2973C81.6531 25.1871 81.835 25.0411 81.9948 24.8592C82.1601 24.6718 82.2896 24.4624 82.3833 24.2309C82.4825 23.994 82.5321 23.7515 82.5321 23.5035C82.5321 23.283 82.4908 23.0764 82.4081 22.8835C82.331 22.6906 82.218 22.5363 82.0692 22.4205C81.9204 22.2993 81.7358 22.2387 81.5153 22.2387C81.328 22.2387 81.1406 22.2855 80.9532 22.3792C80.7713 22.4729 80.6005 22.5969 80.4407 22.7512C80.2864 22.9 80.1486 23.0653 80.0273 23.2472L79.7628 24.4955C79.7628 24.6718 79.8096 24.8344 79.9033 24.9832C80.0025 25.1265 80.132 25.2422 80.2919 25.3304C80.4517 25.4131 80.628 25.4544 80.8209 25.4544ZM83.1937 27.2648C83.4252 27.2317 83.6126 27.1876 83.7559 27.1325C83.9047 27.0829 84.0342 27.003 84.1444 26.8928C84.2546 26.7881 84.3731 26.642 84.4999 26.4547L84.7396 26.0909L83.9047 21.6848H84.6569L85.2521 25.3469L85.5332 24.884C85.7647 24.5037 85.9603 24.1703 86.1201 23.8837C86.2799 23.5972 86.415 23.3354 86.5252 23.0984C86.6409 22.8559 86.7374 22.6217 86.8145 22.3957C86.8917 22.1698 86.9633 21.9328 87.0295 21.6848H87.7487C87.677 21.9493 87.5971 22.1973 87.5089 22.4288C87.4207 22.6603 87.316 22.9028 87.1948 23.1563C87.0735 23.4098 86.9192 23.6964 86.7319 24.016C86.55 24.3301 86.3213 24.7076 86.0457 25.1485L85.3844 26.2149C85.197 26.518 85.0207 26.7716 84.8553 26.9755C84.69 27.1849 84.5247 27.353 84.3593 27.4797C84.1995 27.6065 84.0314 27.6974 83.8551 27.7525C83.6842 27.8132 83.4968 27.8462 83.2929 27.8517L83.1937 27.2648ZM90.9271 20.1389H91.6711L90.9767 23.3795L94.4901 20.1307H95.3002L92.5226 22.7181L94.1759 26H93.3575L91.9687 23.148L90.8031 24.2061L90.4229 26H89.6789L90.9271 20.1389ZM96.2826 26.0827C95.8969 26.0827 95.5772 26 95.3237 25.8347C95.0702 25.6693 94.8801 25.4489 94.7533 25.1733C94.6321 24.8978 94.5714 24.5947 94.5714 24.264C94.5714 23.9003 94.6376 23.5586 94.7698 23.2389C94.9021 22.9193 95.084 22.6382 95.3154 22.3957C95.5524 22.1477 95.8252 21.9548 96.1338 21.8171C96.4425 21.6793 96.7704 21.6104 97.1176 21.6104C97.5033 21.6104 97.823 21.6931 98.0765 21.8584C98.3355 22.0237 98.5284 22.2442 98.6552 22.5197C98.7819 22.7953 98.8453 23.1012 98.8453 23.4373C98.8453 23.7956 98.7792 24.1345 98.6469 24.4541C98.5146 24.7738 98.33 25.0576 98.093 25.3056C97.8561 25.5481 97.5833 25.7382 97.2746 25.876C96.966 26.0138 96.6353 26.0827 96.2826 26.0827ZM96.4066 25.4544C96.6216 25.4544 96.8282 25.4076 97.0266 25.3139C97.2305 25.2202 97.4097 25.0879 97.564 24.9171C97.7238 24.7407 97.8505 24.5368 97.9442 24.3053C98.0379 24.0739 98.0848 23.8204 98.0848 23.5448C98.0848 23.2913 98.0434 23.0681 97.9608 22.8752C97.8781 22.6768 97.7569 22.5225 97.597 22.4123C97.4372 22.2965 97.2388 22.2387 97.0018 22.2387C96.7869 22.2387 96.5802 22.2883 96.3818 22.3875C96.1834 22.4812 96.0043 22.6162 95.8445 22.7925C95.6847 22.9634 95.5579 23.1673 95.4642 23.4043C95.3705 23.6357 95.3237 23.8892 95.3237 24.1648C95.3237 24.4128 95.365 24.636 95.4477 24.8344C95.5304 25.0273 95.6516 25.1788 95.8114 25.2891C95.9768 25.3993 96.1752 25.4544 96.4066 25.4544ZM100.128 21.6848H100.789L100.591 22.6107C100.811 22.302 101.076 22.0596 101.384 21.8832C101.693 21.7013 102.007 21.6104 102.327 21.6104C102.542 21.6104 102.721 21.6517 102.864 21.7344C103.013 21.8171 103.126 21.9356 103.203 22.0899C103.28 22.2442 103.321 22.4343 103.327 22.6603C103.498 22.4288 103.677 22.2359 103.864 22.0816C104.052 21.9273 104.25 21.8116 104.459 21.7344C104.669 21.6517 104.881 21.6104 105.096 21.6104C105.333 21.6104 105.52 21.6545 105.658 21.7427C105.796 21.8308 105.895 21.9548 105.956 22.1147C106.022 22.269 106.055 22.4508 106.055 22.6603C106.055 22.776 106.047 22.8972 106.03 23.024C106.014 23.1508 105.991 23.283 105.964 23.4208L105.41 26H104.683L105.195 23.5861C105.245 23.3547 105.27 23.1535 105.27 22.9827C105.27 22.7402 105.217 22.5611 105.112 22.4453C105.013 22.3241 104.867 22.2635 104.674 22.2635C104.492 22.2635 104.311 22.3131 104.129 22.4123C103.947 22.506 103.776 22.6382 103.616 22.8091C103.462 22.9799 103.33 23.1783 103.219 23.4043L102.674 26H101.946L102.459 23.5861C102.486 23.4649 102.506 23.3547 102.517 23.2555C102.528 23.1563 102.533 23.0626 102.533 22.9744C102.533 22.7319 102.484 22.5528 102.384 22.4371C102.285 22.3213 102.139 22.2635 101.946 22.2635C101.676 22.2635 101.406 22.3682 101.136 22.5776C100.872 22.7815 100.657 23.0543 100.491 23.396L99.9375 26H99.2101L100.128 21.6848ZM107.748 26.0827C107.076 26.0827 106.739 25.7189 106.739 24.9915C106.739 24.8868 106.748 24.7765 106.764 24.6608C106.781 24.5396 106.803 24.41 106.83 24.2723L107.384 21.6848H108.103L107.583 24.1317C107.533 24.3522 107.508 24.5423 107.508 24.7021C107.508 25.2036 107.723 25.4544 108.153 25.4544C108.34 25.4544 108.528 25.4131 108.715 25.3304C108.903 25.2422 109.082 25.1182 109.253 24.9584C109.429 24.7986 109.58 24.6084 109.707 24.388L110.278 21.6848H111.005L110.278 25.1072C110.272 25.1292 110.267 25.1485 110.261 25.1651C110.261 25.1816 110.261 25.1981 110.261 25.2147C110.261 25.3139 110.322 25.3662 110.443 25.3717L110.311 26C110.25 26.0055 110.195 26.011 110.145 26.0165C110.101 26.0276 110.06 26.0331 110.021 26.0331C109.873 26.0331 109.76 26 109.682 25.9339C109.605 25.8677 109.567 25.7796 109.567 25.6693C109.567 25.6363 109.569 25.5977 109.575 25.5536C109.58 25.504 109.589 25.4406 109.6 25.3635C109.616 25.2863 109.636 25.1899 109.658 25.0741C109.41 25.3938 109.117 25.6418 108.781 25.8181C108.445 25.9945 108.101 26.0827 107.748 26.0827ZM111.602 25.3965C111.602 25.358 111.605 25.3194 111.611 25.2808C111.616 25.2367 111.622 25.1954 111.627 25.1568L112.247 22.2552H111.685L111.809 21.6848H112.363L112.669 20.2464H113.396L113.09 21.6848H114.008L113.884 22.2552H112.975L112.404 24.9336C112.399 24.9556 112.393 24.9777 112.388 24.9997C112.388 25.0163 112.388 25.0356 112.388 25.0576C112.388 25.1733 112.423 25.2588 112.495 25.3139C112.567 25.3635 112.655 25.3883 112.76 25.3883C112.853 25.3883 112.941 25.3772 113.024 25.3552C113.112 25.3276 113.189 25.3001 113.256 25.2725C113.322 25.245 113.371 25.2229 113.404 25.2064L113.446 25.7851C113.38 25.8292 113.291 25.8732 113.181 25.9173C113.071 25.9614 112.947 25.9945 112.809 26.0165C112.671 26.0441 112.528 26.0579 112.379 26.0579C112.159 26.0579 111.974 26.0055 111.825 25.9008C111.677 25.7906 111.602 25.6225 111.602 25.3965ZM115.827 26.0827C115.469 26.0827 115.163 26.0028 114.909 25.8429C114.656 25.6776 114.463 25.4572 114.331 25.1816C114.198 24.906 114.132 24.5974 114.132 24.2557C114.132 23.9085 114.196 23.5779 114.322 23.2637C114.455 22.9441 114.639 22.6603 114.876 22.4123C115.113 22.1643 115.389 21.9686 115.703 21.8253C116.023 21.682 116.37 21.6104 116.745 21.6104C117.026 21.6104 117.274 21.6545 117.489 21.7427C117.709 21.8308 117.88 21.9604 118.001 22.1312C118.122 22.302 118.183 22.517 118.183 22.776C118.183 23.2114 117.99 23.542 117.604 23.768C117.219 23.994 116.626 24.1069 115.827 24.1069C115.678 24.1069 115.507 24.1042 115.314 24.0987C115.122 24.0876 114.898 24.0711 114.645 24.0491L114.744 23.5531C114.987 23.5641 115.193 23.5751 115.364 23.5861C115.54 23.5972 115.703 23.6027 115.852 23.6027C116.271 23.6027 116.601 23.5668 116.844 23.4952C117.086 23.4236 117.26 23.3244 117.365 23.1976C117.475 23.0708 117.53 22.9276 117.53 22.7677C117.53 22.6244 117.494 22.5087 117.422 22.4205C117.356 22.3324 117.26 22.2662 117.133 22.2221C117.012 22.178 116.866 22.156 116.695 22.156C116.419 22.156 116.169 22.2139 115.943 22.3296C115.722 22.4453 115.529 22.6024 115.364 22.8008C115.204 22.9992 115.08 23.2252 114.992 23.4787C114.909 23.7267 114.868 23.9857 114.868 24.2557C114.868 24.4817 114.907 24.6939 114.984 24.8923C115.061 25.0852 115.179 25.2422 115.339 25.3635C115.499 25.4792 115.7 25.5371 115.943 25.5371C116.196 25.5371 116.444 25.4737 116.687 25.3469C116.929 25.2147 117.119 25.0383 117.257 24.8179L117.844 24.9915C117.712 25.2009 117.538 25.3883 117.323 25.5536C117.108 25.7189 116.871 25.8484 116.612 25.9421C116.359 26.0358 116.097 26.0827 115.827 26.0827Z" fill="#CC280C"/>
</svg>
