<svg width="43" height="43" viewBox="0 0 43 43" fill="none" xmlns="http://www.w3.org/2000/svg">
<path d="M26.8817 13.98C17.1573 13.3062 9.14592 11.8632 5.375 10.75V26.9851C5.375 30.5584 5.375 32.345 6.48508 33.8022C7.59517 35.2594 9.11821 35.6709 12.1643 36.494C17.0857 37.8237 22.2588 38.6158 26.8941 39.0687C31.698 39.538 34.1 39.7727 35.8625 38.1621C37.625 36.5514 37.625 33.9639 37.625 28.789V25.1812C37.625 20.1558 37.625 17.6431 36.179 16.0836C34.733 14.5241 32.1159 14.3427 26.8817 13.98Z" fill="#CC280C"/>
<path d="M26.875 26.875C26.875 28.3593 28.0782 29.5625 29.5625 29.5625C31.0468 29.5625 32.25 28.3593 32.25 26.875C32.25 25.3907 31.0468 24.1875 29.5625 24.1875C28.0782 24.1875 26.875 25.3907 26.875 26.875Z" fill="#010101"/>
<path d="M26.484 3.6715C17.6262 4.45053 11.3689 6.03301 7.87082 7.10813C6.36665 7.57042 5.375 9.03926 5.375 10.679L31.5795 14.3333C32.2562 11.7832 32.8686 7.14548 31.0442 4.84265C29.8878 3.38307 28.1691 3.5233 26.484 3.6715Z" fill="#010101"/>
<path d="M26.875 26.875C26.875 28.3593 28.0782 29.5625 29.5625 29.5625C31.0468 29.5625 32.25 28.3593 32.25 26.875C32.25 25.3907 31.0468 24.1875 29.5625 24.1875C28.0782 24.1875 26.875 25.3907 26.875 26.875Z" stroke="#010101" stroke-width="1.5"/>
<path d="M26.8817 13.9798C17.1573 13.3059 9.14592 11.863 5.375 10.7498V26.9848C5.375 30.5581 5.375 32.3448 6.48508 33.802C7.59516 35.2591 9.11821 35.6706 12.1643 36.4937C17.0857 37.8235 22.2588 38.6155 26.8941 39.0684C31.698 39.5378 34.1 39.7725 35.8625 38.1618C37.625 36.5511 37.625 33.9637 37.625 28.7887V25.1809C37.625 20.1555 37.625 17.6428 36.179 16.0833C34.733 14.5238 32.1159 14.3425 26.8817 13.9798Z" stroke="#010101" stroke-width="1.5" stroke-linecap="round" stroke-linejoin="round"/>
<path d="M31.5795 14.3333C32.2562 11.7832 32.8686 7.14548 31.0442 4.84265C29.8878 3.38307 28.1691 3.5233 26.484 3.6715C17.6262 4.45053 11.3689 6.03301 7.87082 7.10813C6.36665 7.57042 5.375 9.03926 5.375 10.679" stroke="#010101" stroke-width="1.5" stroke-linejoin="round"/>
</svg>
