<svg width="357" height="250" viewBox="0 0 357 250" fill="none" xmlns="http://www.w3.org/2000/svg">
<g clip-path="url(#clip0_993_44595)">
<path d="M172.505 145.057C65.654 134.976 -11.6715 55.0205 3.85907 140.443C10.9531 179.449 31.7442 207.247 64.6092 224.686C67.8059 233.634 82.896 240.069 116.575 243.652C161.937 248.477 201.241 248.922 234.392 243.958C236.544 243.728 238.709 243.485 240.887 243.228C267.958 240.052 282.569 235.077 288.405 228.47C317.796 214.676 338.978 192.882 351.781 161.49C384.319 81.7019 261.443 153.452 172.505 145.061V145.057Z" fill="#F8F8F8" fill-opacity="0.6"/>
<mask id="mask0_993_44595" style="mask-type:luminance" maskUnits="userSpaceOnUse" x="0" y="0" width="360" height="251">
<path d="M114.602 245.62C245.206 261.138 322.615 240.263 349.808 163.457C406.72 2.71581 189.478 -30.5099 62.7162 27.4673C-41.1939 74.9902 -7.98928 231.054 114.602 245.62Z" fill="white"/>
</mask>
<g mask="url(#mask0_993_44595)">
<path d="M226.75 115.904L218.019 174.624C217.991 174.682 202.573 179.477 201.596 179.565C201.491 179.481 199.003 168.435 198.524 159.495C198.541 159.478 198.524 159.454 198.533 159.424C197.783 145.387 198.306 126.429 203.156 112.896C203.584 111.586 222.806 115.283 226.754 115.904" fill="#7A5334"/>
<path d="M287.774 196.484H224.138C224.138 196.484 173.394 206.15 166.14 248.84C166.131 248.879 291.668 246.814 291.681 246.781C299.052 225.481 287.77 196.484 287.77 196.484H287.774Z" fill="#4A0B00"/>
<path d="M208.185 165.169C203.202 165.585 199.489 169.96 199.904 174.944C200.315 179.928 204.686 183.633 209.678 183.221C214.663 182.806 218.367 178.434 217.96 173.451C217.55 168.462 213.17 164.758 208.181 165.169" fill="#7A5334"/>
<path d="M309.386 111.869C308.978 110.56 289.195 115.515 285.243 116.081L287.907 116.647L288.46 165.677C288.489 165.744 306.944 183.494 307.921 183.594C308.027 183.511 312.008 175.254 313.245 157.664C314.223 143.639 314.017 125.487 309.382 111.869H309.386Z" fill="#7A5334"/>
<path d="M313.118 119.961C307.869 106.118 302.521 100.487 299.126 98.1973V98.1806C295.628 95.3027 290.627 93.0667 285.459 91.3509C274.451 87.6003 262.448 86.2705 262.448 86.2705C262.448 86.2705 256.709 87.0508 253.005 87.3612C248.855 87.185 243.645 86.6606 243.645 86.6606C243.645 86.6606 226.647 88.6491 215.127 95.097C212.139 96.192 206.854 98.8562 202.763 104.901C196.731 113.82 197.758 139.826 197.758 139.826L219.095 140.615C221.692 160.986 222.732 191.313 223.676 196.293L252.351 196.368V196.381H287.632C288.576 191.38 288.89 160.672 291.223 140.25L315.102 135.572L313.122 119.966L313.118 119.961Z" fill="#010101"/>
<g style="mix-blend-mode:multiply" opacity="0.25">
<path d="M293.584 120.528C292.892 120.561 288.717 167.199 288.717 167.199C288.717 167.199 303.044 168.444 303.828 156.053C305.318 132.517 298.983 120.247 293.584 120.528Z" fill="#904060"/>
</g>
<path d="M305.516 174.531C301.756 171.23 296.035 171.594 292.729 175.358C289.419 179.112 289.906 186.052 294.306 188.43C299.777 191.387 302.726 191.471 306.036 187.716L307.789 183.757C308.587 179.008 309.274 177.841 305.52 174.535L305.516 174.531Z" fill="#7A5334"/>
<path d="M239.429 88.3802C239.429 88.3802 239.534 89.6597 240.121 91.3377C241.15 94.2324 243.645 98.3018 249.586 98.7418C249.942 98.7418 250.236 98.7842 250.555 98.7211C250.583 98.7349 250.611 98.728 250.638 98.7004C250.681 98.7211 250.701 98.7004 250.701 98.7004H250.723C261.572 99.1196 264.781 93.578 265.536 89.1102C267.361 78.1565 264.445 54.0679 264.445 54.0679L239.581 69.1747L239.475 83.023L239.434 88.3718L239.429 88.3802Z" fill="#7A5334"/>
<g style="mix-blend-mode:multiply" opacity="0.2">
<path d="M218.364 127.542L223.956 194.698L232.221 212.326C232.221 212.326 257.007 225.31 258.613 207.031C261.08 178.966 218.364 127.542 218.364 127.542Z" fill="#904060"/>
</g>
<path opacity="0.25" d="M242.542 75.1062C242.937 75.2279 251.108 88.8747 265.754 87.0415L265.821 71.5654L265.032 60.7251L242.542 75.1062Z" fill="#904060"/>
<path d="M261.762 37.1943C253.544 26.354 239.032 31.2499 236.058 37.5468C233.004 44.02 234.644 56.0895 235.643 61.6733C236.41 70.1894 238.693 76.5787 246.206 77.5813C247.545 77.7575 248.991 77.7449 249.881 77.6777L250.041 78.0637C250.951 78.135 251.908 78.1141 253.267 77.9128C260.23 76.8849 263.209 68.3771 264.359 61.4592L265.038 61.3838C265.038 61.3838 268.672 46.3147 261.762 37.1986V37.1943Z" fill="#7A5334"/>
<path d="M242.234 65.0762C244.227 65.0133 255.671 65.0804 255.671 65.0804C255.428 67.5178 251.988 69.5777 248.778 69.6741C245.767 69.7664 242.318 67.2829 242.234 65.0762Z" fill="white"/>
<g style="mix-blend-mode:multiply" opacity="0.25">
<path d="M246.203 50.5344C246.203 50.5344 245.918 60.93 246.01 61.1061C246.518 61.941 250.31 62.0753 250.31 62.0753C250.31 62.0753 245.397 65.8132 241.408 63.0401C237.393 60.263 235.581 48.764 246.203 50.5344Z" fill="#904060"/>
</g>
<path d="M258.327 53.7585C258.327 53.7585 258.012 54.2954 257.085 54.5723C256.363 54.7946 254.266 55.0044 253.221 53.8382C253.205 53.8256 253.746 53.0873 255.177 52.9068C256.523 52.7348 257.841 52.9404 258.327 53.7626V53.7585Z" fill="#022326"/>
<path d="M243.793 54.1853C243.793 54.1853 243.331 54.7223 242.476 55.0076C241.46 55.3643 239.807 55.2048 238.674 54.2525C238.646 54.2315 239.669 53.2163 241.15 53.2792C241.695 53.296 242.933 53.2456 243.789 54.1812L243.793 54.1853Z" fill="#022326"/>
<path d="M256.178 47.704C256.178 47.704 262.365 47.5404 262.365 54.0722C262.365 59.1232 257.796 61.225 254.977 60.4699C248.315 58.6911 249.511 47.9683 256.182 47.7081L256.178 47.704Z" stroke="#022326" stroke-width="1.04879" stroke-miterlimit="10"/>
<path d="M240.182 47.704C240.182 47.704 246.37 47.5404 246.37 54.0722C246.37 59.1232 241.802 61.225 238.983 60.4699C232.321 58.6911 233.517 47.9683 240.182 47.7081V47.704Z" stroke="#022326" stroke-width="1.04879" stroke-miterlimit="10"/>
<path d="M250.229 53.6826H246.209" stroke="#022326" stroke-width="1.04879" stroke-miterlimit="10"/>
<path d="M262.863 40.2658C259.364 35.1896 244.388 33.8387 239.215 39.3051C235.33 43.408 234.751 56.4256 234.751 56.4256C234.751 56.4256 227.862 28.0242 250.101 27.1139C272.525 26.1952 270.397 51.3326 270.204 51.7227C270.107 51.9199 267.004 69.0614 265.745 67.0226C264.52 65.0383 265.044 43.4374 262.859 40.27L262.863 40.2658Z" fill="#26214C"/>
<path d="M154.247 138.433C156.555 139.868 159.093 141.786 160.725 143.014C162.768 144.475 163.699 145.121 163.972 144.835C164.367 144.311 163.305 143.48 162.327 142.368C160.989 140.972 161.039 139.692 161.942 138.79C162.621 139.528 163.766 140.859 165.105 141.957C165.994 142.65 166.761 143.938 167.416 144.592C167.697 144.881 169.61 146.631 170.261 147.084C182.812 155.843 204.565 161.436 207.861 162.518C212.774 164.141 214.482 166.885 214.482 166.885L212.066 182.793C211.843 183.02 205.319 184.559 198.402 181.329C180.865 173.153 173.311 164.897 169.724 161.645C168.419 160.542 167.991 160.022 167.177 159.409C163.956 156.833 159.794 155.311 156.408 152.5C154.595 150.973 151.948 149.03 150.837 147.772C150.597 147.269 151.294 146.748 152.011 147.184C153.404 148.049 155.397 149.395 156.161 149.894C156.375 150.075 156.492 149.827 156.471 149.643C156.404 149.438 153.493 147.398 151.529 145.62C150.367 144.559 149.54 143.724 150.069 143.137C150.573 142.541 152.657 144.185 154.365 145.57C155.582 146.538 156.656 147.449 156.819 147.394C157.1 147.42 157.125 147.08 156.886 146.875C156.093 146.022 154.394 144.638 152.717 143.187C152.574 143.048 152.418 142.901 152.259 142.78C151.667 142.226 151.345 141.81 151.243 141.441C151.181 141.194 151.219 140.976 151.323 140.736C152.532 139.273 156.404 144.001 158.422 145.071C158.627 145.162 158.913 144.957 158.677 144.706C158.132 143.958 154.223 141.231 152.817 139.751C152.028 138.887 152.846 137.452 154.247 138.426V138.433Z" fill="#7A5334"/>
<path d="M264.425 35.383C254.759 43.4378 245.899 45.0487 240.26 45.0487C240.26 45.0487 243.482 45.8542 243.482 40.2159C243.482 40.2159 240.247 41.6172 237.437 44.9439C234.622 48.2706 234.802 42.4435 236.729 38.9154C238.65 35.3831 244.292 32.1611 249.93 32.1611C255.568 32.1611 264.429 35.383 264.429 35.383H264.425Z" fill="#26214C"/>
<path d="M124.816 142.835L111.694 146.061C110.794 146.282 110.243 147.19 110.465 148.091L116.549 172.844C116.771 173.743 117.679 174.294 118.58 174.073L131.702 170.847C132.602 170.626 133.151 169.716 132.93 168.817L126.846 144.064C126.624 143.164 125.716 142.614 124.816 142.835Z" fill="white"/>
<path d="M135.266 171.453L122.664 172.657C121.51 172.767 120.461 171.885 120.335 170.694L117.789 146.35C117.663 145.158 118.507 144.096 119.665 143.984L132.266 142.78C133.42 142.67 134.469 143.552 134.595 144.743L137.141 169.087C137.268 170.279 136.423 171.34 135.266 171.453Z" fill="#E5E4E4"/>
<path d="M138.394 174.499L125.725 174.041C124.562 174 123.631 172.989 123.656 171.793L124.135 147.356C124.159 146.161 125.129 145.217 126.291 145.258L138.96 145.716C140.123 145.758 141.054 146.769 141.028 147.964L140.55 172.401C140.525 173.597 139.555 174.541 138.394 174.499Z" fill="white"/>
<path d="M76.0325 63.7246C76.2045 63.2045 75.6506 61.841 75.4073 61.4509C74.8997 60.637 74.2788 59.9826 73.574 59.4582C73.36 59.2148 73.1251 59.0176 72.8734 58.8624C69.2697 54.3148 61.6557 48.685 49.9344 59.3365C47.2327 59.6176 44.7826 61.0649 43.9394 63.3639C43.6416 64.0435 43.3435 64.7902 43.3352 65.5747L43.2933 65.7341L44.2246 73.1596C44.3295 74.1749 44.4637 75.3746 44.6441 76.6835C44.1323 87.1421 45.5294 98.2928 45.5294 98.8638L50.2195 93.1789C52.0654 95.5954 54.4775 97.2776 57.6532 97.5378C58.9412 97.6552 60.2835 97.6132 61.2736 97.5168V97.5335C61.4875 97.5335 61.6344 97.4664 61.7812 97.4664C62.2217 97.4664 62.7295 97.4454 63.279 97.4034C63.9545 97.3447 64.6929 97.2566 65.3893 97.1098C66.2955 96.963 67.1008 96.6651 67.8601 96.2624C68.0111 96.1994 68.2209 96.0945 68.3677 95.9478C76.6028 94.5927 75.252 88.0063 75.4827 82.2841C75.5037 81.7555 75.5497 81.2269 75.6085 80.6983C76.0322 77.0863 76.0324 73.7511 75.9653 71.3221L76.028 66.1494C76.028 66.1494 76.1583 65.0041 76.0157 63.7246H76.0325Z" fill="#7A5334"/>
<path d="M127.647 210.935C128.193 210.825 128.188 209.911 127.382 209.626C125.818 209.042 123.532 208.288 122.633 208.011C122.361 207.918 122.486 207.679 122.642 207.591C122.851 207.495 126.292 208.56 128.93 209.018C130.491 209.277 131.674 209.416 131.8 208.627C132.06 207.335 124.261 206.315 124.207 205.876C124.047 205.682 124.257 205.451 124.567 205.506C125.755 205.586 127.911 206.106 130.097 206.518C131.942 206.916 132.606 206.752 132.895 206.11C133.386 204.231 127.186 204.109 125.066 203.115C124.848 203.026 124.853 202.678 125.201 202.7C126.141 202.674 130.709 204.092 132.781 204.281C133.973 204.386 134.577 202.788 132.953 202.3C130.352 201.349 127.273 200.522 125.26 199.977C122.839 199.264 121.749 198.928 121.836 198.512C121.967 197.879 123.322 198.198 124.781 198.303C126.732 198.484 127.739 197.636 127.873 196.314C126.879 196.269 125.101 196.172 123.405 195.782C122.26 195.517 120.796 195.714 119.869 195.605C117.352 195.29 106.796 190.357 105.845 190.27C105.845 190.27 102.602 200.891 101.712 203.413C101.712 203.413 106.826 205.237 108.454 205.611C112.481 206.585 116.077 208.489 120.405 209.45C122.747 209.953 125.952 210.842 127.651 210.943L127.647 210.935Z" fill="#7A5334"/>
<path d="M62.7123 168.622L55.3286 185.345C55.3286 185.345 57.0445 187.74 70.339 193.365C94.5451 203.64 107.399 204.906 107.399 204.906L112.043 193.403L62.7123 168.622Z" fill="#7A5334"/>
<g style="mix-blend-mode:multiply" opacity="0.25">
<path d="M65.708 172.169C65.708 172.169 54.9891 181.353 38.1539 172.169C21.3312 162.99 33.5687 138.507 33.5687 138.507L65.708 172.169Z" fill="#904060"/>
</g>
<path d="M92.3996 177.926L92.4414 196.745C90.5829 196.767 105.094 245.699 103.324 245.619C84.798 244.814 35.4251 245.594 34.0491 245.619C34.6615 245.619 7.58588 175.417 7.58588 175.417C6.94822 174.486 -5.21359 134.259 8.40812 125.62C11.0468 123.951 13.7906 122.432 16.4965 121.077C21.5853 118.502 26.5522 116.454 30.4537 114.952C34.1328 113.514 36.8934 112.544 38.0177 111.995C39.0539 111.487 39.6453 111.215 39.6453 111.215C39.6453 111.215 46.1102 110.962 54.1314 111.554C57.5756 111.81 61.3091 112.213 64.9463 112.884C71.0502 113.983 76.8524 115.8 80.5106 118.711C82.8556 120.595 84.6301 123.104 86.002 125.872C91.1117 135.924 92.3996 177.926 92.3996 177.926Z" fill="#261613"/>
<path d="M139.941 171.986C140.403 171.504 139.811 170.647 138.821 170.891C136.917 171.394 134.16 172.196 133.095 172.527C132.764 172.615 132.73 172.3 132.823 172.103C132.974 171.876 137.056 170.61 139.958 169.285C141.67 168.499 142.925 167.837 142.526 166.969C141.931 165.567 133.603 169.791 133.246 169.406C132.978 169.322 133.024 168.965 133.359 168.81C134.588 168.088 137.038 167.157 139.476 166.091C141.544 165.231 142.098 164.644 141.968 163.805C141.213 161.687 135.025 165.714 132.289 166.184C132.017 166.209 131.798 165.89 132.151 165.664C133.058 165.022 138.482 163.327 140.643 162.135C141.892 161.443 141.439 159.488 139.513 160.105C136.338 160.944 132.76 162.19 130.427 163.012C127.566 163.944 126.265 164.334 126.085 163.885C125.804 163.185 127.331 162.597 128.845 161.707C130.884 160.575 131.329 159.103 130.595 157.739C129.584 158.351 127.767 159.455 125.846 160.21C124.554 160.7 123.228 161.871 122.238 162.4C119.566 163.775 105.939 166.054 104.932 166.636C104.932 166.636 108.696 179.013 109.472 182.037C109.472 182.037 115.702 180.384 117.548 179.675C122.15 177.897 126.945 177.33 131.824 175.379C134.467 174.301 138.197 173.009 139.941 171.978V171.986Z" fill="#7A5334"/>
<path d="M70.2991 173.127C70.2991 173.127 69.162 194.124 72.0188 193.323C100.911 185.213 116.069 179.701 116.069 179.701L112.15 164.909L70.2991 173.127Z" fill="#7A5334"/>
<path d="M68.5882 92.1653L68.441 93.2225L68.3575 93.6882L67.9085 95.9493V96.0543L67.8667 96.264L65.0391 112.315L64.9759 112.63V112.671L64.9301 112.881L64.699 114.404C64.699 114.404 62.3123 116.598 56.9088 116.958C56.5942 117.001 56.2334 117.001 55.9146 117.001C55.6209 117.001 55.3228 117.021 55.0501 117.021C44.4489 117.256 37.9467 113.959 37.9467 112.928V112.738C37.9467 112.524 37.9675 112.273 38.0052 111.996C38.6219 106.508 43.2452 91.3431 44.638 85.4111C44.8058 84.4798 46.899 84.5889 46.899 84.5889L60.8353 89.4679L61.3429 89.6566L63.3483 90.353L68.5882 92.1695V92.1653Z" fill="#7A5334"/>
<g style="mix-blend-mode:multiply" opacity="0.28">
<path d="M76.1282 66.1665L76.011 71.3517C76.0194 73.8017 75.9691 77.141 75.5202 80.7237C72.3822 80.8621 69.5208 79.1673 69.5208 79.1673C69.5208 79.1673 73.695 78.4122 74.1523 77.3717C74.2487 77.1662 72.7134 66.9971 72.7134 66.9971C73.9971 66.2713 75.1046 66.0196 76.124 66.1622L76.1282 66.1665Z" fill="#904060"/>
</g>
<path d="M66.0905 69.9934C66.0905 69.9934 64.3578 68.1727 60.6786 69.792C60.6408 69.8089 60.9933 71.1555 62.6 71.3191C63.9676 71.4576 65.5158 70.9709 66.0905 69.9934Z" fill="#03262B"/>
<path d="M77.3051 70.5719C77.3051 71.2096 76.789 71.7298 76.1514 71.7298C75.5137 71.7298 74.3136 70.7984 74.3136 70.4628C74.3136 70.1272 75.5137 69.4141 76.1514 69.4141C76.789 69.4141 77.3051 69.9301 77.3051 70.5719Z" fill="#03262B"/>
<path d="M44.1778 79.2684C44.1778 79.2684 48.9017 61.0447 61.4955 58.5863C74.0853 56.1279 80.441 58.0367 80.441 58.0367C80.441 58.0367 92.5229 42.1454 74.7185 38.9654C56.9184 35.7897 42.0425 40.3037 41.623 60.6C41.3041 75.8662 44.1778 79.2727 44.1778 79.2727V79.2684Z" fill="#7793AA"/>
<path d="M73.8768 54.3196C73.8768 60.8137 68.608 66.0787 62.1181 66.0787C55.6281 66.0787 50.3589 60.8137 50.3589 54.3196C50.3589 47.8254 55.624 42.5605 62.1181 42.5605C68.6122 42.5605 73.8768 47.8254 73.8768 54.3196Z" fill="#7793AA"/>
<path d="M92.6473 53.6035C92.6473 60.7269 86.8746 66.4995 79.7512 66.4995C72.6278 66.4995 66.8552 60.7269 66.8552 53.6035C66.8552 46.4801 72.6278 40.7075 79.7512 40.7075C86.8746 40.7075 92.6473 46.4843 92.6473 53.6035Z" fill="#7793AA"/>
<g style="mix-blend-mode:multiply" opacity="0.37">
<path d="M75.8364 80.821C75.6015 86.5474 76.621 94.5979 68.3859 95.9487C68.239 96.0956 62.6973 96.771 56.9331 93.5324C54.1098 91.9466 50.028 85.3433 50.028 85.3433L52.6876 80.0239H67.056L75.8364 80.821Z" fill="#185A6C"/>
</g>
<path d="M62.9645 82.7289L73.7752 82.624C73.7752 82.624 74.4253 86.2655 68.4681 85.8333C62.511 85.3928 62.9645 82.7331 62.9645 82.7331V82.7289Z" fill="white"/>
<g style="mix-blend-mode:multiply" opacity="0.28">
<path d="M86.1651 125.872C80.8415 126.825 74.1924 127.37 66.6285 126.695C60.0001 126.103 56.6814 122.093 55.2258 117.021C54.7223 115.292 54.4413 113.43 54.2946 111.55C53.703 103.211 56.174 94.2955 56.5138 93.1377C56.7235 93.3055 56.9124 93.4313 57.1054 93.5361C61.9424 96.2588 66.6283 96.2169 68.0882 96.049L68.0424 96.2588L65.2106 112.31L65.1516 112.624V112.667L65.1098 112.876C71.2138 113.975 77.0156 115.792 80.6696 118.703C83.0189 120.587 84.7891 123.095 86.1651 125.864V125.872Z" fill="#904060"/>
</g>
<path d="M39.7506 103.559L56.8709 114.932L60.2147 126.296L32.7532 113.593L39.7506 103.559Z" fill="#010101"/>
<path d="M66.0891 107.792L68.3923 113.779L65.5561 121.842L61.3232 114.71L66.0891 107.792Z" fill="#010101"/>
<path d="M63.9966 172.409L76.0282 170.404L85.1613 191.791L68.2295 195.579L63.9966 172.409Z" fill="#010101"/>
<path d="M34.0479 245.619C71.9051 230.315 87.6998 218.703 104.128 219.038C143.596 219.844 150.845 249.646 150.845 249.646L34.0479 245.619Z" fill="#4A0B00"/>
<path d="M243.987 111.509L231.53 116.746C230.676 117.105 230.275 118.089 230.634 118.944L240.511 142.441C240.87 143.295 241.854 143.697 242.708 143.338L255.165 138.102C256.019 137.742 256.42 136.759 256.061 135.905L246.184 112.406C245.824 111.552 244.841 111.15 243.987 111.509Z" fill="white"/>
<path d="M258.838 138.307L246.579 141.466C245.455 141.756 244.284 141.047 243.975 139.889L237.657 116.24C237.346 115.083 238.013 113.9 239.137 113.61L251.396 110.451C252.52 110.162 253.691 110.871 254.001 112.029L260.318 135.677C260.629 136.835 259.962 138.018 258.838 138.307Z" fill="#E5E4E4"/>
<path d="M262.398 140.829L249.813 142.355C248.659 142.494 247.581 141.642 247.417 140.459L244.073 116.249C243.909 115.066 244.719 113.984 245.873 113.841L258.458 112.314C259.612 112.176 260.69 113.027 260.853 114.211L264.198 138.42C264.361 139.604 263.552 140.686 262.398 140.829Z" fill="white"/>
<path d="M294.121 167.693C291.197 165.814 273.573 153.136 263.588 141.541C263.068 140.941 261.646 138.772 261.448 138.424C260.974 137.618 260.559 136.192 259.866 135.298C258.844 133.901 258.055 132.328 257.593 131.443C256.486 132.093 256.121 133.322 257.077 135.009C257.748 136.322 258.567 137.4 258.051 137.807C257.719 138.017 256.968 137.153 255.365 135.235C254.081 133.646 252.102 131.166 250.231 129.186C249.107 127.89 247.961 129.089 248.506 130.118C249.509 131.905 252.614 135.513 252.962 136.376C253.117 136.687 252.798 136.804 252.622 136.666C250.926 135.122 248.347 129.584 246.816 130.705C246.652 130.906 246.568 131.112 246.56 131.376C246.568 131.753 246.782 132.231 247.214 132.916C247.335 133.075 247.445 133.255 247.566 133.423C248.817 135.239 250.125 137.011 250.675 138.033C250.868 138.286 250.747 138.604 250.486 138.512C250.315 138.524 249.501 137.379 248.569 136.138C247.253 134.371 245.637 132.261 245.008 132.706C244.345 133.147 244.941 134.165 245.809 135.475C247.26 137.69 249.589 140.379 249.597 140.593C249.563 140.773 249.396 140.996 249.237 140.769C248.619 140.085 247.017 138.298 245.885 137.111C245.306 136.511 244.496 136.838 244.601 137.392C245.364 138.893 247.453 141.428 248.825 143.353C251.41 146.919 255.06 149.423 257.539 152.721C258.176 153.522 258.47 154.123 259.46 155.515C262.128 159.559 268.354 170.651 282.399 183.958C285.512 186.908 296.39 192.193 302.779 190.234L301.705 174.326C301.705 174.326 298.475 170.488 294.121 167.698V167.693Z" fill="#7A5334"/>
</g>
</g>
<defs>
<clipPath id="clip0_993_44595">
<rect width="357" height="250" fill="white"/>
</clipPath>
</defs>
</svg>
