<svg width="43" height="43" viewBox="0 0 43 43" fill="none" xmlns="http://www.w3.org/2000/svg">
<path fill-rule="evenodd" clip-rule="evenodd" d="M3.58329 40.9844C2.59378 40.9844 1.79163 40.1822 1.79163 39.1927L1.79163 21.276C1.79163 20.2865 2.59378 19.4844 3.58329 19.4844C4.5728 19.4844 5.37496 20.2865 5.37496 21.276L5.37496 39.1927C5.37496 40.1822 4.5728 40.9844 3.58329 40.9844Z" fill="#010101"/>
<path fill-rule="evenodd" clip-rule="evenodd" d="M39.4167 40.9844C38.4272 40.9844 37.625 40.1822 37.625 39.1927L37.625 21.276C37.625 20.2865 38.4272 19.4844 39.4167 19.4844C40.4062 19.4844 41.2083 20.2865 41.2083 21.276L41.2083 39.1927C41.2083 40.1822 40.4062 40.9844 39.4167 40.9844Z" fill="#010101"/>
<path fill-rule="evenodd" clip-rule="evenodd" d="M21.5 40.9844C20.5105 40.9844 19.7084 40.1822 19.7084 39.1927V37.401C19.7084 36.4115 20.5105 35.6094 21.5 35.6094C22.4895 35.6094 23.2917 36.4115 23.2917 37.401V39.1927C23.2917 40.1822 22.4895 40.9844 21.5 40.9844Z" fill="#010101"/>
<path fill-rule="evenodd" clip-rule="evenodd" d="M21.5 32.9219C20.5105 32.9219 19.7084 32.1197 19.7084 31.1302V29.3385C19.7084 28.349 20.5105 27.5469 21.5 27.5469C22.4895 27.5469 23.2917 28.349 23.2917 29.3385V31.1302C23.2917 32.1197 22.4895 32.9219 21.5 32.9219Z" fill="#010101"/>
<path fill-rule="evenodd" clip-rule="evenodd" d="M18.2645 2.01563C18.2927 2.01564 18.321 2.01564 18.3493 2.01564H24.6507C24.679 2.01564 24.7073 2.01564 24.7355 2.01563C25.4999 2.01554 26.2174 2.01545 26.8184 2.08565C27.4906 2.16417 28.1871 2.34537 28.8305 2.81983C29.4673 3.28934 29.842 3.89151 30.1165 4.49517C30.3667 5.04541 30.5901 5.73128 30.8336 6.47897L32.1686 10.5763C32.4566 11.4603 31.9563 12.4048 31.0511 12.6861C30.1459 12.9674 29.1787 12.4788 28.8906 11.5948L27.5804 7.57338C27.3038 6.7246 27.1365 6.2189 26.9726 5.8585C26.8974 5.69311 26.8424 5.60381 26.8074 5.55581C26.7781 5.51565 26.7632 5.50468 26.758 5.50089C26.7535 5.49752 26.7433 5.48992 26.7098 5.47858C26.666 5.4638 26.5776 5.4407 26.4099 5.42111C26.0378 5.37765 25.5298 5.37487 24.6507 5.37487H18.3493C17.4702 5.37487 16.9622 5.37765 16.5901 5.42111C16.4224 5.4407 16.334 5.4638 16.2902 5.47858C16.2567 5.48992 16.2474 5.49686 16.2429 5.50022C16.2377 5.50401 16.2219 5.51565 16.1926 5.55581C16.1576 5.60381 16.1026 5.69311 16.0274 5.8585C15.8635 6.2189 15.6962 6.7246 15.4196 7.57338L14.1093 11.5948C13.8213 12.4788 12.8541 12.9674 11.9489 12.6861C11.0437 12.4048 10.5434 11.4603 10.8314 10.5763L12.1417 6.55485C12.15 6.52948 12.1582 6.50418 12.1664 6.47895C12.4099 5.73127 12.6333 5.04541 12.8835 4.49517C13.158 3.89151 13.5327 3.28934 14.1695 2.81983C14.8129 2.34537 15.5094 2.16417 16.1816 2.08565C16.7826 2.01545 17.5001 2.01554 18.2645 2.01563Z" fill="#CC280C"/>
<path fill-rule="evenodd" clip-rule="evenodd" d="M12.5417 21.2761C13.5312 21.2761 14.3333 22.0783 14.3333 23.0678V25.7553C14.3333 26.7448 13.5312 27.547 12.5417 27.547C11.5522 27.547 10.75 26.7448 10.75 25.7553V23.0678C10.75 22.0783 11.5522 21.2761 12.5417 21.2761ZM30.4583 21.2761C31.4478 21.2761 32.25 22.0783 32.25 23.0678V25.7553C32.25 26.7448 31.4478 27.547 30.4583 27.547C29.4688 27.547 28.6667 26.7448 28.6667 25.7553V23.0678C28.6667 22.0783 29.4688 21.2761 30.4583 21.2761Z" fill="#CC280C"/>
<path fill-rule="evenodd" clip-rule="evenodd" d="M8.62435 9.09325C9.08349 8.21672 10.1663 7.87835 11.0428 8.33749L12.297 8.99443C13.1735 9.45357 13.5119 10.5364 13.0527 11.4129C12.5936 12.2894 11.5108 12.6278 10.6343 12.1687L9.38012 11.5117C8.50358 11.0526 8.16521 9.96979 8.62435 9.09325ZM34.3736 9.09326C34.8327 9.96979 34.4943 11.0526 33.6178 11.5117L32.3636 12.1687C31.4871 12.6278 30.4043 12.2894 29.9452 11.4129C29.486 10.5364 29.8244 9.45357 30.701 8.99443L31.9551 8.33748C32.8317 7.87835 33.9144 8.21672 34.3736 9.09326Z" fill="#CC280C"/>
<path d="M30.9062 9.89648C31.2867 9.89648 31.6495 10.0573 31.9043 10.3398C32.0135 10.461 32.1362 10.5939 32.2676 10.7363L32.6846 11.1924C33.121 11.6737 33.6029 12.2277 34.0186 12.8105C34.7149 13.787 35.3857 15.0477 35.3857 16.4951V21.0547C35.3857 22.3019 34.5725 23.6519 33.1182 23.8535L29.21 24.3955C29.1489 24.404 29.087 24.4082 29.0254 24.4082H13.9746C13.913 24.4082 13.8511 24.404 13.79 24.3955L9.88184 23.8535C8.4275 23.6519 7.61426 22.3019 7.61426 21.0547V16.4951C7.61426 15.0477 8.28509 13.787 8.98145 12.8105C9.53569 12.0334 10.2066 11.3063 10.7324 10.7363C10.8639 10.5939 10.9864 10.461 11.0957 10.3398C11.3505 10.0573 11.7133 9.89648 12.0938 9.89648H30.9062ZM18.8125 17.2422C18.0706 17.2424 17.4688 17.844 17.4688 18.5859C17.4688 19.3279 18.0706 19.9294 18.8125 19.9297H24.1875C24.9296 19.9297 25.5312 19.3281 25.5312 18.5859C25.5312 17.8438 24.9296 17.2422 24.1875 17.2422H18.8125ZM11.5195 14.7363C10.911 14.3115 10.0733 14.4608 9.64844 15.0693C9.22374 15.6778 9.37211 16.5156 9.98047 16.9404L11.8623 18.2539C12.4708 18.6785 13.3086 18.5293 13.7334 17.9209C14.1581 17.3124 14.0089 16.4746 13.4004 16.0498L11.5195 14.7363ZM33.5195 15.3955C33.275 14.6949 32.5083 14.3248 31.8076 14.5693L29.9268 15.2266C29.2261 15.4711 28.8561 16.2368 29.1006 16.9375C29.345 17.6381 30.1109 18.0079 30.8115 17.7637L32.6934 17.1074C33.394 16.8629 33.764 16.0962 33.5195 15.3955Z" fill="#CC280C"/>
</svg>
