<svg width="918" height="474" viewBox="0 0 918 474" fill="none" xmlns="http://www.w3.org/2000/svg">
<g opacity="0.5">
<path d="M918 152.185L791.879 58.0525L-83.9924 0H918V152.185Z" fill="white"/>
<path d="M411.679 142.979L791.875 177.287L-84 137.617L334.699 112.96L411.679 142.979Z" fill="white"/>
<path d="M416.42 165.546L799.727 216.509L-70.5952 135.736L341.012 143.581L416.42 165.546Z" fill="white"/>
<path d="M-84 191.568L88.5779 178.069L141.598 205.526L403.43 236.907L-84 207.587V191.568Z" fill="white"/>
<path d="M918 302.176L595.651 288.673L496.628 316.135L7.56848 347.515L918 318.195V302.176Z" fill="white"/>
<path d="M35.0521 373.802C45.7348 375.937 45.57 374.786 263.634 365.564L125.778 392.629L35.0521 373.802Z" fill="white"/>
<path d="M593.551 247.594C599.441 248.057 822.133 244.37 822.133 244.37L684.277 254.96L593.551 247.59V247.594Z" fill="white"/>
<path d="M-27.3964 60.5018C-21.5065 60.9655 201.186 57.2786 201.186 57.2786L63.3296 67.8682L-27.3964 60.5018Z" fill="white"/>
<path d="M271.635 343.23H271.721V354.313H285.628V343.23H285.71C285.853 343.23 285.969 343.084 285.969 342.893C285.969 342.702 285.856 342.56 285.71 342.56H284.04C283.864 338.881 281.532 335.964 278.671 335.964C275.81 335.964 273.481 338.881 273.309 342.56H271.635C271.493 342.56 271.381 342.714 271.381 342.893C271.381 343.073 271.493 343.23 271.635 343.23Z" fill="#212121" fill-opacity="0.4"/>
<path d="M556.574 341.513H556.66V349.979H570.567V341.513H570.649C570.792 341.513 570.908 341.401 570.908 341.259C570.908 341.117 570.795 341.001 570.649 341.001H568.976C568.803 338.189 566.471 335.96 563.614 335.96C560.757 335.96 558.424 338.189 558.248 341.001H556.574C556.432 341.001 556.32 341.117 556.32 341.259C556.32 341.401 556.436 341.513 556.574 341.513Z" fill="#212121" fill-opacity="0.4"/>
<path d="M795.281 343.23H795.363V354.313H809.274V343.23H809.352C809.495 343.23 809.611 343.084 809.611 342.893C809.611 342.702 809.499 342.56 809.352 342.56H807.679C807.506 338.881 805.174 335.964 802.317 335.964C799.46 335.964 797.127 338.881 796.951 342.56H795.277C795.135 342.56 795.019 342.714 795.019 342.893C795.019 343.073 795.135 343.23 795.277 343.23H795.281Z" fill="#212121" fill-opacity="0.4"/>
<path d="M40.2522 361.081H40.3458V458.149H834.96V314.325H817.171V398.691H815.531V383.67H815.692C815.961 383.67 816.178 383.457 816.178 383.184C816.178 382.911 815.961 382.698 815.692 382.698H813.812V362.633H813.947C814.183 362.633 814.374 362.446 814.374 362.21C814.374 361.975 814.183 361.788 813.947 361.788H811.659V350.69H811.768C811.962 350.69 812.112 350.536 812.112 350.349C812.112 350.162 811.962 350.005 811.768 350.005H792.874C792.686 350.005 792.529 350.159 792.529 350.349C792.529 350.54 792.686 350.69 792.874 350.69H792.986V361.788H790.698C790.462 361.788 790.275 361.975 790.275 362.21C790.275 362.446 790.462 362.633 790.698 362.633H790.837V382.698H789.683V369.835H782.715C782.644 369.599 782.434 369.431 782.18 369.431H780.948V362.218H781.944L780.375 352.645H764.517L762.948 362.218H763.945V369.431H762.716C762.462 369.431 762.248 369.599 762.174 369.835H758.182V341.816H758.482C758.998 341.816 759.414 341.401 759.414 340.889C759.414 340.377 758.998 339.961 758.482 339.961H756.49V322.821H758.107L755.561 316.711H748.975V308.858H749.851C750.345 308.858 750.742 308.465 750.742 307.972C750.742 307.478 750.345 307.082 749.851 307.082H746.743V301.338H747.305C747.623 301.338 747.881 301.08 747.881 300.762C747.881 300.445 747.623 300.187 747.305 300.187H743.077V284.627H742.287V300.187H738.063C737.745 300.187 737.487 300.445 737.487 300.762C737.487 301.08 737.741 301.338 738.063 301.338H738.625V307.082H735.517C735.023 307.082 734.626 307.482 734.626 307.972C734.626 308.462 735.023 308.858 735.517 308.858H736.393V316.711H729.807L727.261 322.821H728.879V339.961H726.883C726.37 339.961 725.954 340.38 725.954 340.889C725.954 341.397 726.37 341.816 726.883 341.816H727.182V375.631H723.449V345.35H723.569C723.771 345.35 723.936 345.182 723.936 344.983C723.936 344.785 723.771 344.621 723.569 344.621H703.552C703.349 344.621 703.188 344.789 703.188 344.983C703.188 345.178 703.349 345.35 703.552 345.35H703.672V364.207L696.389 368.346V353.845H695.333V368.948L683.92 375.44V379.175H679.314V369.745H678.614V379.175H674.132V364.895L667.666 364.794V359.985C668.549 359.196 669.111 358.045 669.111 356.762C669.111 354.376 667.171 352.436 664.779 352.436C662.386 352.436 660.447 354.376 660.447 356.762C660.447 358.045 661.004 359.189 661.892 359.985V364.697L654.351 364.574V379.175H648.742V367.898H648.936C649.27 367.898 649.543 367.625 649.543 367.292C649.543 366.959 649.27 366.69 648.936 366.69H646.963V341.461H647.042C647.379 341.461 647.648 341.188 647.648 340.855C647.648 340.522 647.379 340.249 647.042 340.249H645.132V329.503H647.431L640.392 317.324H632.135L625.092 329.503H627.391V340.249H625.485C625.148 340.249 624.879 340.519 624.879 340.855C624.879 341.192 625.145 341.461 625.485 341.461H625.564V366.69H623.591C623.535 366.69 623.486 366.705 623.433 366.716V347.881H623.508C623.815 347.881 624.062 347.635 624.062 347.324C624.062 347.014 623.815 346.771 623.508 346.771H603.787C603.48 346.771 603.233 347.018 603.233 347.324C603.233 347.631 603.48 347.881 603.787 347.881H603.862V370.956H602.057C601.75 370.956 601.503 371.203 601.503 371.514C601.503 371.824 601.75 372.067 602.057 372.067H602.237V387.469H597.448V337.209H597.676C598.069 337.209 598.387 336.895 598.387 336.503C598.387 336.11 598.069 335.788 597.676 335.788H596.253V326.84H597.388L596.253 319.911V314.329H578.46V314.949H575.749L573.798 326.84H575.038V335.788H573.51C573.117 335.788 572.798 336.106 572.798 336.503C572.798 336.899 573.117 337.209 573.51 337.209H573.742V360.516H572.948V350.69H573.057C573.248 350.69 573.401 350.536 573.401 350.349C573.401 350.162 573.248 350.005 573.057 350.005H554.163C553.968 350.005 553.818 350.159 553.818 350.349C553.818 350.54 553.972 350.69 554.163 350.69H554.271V361.788H551.983C551.748 361.788 551.56 361.975 551.56 362.21C551.56 362.446 551.748 362.633 551.983 362.633H552.118V382.698H550.965V369.835H544C543.929 369.599 543.72 369.431 543.461 369.431H542.233V362.218H543.229L541.66 352.645H525.799L524.234 362.218H525.226V369.431H523.998C523.74 369.431 523.53 369.599 523.455 369.835H519.464V341.816H519.763C520.28 341.816 520.692 341.401 520.692 340.889C520.692 340.377 520.276 339.961 519.763 339.961H517.771V322.821H519.385L516.839 316.711H510.256V308.858H511.129C511.623 308.858 512.024 308.465 512.024 307.972C512.024 307.478 511.627 307.082 511.129 307.082H508.021V301.338H508.586C508.905 301.338 509.163 301.08 509.163 300.762C509.163 300.445 508.905 300.187 508.586 300.187H504.359V284.627H503.569V300.187H499.345C499.027 300.187 498.769 300.445 498.769 300.762C498.769 301.08 499.027 301.338 499.345 301.338H499.907V307.082H496.799C496.305 307.082 495.908 307.482 495.908 307.972C495.908 308.462 496.308 308.858 496.799 308.858H497.675V316.711H491.089L488.546 322.821H490.164V339.961H488.168C487.655 339.961 487.24 340.38 487.24 340.889C487.24 341.397 487.655 341.816 488.168 341.816H488.468V375.631H484.735V345.35H484.854C485.057 345.35 485.221 345.182 485.221 344.983C485.221 344.785 485.057 344.621 484.854 344.621H464.837C464.635 344.621 464.47 344.789 464.47 344.983C464.47 345.178 464.631 345.35 464.837 345.35H464.953V364.207L457.67 368.346V353.845H456.614V368.948L445.198 375.44V379.175H440.596V369.745H439.896V379.175H435.414V364.895L428.944 364.794V359.985C429.831 359.196 430.389 358.045 430.389 356.762C430.389 354.376 428.449 352.436 426.057 352.436C423.664 352.436 421.724 354.376 421.724 356.762C421.724 358.045 422.282 359.189 423.166 359.985V364.697L415.629 364.574V379.175H410.02V367.898H410.218C410.551 367.898 410.825 367.625 410.825 367.292C410.825 366.959 410.555 366.69 410.218 366.69H408.245V341.461H408.323C408.657 341.461 408.93 341.188 408.93 340.855C408.93 340.522 408.66 340.249 408.323 340.249H406.414V329.503H408.713L401.67 317.324H393.417L386.374 329.503H388.673V340.249H386.763C386.43 340.249 386.16 340.519 386.16 340.855C386.16 341.192 386.43 341.461 386.763 341.461H386.842V366.69H384.869C384.812 366.69 384.764 366.705 384.711 366.716V347.881H384.786C385.093 347.881 385.34 347.635 385.34 347.324C385.34 347.014 385.093 346.771 384.786 346.771H365.065C364.758 346.771 364.511 347.018 364.511 347.324C364.511 347.631 364.758 347.881 365.065 347.881H365.14V370.956H363.335C363.028 370.956 362.781 371.203 362.781 371.514C362.781 371.824 363.028 372.067 363.335 372.067H363.515V387.469H358.722V337.209H358.954C359.347 337.209 359.662 336.895 359.662 336.503C359.662 336.11 359.343 335.788 358.954 335.788H357.43V326.84H358.666L356.715 314.949H337.027L335.076 326.84H336.312V335.788H334.788C334.395 335.788 334.08 336.106 334.08 336.503C334.08 336.899 334.398 337.209 334.788 337.209H335.02V360.516H325.176C325.019 360.516 324.888 360.644 324.888 360.801C324.888 360.958 325.015 361.085 325.176 361.085H325.27V404.524H311.296V314.325H293.502V398.691H291.862V383.67H292.023C292.293 383.67 292.51 383.457 292.51 383.184C292.51 382.911 292.293 382.698 292.023 382.698H290.144V362.633H290.282C290.518 362.633 290.705 362.446 290.705 362.21C290.705 361.975 290.518 361.788 290.282 361.788H287.991V350.69H288.103C288.294 350.69 288.448 350.536 288.448 350.349C288.448 350.162 288.294 350.005 288.103 350.005H269.205C269.014 350.005 268.861 350.159 268.861 350.349C268.861 350.54 269.014 350.69 269.205 350.69H269.314V361.788H267.026C266.79 361.788 266.603 361.975 266.603 362.21C266.603 362.446 266.79 362.633 267.026 362.633H267.161V382.698H266.008V369.835H259.043C258.968 369.599 258.762 369.431 258.504 369.431H257.272V362.218H258.268L256.703 352.645H240.842L239.276 362.218H240.272V369.431H239.041C238.786 369.431 238.576 369.599 238.505 369.835H234.514V341.816H234.813C235.326 341.816 235.742 341.401 235.742 340.889C235.742 340.377 235.326 339.961 234.813 339.961H232.817V322.821H234.431L231.885 316.711H225.299V308.858H226.175C226.665 308.858 227.062 308.465 227.062 307.972C227.062 307.478 226.665 307.082 226.175 307.082H223.067V301.338H223.629C223.947 301.338 224.205 301.08 224.205 300.762C224.205 300.445 223.947 300.187 223.629 300.187H219.405V284.627H218.611V300.187H214.391C214.073 300.187 213.815 300.445 213.815 300.762C213.815 301.08 214.073 301.338 214.391 301.338H214.953V307.082H211.845C211.351 307.082 210.954 307.482 210.954 307.972C210.954 308.462 211.351 308.858 211.845 308.858H212.721V316.711H206.135L203.593 322.821H205.206V339.961H203.211C202.702 339.961 202.282 340.38 202.282 340.889C202.282 341.397 202.698 341.816 203.211 341.816H203.514V375.631H199.781V345.35H199.901C200.103 345.35 200.264 345.182 200.264 344.983C200.264 344.785 200.103 344.621 199.901 344.621H179.883C179.681 344.621 179.516 344.789 179.516 344.983C179.516 345.178 179.681 345.35 179.883 345.35H180.003V364.207L172.72 368.346V353.845H171.668V368.948L160.252 375.44V379.175H155.65V369.745H154.946V379.175H150.464V364.895L143.997 364.794V359.985C144.885 359.196 145.446 358.045 145.446 356.762C145.446 354.376 143.507 352.436 141.114 352.436C138.722 352.436 136.782 354.376 136.782 356.762C136.782 358.045 137.34 359.189 138.227 359.985V364.697L130.686 364.574V379.175H125.081V367.898H125.275C125.609 367.898 125.882 367.625 125.882 367.292C125.882 366.959 125.609 366.69 125.275 366.69H123.302V341.461H123.381C123.714 341.461 123.987 341.188 123.987 340.855C123.987 340.522 123.714 340.249 123.381 340.249H121.471V329.503H123.77L116.731 317.324H108.475L101.431 329.503H103.73V340.249H101.821C101.484 340.249 101.214 340.519 101.214 340.855C101.214 341.192 101.484 341.461 101.821 341.461H101.899V366.69H99.9261C99.8737 366.69 99.8213 366.705 99.7726 366.716V347.881H99.8475C100.155 347.881 100.402 347.635 100.402 347.324C100.402 347.014 100.155 346.771 99.8475 346.771H80.1259C79.8189 346.771 79.5718 347.018 79.5718 347.324C79.5718 347.631 79.8189 347.881 80.1259 347.881H80.2008V370.956H78.3923C78.0853 370.956 77.8381 371.203 77.8381 371.514C77.8381 371.824 78.0853 372.067 78.3923 372.067H78.5758V387.469H73.783V337.209H74.0151C74.4083 337.209 74.7266 336.895 74.7266 336.503C74.7266 336.11 74.4083 335.788 74.0151 335.788H72.4874V326.84H73.7231L71.776 314.949H52.0844L50.1373 326.84H51.373V335.788H49.849C49.4558 335.788 49.1376 336.106 49.1376 336.503C49.1376 336.899 49.4558 337.209 49.849 337.209H50.0811V360.516H40.2372C40.0799 360.516 39.9526 360.644 39.9526 360.801C39.9526 360.958 40.0799 361.085 40.2372 361.085L40.2522 361.081ZM662.233 360.258C662.951 360.778 663.831 361.092 664.779 361.092C665.726 361.092 666.614 360.778 667.325 360.258V364.787L662.229 364.701V360.262L662.233 360.258ZM623.441 367.86C623.493 367.875 623.542 367.894 623.598 367.894H623.797V370.953H623.441V367.86ZM423.529 360.258C424.244 360.778 425.121 361.092 426.075 361.092C427.03 361.092 427.906 360.778 428.622 360.258V364.787L423.525 364.701V360.262L423.529 360.258ZM384.734 367.86C384.786 367.875 384.835 367.894 384.891 367.894H385.09V370.953H384.734V367.86ZM138.587 360.258C139.302 360.778 140.182 361.092 141.133 361.092C142.084 361.092 142.964 360.778 143.679 360.258V364.787L138.583 364.701V360.262L138.587 360.258ZM99.7951 367.86C99.8438 367.875 99.8962 367.894 99.9486 367.894H100.143V370.953H99.7914V367.86H99.7951Z" fill="#212121" fill-opacity="0.4"/>
<path d="M418.957 313.525H394.125C393.878 313.525 393.672 313.727 393.672 313.973C393.672 314.22 393.874 314.426 394.125 314.426H394.275V337.823L369.771 414.276V418.909H357.977V394.409H358.265C358.752 394.409 359.149 394.013 359.149 393.527C359.149 393.041 358.755 392.644 358.265 392.644H355.393V355.943H355.509C355.996 355.943 356.389 355.551 356.389 355.061C356.389 354.571 355.996 354.178 355.509 354.178H324.143C323.656 354.178 323.259 354.575 323.259 355.061C323.259 355.547 323.652 355.943 324.143 355.943H324.259V385.902C324.18 385.88 324.098 385.85 324.011 385.85H320.87V345.728H320.997C321.529 345.728 321.96 345.294 321.96 344.763C321.96 344.232 321.529 343.802 320.997 343.802H317.961V326.702H321.619L310.419 307.332H297.292L286.092 326.702H289.751V343.802H286.718C286.182 343.802 285.752 344.232 285.752 344.763C285.752 345.294 286.186 345.728 286.718 345.728H286.841V385.85H283.703C283.172 385.85 282.737 386.284 282.737 386.811C282.737 387.338 283.172 387.776 283.703 387.776H284.018V405.709H275.099V382.488L243.639 383.001V405.709H228.073V399.775L226.647 398.96V381.987H222.393V374.026H221.708V381.987H212.418V374.026H211.729V381.987H206.895V387.727L196.662 381.909V307.908H196.849C197.167 307.908 197.429 307.65 197.429 307.332C197.429 307.015 197.167 306.749 196.849 306.749H165.014C164.692 306.749 164.434 307.011 164.434 307.332C164.434 307.654 164.696 307.908 165.014 307.908H165.205V424.974H163.524V401.076H163.689C163.966 401.076 164.191 400.848 164.191 400.575C164.191 400.302 163.966 400.067 163.689 400.067H153.414V395.868C154.822 394.608 155.713 392.783 155.713 390.749C155.713 386.946 152.628 383.868 148.824 383.868C145.02 383.868 141.934 386.946 141.934 390.749C141.934 392.786 142.825 394.608 144.237 395.868V400.067H136.003C135.726 400.067 135.498 400.295 135.498 400.575C135.498 400.856 135.726 401.076 136.003 401.076H136.168V424.974H134.292V403.081H134.543C134.97 403.081 135.318 402.729 135.318 402.303C135.318 401.877 134.97 401.529 134.543 401.529H132.019V369.293H132.124C132.551 369.293 132.899 368.949 132.899 368.519C132.899 368.088 132.551 367.744 132.124 367.744H129.683V316.957H132.622L123.928 301.918H124.575C125.002 301.918 125.35 301.574 125.35 301.148C125.35 300.721 125.002 300.37 124.575 300.37H123.811V292.873H124.575C125.002 292.873 125.35 292.529 125.35 292.102C125.35 291.676 125.002 291.325 124.575 291.325H121.872V288.849H114.817V291.325H112.118C111.687 291.325 111.343 291.672 111.343 292.102C111.343 292.532 111.687 292.873 112.118 292.873H112.878V300.37H112.118C111.687 300.37 111.343 300.718 111.343 301.148C111.343 301.578 111.687 301.918 112.118 301.918H112.766L104.075 316.957H107.01V367.744H104.573C104.146 367.744 103.798 368.088 103.798 368.519C103.798 368.949 104.146 369.293 104.573 369.293H104.674V401.529H102.154C101.727 401.529 101.379 401.873 101.379 402.303C101.379 402.733 101.727 403.081 102.154 403.081H102.405V411.318H100.252V379.4H100.473C100.844 379.4 101.147 379.097 101.147 378.727C101.147 378.357 100.847 378.05 100.473 378.05H63.4897C63.1153 378.05 62.8157 378.353 62.8157 378.727C62.8157 379.101 63.1153 379.4 63.4897 379.4H63.7069V411.318H58.0491V379.4H58.2663C58.6407 379.4 58.9403 379.097 58.9403 378.727C58.9403 378.357 58.6407 378.05 58.2663 378.05H54.6268V360.408H54.799C55.1061 360.408 55.3457 360.165 55.3457 359.862C55.3457 359.559 55.1023 359.316 54.799 359.316H50.8337V347.377H50.9685C51.1932 347.377 51.3767 347.193 51.3767 346.969C51.3767 346.745 51.1932 346.565 50.9685 346.565H48.3063C48.0255 342.089 44.3223 338.544 39.7729 338.544C35.2235 338.544 31.5165 342.089 31.2395 346.565H28.5772C28.3488 346.565 28.1691 346.745 28.1691 346.969C28.1691 347.193 28.3488 347.377 28.5772 347.377H28.712V359.316H24.7467C24.4434 359.316 24.2001 359.559 24.2001 359.862C24.2001 360.165 24.4472 360.408 24.7467 360.408H24.9227V378.05H21.2795C20.9088 378.05 20.6055 378.353 20.6055 378.727C20.6055 379.101 20.9088 379.4 21.2795 379.4H21.4966V411.318H18.5086C18.078 411.318 17.7335 411.662 17.7335 412.089C17.7335 412.515 18.0818 412.867 18.5086 412.867H18.7595V436.749H16.1534V421.269H12.0196V394.436H7.54137V369.663L-8.8627 381.341V394.436H-13.341V421.269H-17.4747V436.749H-20.0359V473.832H418.815V314.418H418.965C419.212 314.418 419.418 314.216 419.418 313.966C419.418 313.715 419.216 313.517 418.965 313.517L418.957 313.525ZM152.868 400.078H144.765V396.313C145.903 397.139 147.3 397.636 148.816 397.636C150.333 397.636 151.729 397.143 152.868 396.313V400.078ZM324.259 392.648H323.697V387.78H324.011C324.101 387.78 324.18 387.753 324.259 387.727V392.644V392.648Z" fill="#818181"/>
<path d="M853.585 313.525H828.752C828.505 313.525 828.303 313.727 828.303 313.973C828.303 314.22 828.509 314.426 828.752 314.426H828.902V337.823L804.402 414.276V418.909H792.604V394.409H792.892C793.379 394.409 793.776 394.013 793.776 393.527C793.776 393.041 793.383 392.644 792.892 392.644H790.024V355.943H790.136C790.623 355.943 791.02 355.551 791.02 355.061C791.02 354.571 790.627 354.178 790.136 354.178H758.774C758.287 354.178 757.89 354.575 757.89 355.061C757.89 355.547 758.287 355.943 758.774 355.943H758.886V385.902C758.807 385.88 758.729 385.85 758.639 385.85H755.501V345.727H755.625C756.16 345.727 756.591 345.294 756.591 344.763C756.591 344.232 756.156 343.802 755.625 343.802H752.592V326.702H756.25L745.047 307.332H731.919L720.72 326.702H724.378V343.802H721.341C720.806 343.802 720.379 344.232 720.379 344.763C720.379 345.294 720.81 345.727 721.341 345.727H721.468V385.85H718.331C717.795 385.85 717.368 386.284 717.368 386.811C717.368 387.338 717.799 387.776 718.331 387.776H718.645V405.709H709.726V382.488L678.266 383.001V405.709H662.697V399.775L661.274 398.96V381.987H657.02V374.026H656.335V381.987H647.049V374.026H646.36V381.987H641.519V387.727L631.289 381.909V307.908H631.476C631.798 307.908 632.057 307.65 632.057 307.332C632.057 307.015 631.798 306.749 631.476 306.749H599.642C599.32 306.749 599.061 307.011 599.061 307.332C599.061 307.654 599.324 307.908 599.642 307.908H599.829V424.974H598.148V401.076H598.316C598.59 401.076 598.818 400.848 598.818 400.575C598.818 400.302 598.59 400.067 598.316 400.067H588.038V395.868C589.446 394.608 590.337 392.783 590.337 390.749C590.337 386.946 587.252 383.868 583.447 383.868C579.643 383.868 576.558 386.946 576.558 390.749C576.558 392.786 577.449 394.608 578.857 395.868V400.067H570.627C570.346 400.067 570.121 400.295 570.121 400.575C570.121 400.856 570.346 401.076 570.627 401.076H570.791V424.974H568.912V403.081H569.163C569.593 403.081 569.938 402.729 569.938 402.303C569.938 401.877 569.593 401.529 569.163 401.529H566.639V369.292H566.74C567.167 369.292 567.515 368.948 567.515 368.518C567.515 368.088 567.167 367.744 566.74 367.744H564.302V258.467H567.242L558.547 243.432H559.195C559.626 243.432 559.974 243.084 559.974 242.654C559.974 242.224 559.626 241.88 559.195 241.88H558.439V234.379H559.195C559.626 234.379 559.974 234.035 559.974 233.605C559.974 233.175 559.626 232.827 559.195 232.827H556.495V164.196L549.445 212.362V232.827H546.741C546.315 232.827 545.966 233.175 545.966 233.605C545.966 234.035 546.315 234.379 546.741 234.379H547.502V241.88H546.741C546.315 241.88 545.966 242.224 545.966 242.654C545.966 243.084 546.315 243.432 546.741 243.432H547.389L538.699 258.467H541.634V367.744H539.196C538.77 367.744 538.421 368.088 538.421 368.518C538.421 368.948 538.77 369.292 539.196 369.292H539.301V401.529H536.778C536.347 401.529 536.003 401.873 536.003 402.303C536.003 402.733 536.347 403.081 536.778 403.081H537.025V411.318H534.872V379.4H535.093C535.467 379.4 535.767 379.097 535.767 378.727C535.767 378.357 535.467 378.05 535.093 378.05H498.11C497.735 378.05 497.436 378.353 497.436 378.727C497.436 379.101 497.735 379.4 498.11 379.4H498.327V411.318H492.669V379.4H492.886C493.261 379.4 493.56 379.097 493.56 378.727C493.56 378.357 493.261 378.05 492.886 378.05H489.247V360.408H489.423C489.726 360.408 489.969 360.165 489.969 359.862C489.969 359.559 489.726 359.316 489.423 359.316H485.454V347.376H485.588C485.813 347.376 485.997 347.193 485.997 346.969C485.997 346.745 485.813 346.565 485.588 346.565H482.926C482.645 342.089 478.942 338.544 474.393 338.544C469.843 338.544 466.136 342.089 465.856 346.565H463.197C462.969 346.565 462.789 346.745 462.789 346.969C462.789 347.193 462.969 347.376 463.197 347.376H463.332V359.316H459.363C459.063 359.316 458.816 359.559 458.816 359.862C458.816 360.165 459.063 360.408 459.363 360.408H459.543V378.05H455.899C455.525 378.05 455.225 378.353 455.225 378.727C455.225 379.101 455.525 379.4 455.899 379.4H456.12V411.318H453.132C452.705 411.318 452.357 411.662 452.357 412.089C452.357 412.515 452.705 412.866 453.132 412.866H453.383V436.749H450.777V421.269H446.643V394.435H442.161V369.663L425.761 381.34V394.435H421.283V421.269H417.149V436.749H414.588V473.832H853.439V314.418H853.585C853.832 314.418 854.034 314.216 854.034 313.966C854.034 313.715 853.832 313.517 853.585 313.517V313.525ZM587.499 400.078H579.396V396.313C580.534 397.139 581.931 397.636 583.447 397.636C584.964 397.636 586.361 397.143 587.499 396.313V400.078ZM758.886 392.648H758.324V387.78H758.639C758.729 387.78 758.807 387.753 758.886 387.727V392.644V392.648Z" fill="#818181"/>
<path d="M191.633 247.466H168.208V321.777H191.633V247.466Z" fill="#818181"/>
</g>
</svg>
