<svg width="58" height="52" viewBox="0 0 58 52" fill="none" xmlns="http://www.w3.org/2000/svg">
<path d="M43.6705 52.0002C40.1033 52.0002 37.2012 49.0581 37.2012 45.4418C37.2012 41.8254 40.1033 38.8833 43.6705 38.8833C47.2377 38.8833 50.1398 41.8254 50.1398 45.4418C50.1398 49.0581 47.2384 52.0002 43.6705 52.0002ZM43.6705 41.168C41.3462 41.168 39.4556 43.0847 39.4556 45.441C39.4556 47.7973 41.347 49.714 43.6705 49.714C45.994 49.714 47.8854 47.7973 47.8854 45.441C47.8854 43.0847 45.9948 41.168 43.6705 41.168Z" fill="black"/>
<path d="M14.3307 52.0002C10.7635 52.0002 7.86133 49.0581 7.86133 45.4418C7.86133 41.8254 10.7635 38.8833 14.3307 38.8833C17.8978 38.8833 20.8 41.8254 20.8 45.4418C20.8 49.0581 17.8978 52.0002 14.3307 52.0002ZM14.3307 41.168C12.0064 41.168 10.1157 43.0847 10.1157 45.441C10.1157 47.7973 12.0071 49.714 14.3307 49.714C16.6542 49.714 18.5456 47.7973 18.5456 45.441C18.5456 43.0847 16.6542 41.168 14.3307 41.168Z" fill="black"/>
<path d="M55.4798 46.5846H49.0135C48.3913 46.5846 47.8863 46.0734 47.8863 45.4418C47.8863 44.8103 48.3913 44.2991 49.0135 44.2991H55.4798C55.6264 44.2991 55.7458 44.178 55.7458 44.0287V31.1799C55.7458 31.0313 55.6264 30.9102 55.4798 30.9102H2.52138C2.37484 30.9102 2.25536 31.0313 2.25536 31.1799V44.0287C2.25536 44.178 2.37484 44.2991 2.52138 44.2991H8.9877C9.60991 44.2991 10.1149 44.8103 10.1149 45.4418C10.1149 46.0734 9.60991 46.5846 8.9877 46.5846H2.52138C1.13117 46.5846 0.000976562 45.438 0.000976562 44.0287V31.1799C0.000976562 29.7705 1.13193 28.6248 2.52138 28.6248H55.4806C56.8708 28.6248 58.001 29.7713 58.001 31.1799V44.0287C58.001 45.438 56.87 46.5846 55.4798 46.5846Z" fill="black"/>
<path d="M38.3284 46.5845H19.6726C19.0504 46.5845 18.5454 46.0733 18.5454 45.4418C18.5454 44.8103 19.0504 44.2991 19.6726 44.2991H38.3284C38.9506 44.2991 39.4556 44.8103 39.4556 45.4418C39.4556 46.0733 38.9506 46.5845 38.3284 46.5845Z" fill="black"/>
<path d="M29.0007 30.9094C28.3785 30.9094 27.8735 30.3982 27.8735 29.7666V16.2475C27.8735 15.6159 28.3785 15.1047 29.0007 15.1047C29.6229 15.1047 30.1279 15.6159 30.1279 16.2475V29.7666C30.1279 30.3982 29.6229 30.9094 29.0007 30.9094Z" fill="black"/>
<path d="M52.065 30.9093H5.93588C5.52257 30.9093 5.14308 30.6808 4.9462 30.3128C4.74857 29.9449 4.76585 29.4977 4.98979 29.1457L12.6216 17.1776C13.5827 15.7629 15.1217 14.9348 16.7569 14.9348H31.0016C31.6238 14.9348 32.1288 15.446 32.1288 16.0775C32.1288 16.7091 31.6238 17.2203 31.0016 17.2203H16.7569C15.8642 17.2203 15.0188 17.6789 14.4965 18.4468L8.00615 28.6239H50.2608L48.8315 25.6566C48.5587 25.0891 48.7902 24.4049 49.3493 24.1284C49.9084 23.8519 50.5847 24.0865 50.8567 24.6533L53.078 29.2646C53.2494 29.6188 53.2268 30.037 53.0217 30.3715C52.815 30.7059 52.4543 30.9093 52.065 30.9093Z" fill="black"/>
<path d="M43.4357 26.2181C43.3064 26.2181 43.1772 26.196 43.0539 26.1511C42.5903 25.982 31.7069 21.8087 32.0766 4.32964C32.0856 3.93578 32.293 3.57392 32.6267 3.3728C32.8551 3.23491 38.2701 0.000244141 43.4379 0.000244141C48.6065 0.000244141 54.017 3.23568 54.2454 3.37356C54.5806 3.57621 54.7887 3.94035 54.7948 4.3365C54.7993 4.63513 54.7955 5.28801 54.7948 5.30553C54.6415 20.7049 44.3615 25.8921 43.9241 26.1054C43.7701 26.1808 43.6032 26.2181 43.4357 26.2181ZM34.322 5.03127C34.2663 18.5223 41.4729 22.8898 43.3778 23.807C45.2497 22.6978 52.4171 17.6424 52.5419 5.24154C52.5426 5.21716 52.5426 5.13488 52.5426 5.02822C51.1088 4.25346 47.1028 2.28493 43.4379 2.28493C39.7565 2.28569 35.7497 4.25879 34.322 5.03127Z" fill="#CC280C"/>
<path d="M42.1823 16.6398C41.9509 16.6398 41.7187 16.5682 41.5188 16.4204L38.9668 14.5333C38.4641 14.1616 38.3536 13.447 38.7204 12.9366C39.0871 12.4262 39.7919 12.3142 40.2954 12.6867L42.029 13.9681L46.6062 8.84868C47.0247 8.38093 47.7371 8.34512 48.1978 8.76945C48.6592 9.19302 48.6945 9.91599 48.2759 10.3837L43.0187 16.2642C42.797 16.5118 42.4912 16.6398 42.1823 16.6398Z" fill="#CC280C"/>
</svg>
